<ttFont>
    <TTGlyph name=".notdef" xMin="0" yMin="0" xMax="500" yMax="700">
      <contour>
        <pt x="0" y="700" on="1"/>
        <pt x="500" y="700" on="1"/>
        <pt x="500" y="0" on="1"/>
        <pt x="0" y="0" on="1"/>
      </contour>
      <contour>
        <pt x="420" y="650" on="1"/>
        <pt x="80" y="650" on="1"/>
        <pt x="250" y="395" on="1"/>
      </contour>
      <contour>
        <pt x="220" y="350" on="1"/>
        <pt x="50" y="605" on="1"/>
        <pt x="50" y="95" on="1"/>
      </contour>
      <contour>
        <pt x="450" y="605" on="1"/>
        <pt x="280" y="350" on="1"/>
        <pt x="450" y="95" on="1"/>
      </contour>
      <contour>
        <pt x="420" y="50" on="1"/>
        <pt x="250" y="305" on="1"/>
        <pt x="80" y="50" on="1"/>
      </contour>
    </TTGlyph>
    <TTGlyph name=".ttfautohint" xMin="0" yMin="0" xMax="0" yMax="0">
      <contour>
        <pt x="0" y="0" on="1"/>
      </contour>
    </TTGlyph>
    <TTGlyph name="A" xMin="-49" yMin="0" xMax="646" yMax="686">
      <contour>
        <pt x="338" y="686" on="1"/>
        <pt x="499" y="686" on="1"/>
        <pt x="646" y="0" on="1"/>
        <pt x="514" y="0" on="1"/>
        <pt x="484" y="149" on="1"/>
        <pt x="168" y="149" on="1"/>
        <pt x="86" y="0" on="1"/>
        <pt x="-49" y="0" on="1"/>
      </contour>
      <contour>
        <pt x="463" y="257" on="1"/>
        <pt x="428" y="436" on="1"/>
        <pt x="421" y="470" on="0"/>
        <pt x="409" y="549" on="1"/>
        <pt x="406" y="561" on="0"/>
        <pt x="405" y="573" on="0"/>
        <pt x="404" y="576" on="1"/>
        <pt x="399" y="576" on="1"/>
        <pt x="397" y="572" on="0"/>
        <pt x="386" y="551" on="1"/>
        <pt x="345" y="472" on="0"/>
        <pt x="326" y="437" on="1"/>
        <pt x="228" y="257" on="1"/>
      </contour>
    </TTGlyph>
    <TTGlyph name="AE" xMin="-62" yMin="0" xMax="1001" yMax="686">
      <contour>
        <pt x="395" y="686" on="1"/>
        <pt x="1001" y="686" on="1"/>
        <pt x="982" y="577" on="1"/>
        <pt x="575" y="577" on="1"/>
        <pt x="591" y="405" on="1"/>
        <pt x="908" y="405" on="1"/>
        <pt x="889" y="296" on="1"/>
        <pt x="602" y="296" on="1"/>
        <pt x="620" y="109" on="1"/>
        <pt x="906" y="109" on="1"/>
        <pt x="886" y="0" on="1"/>
        <pt x="508" y="0" on="1"/>
        <pt x="494" y="149" on="1"/>
        <pt x="173" y="149" on="1"/>
        <pt x="76" y="0" on="1"/>
        <pt x="-62" y="0" on="1"/>
      </contour>
      <contour>
        <pt x="485" y="257" on="1"/>
        <pt x="456" y="577" on="1"/>
        <pt x="451" y="577" on="1"/>
        <pt x="243" y="257" on="1"/>
      </contour>
    </TTGlyph>
    <TTGlyph name="AEacute" xMin="-62" yMin="0" xMax="1001" yMax="868">
      <component glyphName=".ttfautohint" x="0" y="0" flags="0x0"/>
      <component glyphName="AE" x="0" y="0" flags="0x0"/>
      <component glyphName="acute" x="475" y="145" flags="0x4"/>
    </TTGlyph>
    <TTGlyph name="Aacute" xMin="-49" yMin="0" xMax="646" yMax="868">
      <component glyphName=".ttfautohint" x="0" y="0" flags="0x0"/>
      <component glyphName="A" x="0" y="0" flags="0x0"/>
      <component glyphName="acute" x="317" y="145" flags="0x4"/>
    </TTGlyph>
    <TTGlyph name="Abreve" xMin="-49" yMin="0" xMax="646" yMax="868">
      <component glyphName=".ttfautohint" x="0" y="0" flags="0x0"/>
      <component glyphName="A" x="0" y="0" flags="0x0"/>
      <component glyphName="breve" x="263" y="145" flags="0x4"/>
    </TTGlyph>
    <TTGlyph name="Acircumflex" xMin="-49" yMin="0" xMax="646" yMax="868">
      <component glyphName=".ttfautohint" x="0" y="0" flags="0x0"/>
      <component glyphName="A" x="0" y="0" flags="0x0"/>
      <component glyphName="circumflex" x="267" y="145" flags="0x4"/>
    </TTGlyph>
    <TTGlyph name="Adieresis" xMin="-49" yMin="0" xMax="646" yMax="868">
      <component glyphName=".ttfautohint" x="0" y="0" flags="0x0"/>
      <component glyphName="A" x="0" y="0" flags="0x0"/>
      <component glyphName="dieresis" x="276" y="145" flags="0x4"/>
    </TTGlyph>
    <TTGlyph name="Agrave" xMin="-49" yMin="0" xMax="646" yMax="868">
      <component glyphName=".ttfautohint" x="0" y="0" flags="0x0"/>
      <component glyphName="A" x="0" y="0" flags="0x0"/>
      <component glyphName="grave" x="212" y="145" flags="0x4"/>
    </TTGlyph>
    <TTGlyph name="Amacron" xMin="-49" yMin="0" xMax="646" yMax="844">
      <component glyphName=".ttfautohint" x="0" y="0" flags="0x0"/>
      <component glyphName="A" x="0" y="0" flags="0x0"/>
      <component glyphName="macron" x="278" y="145" flags="0x4"/>
    </TTGlyph>
    <TTGlyph name="Aogonek" xMin="-49" yMin="-182" xMax="646" yMax="686">
      <contour>
        <pt x="502" y="-182" on="0"/>
        <pt x="451" y="-146" on="0"/>
        <pt x="451" y="-106" on="1"/>
        <pt x="451" y="-48" on="0"/>
        <pt x="514" y="0" on="1"/>
        <pt x="484" y="149" on="1"/>
        <pt x="168" y="149" on="1"/>
        <pt x="86" y="0" on="1"/>
        <pt x="-49" y="0" on="1"/>
        <pt x="338" y="686" on="1"/>
        <pt x="499" y="686" on="1"/>
        <pt x="646" y="0" on="1"/>
        <pt x="600" y="0" on="1"/>
        <pt x="581" y="-15" on="0"/>
        <pt x="554" y="-55" on="0"/>
        <pt x="554" y="-75" on="1"/>
        <pt x="554" y="-114" on="0"/>
        <pt x="599" y="-114" on="1"/>
        <pt x="626" y="-114" on="1"/>
        <pt x="616" y="-168" on="1"/>
        <pt x="577" y="-182" on="0"/>
        <pt x="540" y="-182" on="1"/>
      </contour>
      <contour>
        <pt x="463" y="257" on="1"/>
        <pt x="428" y="436" on="1"/>
        <pt x="421" y="470" on="0"/>
        <pt x="409" y="549" on="1"/>
        <pt x="406" y="561" on="0"/>
        <pt x="405" y="573" on="0"/>
        <pt x="404" y="576" on="1"/>
        <pt x="399" y="576" on="1"/>
        <pt x="397" y="572" on="0"/>
        <pt x="386" y="551" on="1"/>
        <pt x="345" y="472" on="0"/>
        <pt x="326" y="437" on="1"/>
        <pt x="228" y="257" on="1"/>
      </contour>
    </TTGlyph>
    <TTGlyph name="Aring" xMin="-49" yMin="0" xMax="646" yMax="903">
      <component glyphName=".ttfautohint" x="0" y="0" flags="0x0"/>
      <component glyphName="A" x="0" y="0" flags="0x0"/>
      <component glyphName="ring" x="270" y="145" flags="0x4"/>
    </TTGlyph>
    <TTGlyph name="Aringacute" xMin="-49" yMin="0" xMax="646" yMax="993">
      <contour>
        <pt x="499" y="993" on="1"/>
        <pt x="625" y="993" on="1"/>
        <pt x="626" y="990" on="1"/>
        <pt x="497" y="861" on="1"/>
        <pt x="395" y="861" on="1"/>
      </contour>
      <contour>
        <pt x="335" y="681" on="1"/>
        <pt x="325" y="697" on="0"/>
        <pt x="325" y="720" on="1"/>
        <pt x="325" y="769" on="0"/>
        <pt x="388" y="836" on="0"/>
        <pt x="439" y="836" on="1"/>
        <pt x="479" y="836" on="0"/>
        <pt x="527" y="789" on="0"/>
        <pt x="527" y="752" on="1"/>
        <pt x="527" y="709" on="0"/>
        <pt x="501" y="680" on="1"/>
        <pt x="646" y="0" on="1"/>
        <pt x="514" y="0" on="1"/>
        <pt x="484" y="149" on="1"/>
        <pt x="168" y="149" on="1"/>
        <pt x="86" y="0" on="1"/>
        <pt x="-49" y="0" on="1"/>
      </contour>
      <contour>
        <pt x="441" y="691" on="0"/>
        <pt x="474" y="723" on="0"/>
        <pt x="474" y="745" on="1"/>
        <pt x="474" y="762" on="0"/>
        <pt x="451" y="784" on="0"/>
        <pt x="433" y="784" on="1"/>
        <pt x="409" y="784" on="0"/>
        <pt x="379" y="751" on="0"/>
        <pt x="379" y="727" on="1"/>
        <pt x="379" y="711" on="0"/>
        <pt x="400" y="691" on="0"/>
        <pt x="418" y="691" on="1"/>
      </contour>
      <contour>
        <pt x="463" y="257" on="1"/>
        <pt x="428" y="436" on="1"/>
        <pt x="421" y="470" on="0"/>
        <pt x="409" y="549" on="1"/>
        <pt x="406" y="561" on="0"/>
        <pt x="405" y="573" on="0"/>
        <pt x="404" y="576" on="1"/>
        <pt x="399" y="576" on="1"/>
        <pt x="397" y="572" on="0"/>
        <pt x="386" y="551" on="1"/>
        <pt x="345" y="472" on="0"/>
        <pt x="326" y="437" on="1"/>
        <pt x="228" y="257" on="1"/>
      </contour>
    </TTGlyph>
    <TTGlyph name="Atilde" xMin="-49" yMin="0" xMax="646" yMax="868">
      <component glyphName=".ttfautohint" x="0" y="0" flags="0x0"/>
      <component glyphName="A" x="0" y="0" flags="0x0"/>
      <component glyphName="tilde" x="275" y="145" flags="0x4"/>
    </TTGlyph>
    <TTGlyph name="B" xMin="12" yMin="0" xMax="669" yMax="686">
      <contour>
        <pt x="133" y="686" on="1"/>
        <pt x="454" y="686" on="1"/>
        <pt x="555" y="686" on="0"/>
        <pt x="669" y="607" on="0"/>
        <pt x="669" y="530" on="1"/>
        <pt x="669" y="468" on="0"/>
        <pt x="587" y="373" on="0"/>
        <pt x="526" y="360" on="1"/>
        <pt x="526" y="356" on="1"/>
        <pt x="573" y="341" on="0"/>
        <pt x="631" y="264" on="0"/>
        <pt x="631" y="208" on="1"/>
        <pt x="631" y="139" on="0"/>
        <pt x="563" y="45" on="0"/>
        <pt x="451" y="0" on="0"/>
        <pt x="384" y="0" on="1"/>
        <pt x="12" y="0" on="1"/>
      </contour>
      <contour>
        <pt x="421" y="405" on="1"/>
        <pt x="475" y="405" on="0"/>
        <pt x="535" y="462" on="0"/>
        <pt x="535" y="504" on="1"/>
        <pt x="535" y="541" on="0"/>
        <pt x="490" y="577" on="0"/>
        <pt x="453" y="577" on="1"/>
        <pt x="242" y="577" on="1"/>
        <pt x="212" y="405" on="1"/>
      </contour>
      <contour>
        <pt x="380" y="109" on="1"/>
        <pt x="433" y="109" on="0"/>
        <pt x="501" y="162" on="0"/>
        <pt x="501" y="215" on="1"/>
        <pt x="501" y="255" on="0"/>
        <pt x="453" y="298" on="0"/>
        <pt x="405" y="298" on="1"/>
        <pt x="193" y="298" on="1"/>
        <pt x="160" y="109" on="1"/>
      </contour>
    </TTGlyph>
    <TTGlyph name="C" xMin="35" yMin="-12" xMax="701" yMax="698">
      <contour>
        <pt x="35" y="-12" on="0"/>
        <pt x="35" y="254" on="1"/>
        <pt x="35" y="368" on="0"/>
        <pt x="110" y="560" on="0"/>
        <pt x="183" y="620" on="1"/>
        <pt x="230" y="658" on="0"/>
        <pt x="354" y="698" on="0"/>
        <pt x="426" y="698" on="1"/>
        <pt x="551" y="698" on="0"/>
        <pt x="701" y="591" on="0"/>
        <pt x="701" y="489" on="1"/>
        <pt x="701" y="466" on="0"/>
        <pt x="696" y="433" on="1"/>
        <pt x="565" y="433" on="1"/>
        <pt x="568" y="451" on="0"/>
        <pt x="568" y="468" on="1"/>
        <pt x="568" y="528" on="0"/>
        <pt x="492" y="590" on="0"/>
        <pt x="425" y="590" on="1"/>
        <pt x="325" y="590" on="0"/>
        <pt x="200" y="471" on="0"/>
        <pt x="179" y="366" on="1"/>
        <pt x="166" y="302" on="0"/>
        <pt x="166" y="259" on="1"/>
        <pt x="166" y="176" on="0"/>
        <pt x="245" y="96" on="0"/>
        <pt x="326" y="96" on="1"/>
        <pt x="410" y="96" on="0"/>
        <pt x="524" y="177" on="0"/>
        <pt x="538" y="251" on="1"/>
        <pt x="664" y="251" on="1"/>
        <pt x="642" y="122" on="0"/>
        <pt x="456" y="-12" on="0"/>
        <pt x="325" y="-12" on="1"/>
      </contour>
    </TTGlyph>
    <TTGlyph name="Cacute" xMin="35" yMin="-12" xMax="701" yMax="868">
      <component glyphName=".ttfautohint" x="35" y="0" flags="0x0"/>
      <component glyphName="C" x="0" y="0" flags="0x0"/>
      <component glyphName="acute" x="326" y="145" flags="0x4"/>
    </TTGlyph>
    <TTGlyph name="Cacute.loclPLK" xMin="35" yMin="-12" xMax="701" yMax="868">
      <component glyphName=".ttfautohint" x="35" y="0" flags="0x0"/>
      <component glyphName="C" x="0" y="0" flags="0x0"/>
      <component glyphName="acute.loclPLK" x="224" y="145" flags="0x4"/>
    </TTGlyph>
    <TTGlyph name="Ccaron" xMin="35" yMin="-12" xMax="701" yMax="868">
      <component glyphName=".ttfautohint" x="35" y="0" flags="0x0"/>
      <component glyphName="C" x="0" y="0" flags="0x0"/>
      <component glyphName="caron" x="283" y="145" flags="0x4"/>
    </TTGlyph>
    <TTGlyph name="Ccedilla" xMin="35" yMin="-182" xMax="701" yMax="698">
      <contour>
        <pt x="565" y="433" on="1"/>
        <pt x="568" y="451" on="0"/>
        <pt x="568" y="468" on="1"/>
        <pt x="568" y="528" on="0"/>
        <pt x="492" y="590" on="0"/>
        <pt x="425" y="590" on="1"/>
        <pt x="325" y="590" on="0"/>
        <pt x="200" y="471" on="0"/>
        <pt x="179" y="366" on="1"/>
        <pt x="166" y="302" on="0"/>
        <pt x="166" y="259" on="1"/>
        <pt x="166" y="176" on="0"/>
        <pt x="245" y="96" on="0"/>
        <pt x="326" y="96" on="1"/>
        <pt x="410" y="96" on="0"/>
        <pt x="524" y="177" on="0"/>
        <pt x="538" y="251" on="1"/>
        <pt x="664" y="251" on="1"/>
        <pt x="642" y="128" on="0"/>
        <pt x="471" y="-6" on="0"/>
        <pt x="349" y="-11" on="1"/>
        <pt x="341" y="-34" on="1"/>
        <pt x="379" y="-36" on="0"/>
        <pt x="426" y="-67" on="0"/>
        <pt x="426" y="-97" on="1"/>
        <pt x="426" y="-144" on="0"/>
        <pt x="339" y="-182" on="0"/>
        <pt x="284" y="-182" on="1"/>
        <pt x="228" y="-182" on="0"/>
        <pt x="182" y="-174" on="1"/>
        <pt x="191" y="-125" on="1"/>
        <pt x="283" y="-125" on="1"/>
        <pt x="306" y="-125" on="0"/>
        <pt x="331" y="-112" on="0"/>
        <pt x="331" y="-96" on="1"/>
        <pt x="331" y="-86" on="0"/>
        <pt x="314" y="-77" on="0"/>
        <pt x="294" y="-77" on="1"/>
        <pt x="249" y="-77" on="1"/>
        <pt x="272" y="-10" on="1"/>
        <pt x="35" y="13" on="0"/>
        <pt x="35" y="254" on="1"/>
        <pt x="35" y="368" on="0"/>
        <pt x="110" y="560" on="0"/>
        <pt x="183" y="620" on="1"/>
        <pt x="230" y="658" on="0"/>
        <pt x="354" y="698" on="0"/>
        <pt x="426" y="698" on="1"/>
        <pt x="551" y="698" on="0"/>
        <pt x="701" y="591" on="0"/>
        <pt x="701" y="489" on="1"/>
        <pt x="701" y="466" on="0"/>
        <pt x="696" y="433" on="1"/>
      </contour>
    </TTGlyph>
    <TTGlyph name="Ccircumflex" xMin="35" yMin="-12" xMax="701" yMax="868">
      <component glyphName=".ttfautohint" x="35" y="0" flags="0x0"/>
      <component glyphName="C" x="0" y="0" flags="0x0"/>
      <component glyphName="circumflex" x="276" y="145" flags="0x4"/>
    </TTGlyph>
    <TTGlyph name="Cdotaccent" xMin="35" yMin="-12" xMax="701" yMax="869">
      <component glyphName=".ttfautohint" x="35" y="0" flags="0x0"/>
      <component glyphName="C" x="0" y="0" flags="0x0"/>
      <component glyphName="dotaccent" x="283" y="145" flags="0x4"/>
    </TTGlyph>
    <TTGlyph name="D" xMin="12" yMin="0" xMax="689" yMax="686">
      <contour>
        <pt x="133" y="686" on="1"/>
        <pt x="393" y="686" on="1"/>
        <pt x="536" y="686" on="0"/>
        <pt x="689" y="552" on="0"/>
        <pt x="689" y="415" on="1"/>
        <pt x="689" y="322" on="0"/>
        <pt x="633" y="163" on="0"/>
        <pt x="579" y="106" on="1"/>
        <pt x="529" y="55" on="0"/>
        <pt x="390" y="0" on="0"/>
        <pt x="306" y="0" on="1"/>
        <pt x="12" y="0" on="1"/>
      </contour>
      <contour>
        <pt x="299" y="109" on="1"/>
        <pt x="398" y="109" on="0"/>
        <pt x="529" y="222" on="0"/>
        <pt x="547" y="325" on="1"/>
        <pt x="557" y="381" on="0"/>
        <pt x="557" y="412" on="1"/>
        <pt x="557" y="494" on="0"/>
        <pt x="470" y="577" on="0"/>
        <pt x="387" y="577" on="1"/>
        <pt x="241" y="577" on="1"/>
        <pt x="159" y="109" on="1"/>
      </contour>
    </TTGlyph>
    <TTGlyph name="Dcaron" xMin="12" yMin="0" xMax="689" yMax="868">
      <component glyphName=".ttfautohint" x="12" y="0" flags="0x0"/>
      <component glyphName="D" x="0" y="0" flags="0x0"/>
      <component glyphName="caron" x="247" y="145" flags="0x4"/>
    </TTGlyph>
    <TTGlyph name="Dcroat" xMin="2" yMin="0" xMax="689" yMax="686">
      <component glyphName=".ttfautohint" x="2" y="0" flags="0x0"/>
      <component glyphName="Eth" x="0" y="0" flags="0x0"/>
    </TTGlyph>
    <TTGlyph name="E" xMin="12" yMin="0" xMax="668" yMax="686">
      <contour>
        <pt x="133" y="686" on="1"/>
        <pt x="668" y="686" on="1"/>
        <pt x="649" y="577" on="1"/>
        <pt x="241" y="577" on="1"/>
        <pt x="211" y="405" on="1"/>
        <pt x="575" y="405" on="1"/>
        <pt x="556" y="296" on="1"/>
        <pt x="192" y="296" on="1"/>
        <pt x="159" y="109" on="1"/>
        <pt x="573" y="109" on="1"/>
        <pt x="553" y="0" on="1"/>
        <pt x="12" y="0" on="1"/>
      </contour>
    </TTGlyph>
    <TTGlyph name="Eacute" xMin="12" yMin="0" xMax="668" yMax="868">
      <component glyphName=".ttfautohint" x="12" y="0" flags="0x0"/>
      <component glyphName="E" x="0" y="0" flags="0x0"/>
      <component glyphName="acute" x="302" y="145" flags="0x4"/>
    </TTGlyph>
    <TTGlyph name="Ebreve" xMin="12" yMin="0" xMax="668" yMax="868">
      <component glyphName=".ttfautohint" x="12" y="0" flags="0x0"/>
      <component glyphName="E" x="0" y="0" flags="0x0"/>
      <component glyphName="breve" x="248" y="145" flags="0x4"/>
    </TTGlyph>
    <TTGlyph name="Ecaron" xMin="12" yMin="0" xMax="668" yMax="868">
      <component glyphName=".ttfautohint" x="12" y="0" flags="0x0"/>
      <component glyphName="E" x="0" y="0" flags="0x0"/>
      <component glyphName="caron" x="259" y="145" flags="0x4"/>
    </TTGlyph>
    <TTGlyph name="Ecircumflex" xMin="12" yMin="0" xMax="668" yMax="868">
      <component glyphName=".ttfautohint" x="12" y="0" flags="0x0"/>
      <component glyphName="E" x="0" y="0" flags="0x0"/>
      <component glyphName="circumflex" x="252" y="145" flags="0x4"/>
    </TTGlyph>
    <TTGlyph name="Edieresis" xMin="12" yMin="0" xMax="668" yMax="868">
      <component glyphName=".ttfautohint" x="12" y="0" flags="0x0"/>
      <component glyphName="E" x="0" y="0" flags="0x0"/>
      <component glyphName="dieresis" x="261" y="145" flags="0x4"/>
    </TTGlyph>
    <TTGlyph name="Edotaccent" xMin="12" yMin="0" xMax="668" yMax="869">
      <component glyphName=".ttfautohint" x="12" y="0" flags="0x0"/>
      <component glyphName="E" x="0" y="0" flags="0x0"/>
      <component glyphName="dotaccent" x="259" y="145" flags="0x4"/>
    </TTGlyph>
    <TTGlyph name="Egrave" xMin="12" yMin="0" xMax="668" yMax="868">
      <component glyphName=".ttfautohint" x="12" y="0" flags="0x0"/>
      <component glyphName="E" x="0" y="0" flags="0x0"/>
      <component glyphName="grave" x="197" y="145" flags="0x4"/>
    </TTGlyph>
    <TTGlyph name="Emacron" xMin="12" yMin="0" xMax="668" yMax="844">
      <component glyphName=".ttfautohint" x="12" y="0" flags="0x0"/>
      <component glyphName="E" x="0" y="0" flags="0x0"/>
      <component glyphName="macron" x="263" y="145" flags="0x4"/>
    </TTGlyph>
    <TTGlyph name="Eng" xMin="12" yMin="-182" xMax="713" yMax="686">
      <contour>
        <pt x="417" y="-182" on="0"/>
        <pt x="365" y="-173" on="0"/>
        <pt x="350" y="-167" on="1"/>
        <pt x="364" y="-85" on="1"/>
        <pt x="411" y="-85" on="1"/>
        <pt x="454" y="-85" on="0"/>
        <pt x="462" y="-40" on="1"/>
        <pt x="470" y="3" on="1"/>
        <pt x="250" y="424" on="1"/>
        <pt x="241" y="439" on="0"/>
        <pt x="224" y="477" on="0"/>
        <pt x="221" y="483" on="1"/>
        <pt x="216" y="483" on="1"/>
        <pt x="216" y="466" on="0"/>
        <pt x="209" y="419" on="1"/>
        <pt x="135" y="0" on="1"/>
        <pt x="12" y="0" on="1"/>
        <pt x="133" y="686" on="1"/>
        <pt x="255" y="686" on="1"/>
        <pt x="476" y="266" on="1"/>
        <pt x="484" y="251" on="0"/>
        <pt x="499" y="218" on="0"/>
        <pt x="503" y="209" on="1"/>
        <pt x="508" y="210" on="1"/>
        <pt x="515" y="261" on="0"/>
        <pt x="517" y="269" on="1"/>
        <pt x="590" y="686" on="1"/>
        <pt x="713" y="686" on="1"/>
        <pt x="584" y="-48" on="1"/>
        <pt x="560" y="-182" on="0"/>
        <pt x="439" y="-182" on="1"/>
      </contour>
    </TTGlyph>
    <TTGlyph name="Eogonek" xMin="12" yMin="-182" xMax="668" yMax="686">
      <contour>
        <pt x="416" y="-182" on="0"/>
        <pt x="362" y="-148" on="0"/>
        <pt x="362" y="-112" on="1"/>
        <pt x="362" y="-43" on="0"/>
        <pt x="446" y="0" on="1"/>
        <pt x="12" y="0" on="1"/>
        <pt x="133" y="686" on="1"/>
        <pt x="668" y="686" on="1"/>
        <pt x="649" y="577" on="1"/>
        <pt x="241" y="577" on="1"/>
        <pt x="211" y="405" on="1"/>
        <pt x="575" y="405" on="1"/>
        <pt x="556" y="296" on="1"/>
        <pt x="192" y="296" on="1"/>
        <pt x="159" y="109" on="1"/>
        <pt x="573" y="109" on="1"/>
        <pt x="553" y="0" on="1"/>
        <pt x="518" y="-13" on="0"/>
        <pt x="464" y="-59" on="0"/>
        <pt x="464" y="-82" on="1"/>
        <pt x="464" y="-96" on="0"/>
        <pt x="487" y="-114" on="0"/>
        <pt x="507" y="-114" on="1"/>
        <pt x="533" y="-114" on="1"/>
        <pt x="524" y="-168" on="1"/>
        <pt x="484" y="-182" on="0"/>
        <pt x="453" y="-182" on="1"/>
      </contour>
    </TTGlyph>
    <TTGlyph name="Eth" xMin="2" yMin="0" xMax="689" yMax="686">
      <contour>
        <pt x="536" y="686" on="0"/>
        <pt x="689" y="552" on="0"/>
        <pt x="689" y="415" on="1"/>
        <pt x="689" y="322" on="0"/>
        <pt x="633" y="163" on="0"/>
        <pt x="579" y="106" on="1"/>
        <pt x="529" y="55" on="0"/>
        <pt x="390" y="0" on="0"/>
        <pt x="306" y="0" on="1"/>
        <pt x="12" y="0" on="1"/>
        <pt x="68" y="316" on="1"/>
        <pt x="2" y="316" on="1"/>
        <pt x="15" y="394" on="1"/>
        <pt x="81" y="394" on="1"/>
        <pt x="133" y="686" on="1"/>
        <pt x="393" y="686" on="1"/>
      </contour>
      <contour>
        <pt x="557" y="381" on="0"/>
        <pt x="557" y="412" on="1"/>
        <pt x="557" y="494" on="0"/>
        <pt x="470" y="577" on="0"/>
        <pt x="387" y="577" on="1"/>
        <pt x="241" y="577" on="1"/>
        <pt x="209" y="394" on="1"/>
        <pt x="360" y="394" on="1"/>
        <pt x="346" y="316" on="1"/>
        <pt x="195" y="316" on="1"/>
        <pt x="159" y="109" on="1"/>
        <pt x="299" y="109" on="1"/>
        <pt x="398" y="109" on="0"/>
        <pt x="529" y="222" on="0"/>
        <pt x="547" y="325" on="1"/>
      </contour>
    </TTGlyph>
    <TTGlyph name="Euro" xMin="-6" yMin="-12" xMax="581" yMax="698">
      <contour>
        <pt x="280" y="-12" on="0"/>
        <pt x="156" y="38" on="0"/>
        <pt x="72" y="149" on="0"/>
        <pt x="67" y="236" on="1"/>
        <pt x="-6" y="236" on="1"/>
        <pt x="6" y="312" on="1"/>
        <pt x="68" y="312" on="1"/>
        <pt x="71" y="345" on="0"/>
        <pt x="78" y="382" on="1"/>
        <pt x="19" y="382" on="1"/>
        <pt x="32" y="457" on="1"/>
        <pt x="100" y="457" on="1"/>
        <pt x="148" y="583" on="0"/>
        <pt x="349" y="698" on="0"/>
        <pt x="466" y="698" on="1"/>
        <pt x="520" y="698" on="0"/>
        <pt x="578" y="684" on="0"/>
        <pt x="581" y="683" on="1"/>
        <pt x="564" y="586" on="1"/>
        <pt x="542" y="592" on="0"/>
        <pt x="507" y="600" on="0"/>
        <pt x="482" y="600" on="1"/>
        <pt x="402" y="600" on="0"/>
        <pt x="270" y="529" on="0"/>
        <pt x="234" y="457" on="1"/>
        <pt x="469" y="457" on="1"/>
        <pt x="456" y="382" on="1"/>
        <pt x="205" y="382" on="1"/>
        <pt x="197" y="352" on="0"/>
        <pt x="193" y="312" on="1"/>
        <pt x="443" y="312" on="1"/>
        <pt x="430" y="236" on="1"/>
        <pt x="193" y="236" on="1"/>
        <pt x="202" y="154" on="0"/>
        <pt x="316" y="86" on="0"/>
        <pt x="381" y="86" on="1"/>
        <pt x="421" y="86" on="0"/>
        <pt x="476" y="100" on="0"/>
        <pt x="478" y="100" on="1"/>
        <pt x="461" y="3" on="1"/>
        <pt x="459" y="3" on="0"/>
        <pt x="402" y="-12" on="0"/>
        <pt x="349" y="-12" on="1"/>
      </contour>
    </TTGlyph>
    <TTGlyph name="F" xMin="12" yMin="0" xMax="626" yMax="686">
      <contour>
        <pt x="133" y="686" on="1"/>
        <pt x="626" y="686" on="1"/>
        <pt x="607" y="577" on="1"/>
        <pt x="241" y="577" on="1"/>
        <pt x="208" y="391" on="1"/>
        <pt x="537" y="391" on="1"/>
        <pt x="518" y="282" on="1"/>
        <pt x="190" y="282" on="1"/>
        <pt x="140" y="0" on="1"/>
        <pt x="12" y="0" on="1"/>
      </contour>
    </TTGlyph>
    <TTGlyph name="G" xMin="35" yMin="-12" xMax="738" yMax="698">
      <contour>
        <pt x="602" y="452" on="1"/>
        <pt x="604" y="460" on="0"/>
        <pt x="604" y="475" on="1"/>
        <pt x="604" y="530" on="0"/>
        <pt x="517" y="590" on="0"/>
        <pt x="448" y="590" on="1"/>
        <pt x="338" y="590" on="0"/>
        <pt x="200" y="474" on="0"/>
        <pt x="179" y="367" on="1"/>
        <pt x="167" y="303" on="0"/>
        <pt x="167" y="260" on="1"/>
        <pt x="167" y="176" on="0"/>
        <pt x="250" y="96" on="0"/>
        <pt x="333" y="96" on="1"/>
        <pt x="396" y="96" on="0"/>
        <pt x="501" y="138" on="0"/>
        <pt x="566" y="213" on="0"/>
        <pt x="572" y="260" on="1"/>
        <pt x="572" y="261" on="1"/>
        <pt x="352" y="261" on="1"/>
        <pt x="371" y="367" on="1"/>
        <pt x="719" y="367" on="1"/>
        <pt x="654" y="0" on="1"/>
        <pt x="564" y="0" on="1"/>
        <pt x="564" y="79" on="1"/>
        <pt x="512" y="33" on="0"/>
        <pt x="397" y="-12" on="0"/>
        <pt x="323" y="-12" on="1"/>
        <pt x="183" y="-12" on="0"/>
        <pt x="35" y="121" on="0"/>
        <pt x="35" y="256" on="1"/>
        <pt x="35" y="360" on="0"/>
        <pt x="100" y="537" on="0"/>
        <pt x="163" y="596" on="1"/>
        <pt x="215" y="646" on="0"/>
        <pt x="357" y="698" on="0"/>
        <pt x="444" y="698" on="1"/>
        <pt x="574" y="698" on="0"/>
        <pt x="738" y="595" on="0"/>
        <pt x="738" y="497" on="1"/>
        <pt x="738" y="473" on="0"/>
        <pt x="734" y="452" on="1"/>
      </contour>
    </TTGlyph>
    <TTGlyph name="G_tilde.loclGUA" xMin="35" yMin="-12" xMax="738" yMax="868">
      <component glyphName=".ttfautohint" x="35" y="0" flags="0x0"/>
      <component glyphName="G" x="0" y="0" flags="0x0"/>
      <component glyphName="tilde" x="295" y="145" flags="0x4"/>
    </TTGlyph>
    <TTGlyph name="Gbreve" xMin="35" yMin="-12" xMax="738" yMax="868">
      <component glyphName=".ttfautohint" x="35" y="0" flags="0x0"/>
      <component glyphName="G" x="0" y="0" flags="0x0"/>
      <component glyphName="breve" x="283" y="145" flags="0x4"/>
    </TTGlyph>
    <TTGlyph name="Gcaron" xMin="35" yMin="-12" xMax="738" yMax="868">
      <component glyphName=".ttfautohint" x="35" y="0" flags="0x0"/>
      <component glyphName="G" x="0" y="0" flags="0x0"/>
      <component glyphName="caron" x="294" y="145" flags="0x4"/>
    </TTGlyph>
    <TTGlyph name="Gcircumflex" xMin="35" yMin="-12" xMax="738" yMax="868">
      <component glyphName=".ttfautohint" x="35" y="0" flags="0x0"/>
      <component glyphName="G" x="0" y="0" flags="0x0"/>
      <component glyphName="circumflex" x="287" y="145" flags="0x4"/>
    </TTGlyph>
    <TTGlyph name="Gcommaaccent" xMin="35" yMin="-230" xMax="738" yMax="698">
      <component glyphName=".ttfautohint" x="35" y="0" flags="0x0"/>
      <component glyphName="G" x="0" y="0" flags="0x0"/>
      <component glyphName="uni0326" x="466" y="0" flags="0x0"/>
    </TTGlyph>
    <TTGlyph name="Gdotaccent" xMin="35" yMin="-12" xMax="738" yMax="869">
      <component glyphName=".ttfautohint" x="35" y="0" flags="0x0"/>
      <component glyphName="G" x="0" y="0" flags="0x0"/>
      <component glyphName="dotaccent" x="294" y="145" flags="0x4"/>
    </TTGlyph>
    <TTGlyph name="H" xMin="12" yMin="0" xMax="713" yMax="686">
      <contour>
        <pt x="133" y="686" on="1"/>
        <pt x="261" y="686" on="1"/>
        <pt x="211" y="406" on="1"/>
        <pt x="536" y="406" on="1"/>
        <pt x="585" y="686" on="1"/>
        <pt x="713" y="686" on="1"/>
        <pt x="592" y="0" on="1"/>
        <pt x="464" y="0" on="1"/>
        <pt x="517" y="296" on="1"/>
        <pt x="192" y="296" on="1"/>
        <pt x="140" y="0" on="1"/>
        <pt x="12" y="0" on="1"/>
      </contour>
    </TTGlyph>
    <TTGlyph name="Hbar" xMin="12" yMin="0" xMax="760" yMax="686">
      <contour>
        <pt x="103" y="514" on="1"/>
        <pt x="39" y="514" on="1"/>
        <pt x="54" y="598" on="1"/>
        <pt x="117" y="598" on="1"/>
        <pt x="133" y="686" on="1"/>
        <pt x="261" y="686" on="1"/>
        <pt x="245" y="598" on="1"/>
        <pt x="569" y="598" on="1"/>
        <pt x="585" y="686" on="1"/>
        <pt x="713" y="686" on="1"/>
        <pt x="697" y="598" on="1"/>
        <pt x="760" y="598" on="1"/>
        <pt x="746" y="514" on="1"/>
        <pt x="682" y="514" on="1"/>
        <pt x="592" y="0" on="1"/>
        <pt x="464" y="0" on="1"/>
        <pt x="517" y="296" on="1"/>
        <pt x="192" y="296" on="1"/>
        <pt x="140" y="0" on="1"/>
        <pt x="12" y="0" on="1"/>
      </contour>
      <contour>
        <pt x="536" y="406" on="1"/>
        <pt x="555" y="514" on="1"/>
        <pt x="230" y="514" on="1"/>
        <pt x="211" y="406" on="1"/>
      </contour>
    </TTGlyph>
    <TTGlyph name="Hcircumflex" xMin="12" yMin="0" xMax="713" yMax="868">
      <component glyphName=".ttfautohint" x="12" y="0" flags="0x0"/>
      <component glyphName="H" x="0" y="0" flags="0x0"/>
      <component glyphName="circumflex" x="270" y="145" flags="0x4"/>
    </TTGlyph>
    <TTGlyph name="I" xMin="17" yMin="0" xMax="265" yMax="686">
      <contour>
        <pt x="138" y="686" on="1"/>
        <pt x="265" y="686" on="1"/>
        <pt x="144" y="0" on="1"/>
        <pt x="17" y="0" on="1"/>
      </contour>
    </TTGlyph>
    <TTGlyph name="IJ" xMin="17" yMin="-12" xMax="809" yMax="686">
      <component glyphName=".ttfautohint" x="17" y="0" flags="0x0"/>
      <component glyphName="I" x="0" y="0" flags="0x0"/>
      <component glyphName="J" x="278" y="0" flags="0x0"/>
    </TTGlyph>
    <TTGlyph name="Iacute" xMin="17" yMin="0" xMax="389" yMax="868">
      <component glyphName=".ttfautohint" x="17" y="0" flags="0x0"/>
      <component glyphName="I" x="0" y="0" flags="0x0"/>
      <component glyphName="acute" x="99" y="145" flags="0x4"/>
    </TTGlyph>
    <TTGlyph name="Iacute_J.loclNLD" xMin="17" yMin="-12" xMax="932" yMax="868">
      <component glyphName=".ttfautohint" x="17" y="0" flags="0x0"/>
      <component glyphName="I" x="0" y="0" flags="0x0"/>
      <component glyphName="acute" x="99" y="145" flags="0x4"/>
      <component glyphName="J" x="278" y="0" flags="0x0"/>
      <component glyphName="acute" x="642" y="145" flags="0x4"/>
    </TTGlyph>
    <TTGlyph name="Ibreve" xMin="17" yMin="0" xMax="379" yMax="868">
      <component glyphName=".ttfautohint" x="17" y="0" flags="0x0"/>
      <component glyphName="I" x="0" y="0" flags="0x0"/>
      <component glyphName="breve" x="45" y="145" flags="0x4"/>
    </TTGlyph>
    <TTGlyph name="Icircumflex" xMin="17" yMin="0" xMax="363" yMax="868">
      <component glyphName=".ttfautohint" x="17" y="0" flags="0x0"/>
      <component glyphName="I" x="0" y="0" flags="0x0"/>
      <component glyphName="circumflex" x="49" y="145" flags="0x4"/>
    </TTGlyph>
    <TTGlyph name="Idieresis" xMin="17" yMin="0" xMax="389" yMax="868">
      <component glyphName=".ttfautohint" x="17" y="0" flags="0x0"/>
      <component glyphName="I" x="0" y="0" flags="0x0"/>
      <component glyphName="dieresis" x="58" y="145" flags="0x4"/>
    </TTGlyph>
    <TTGlyph name="Idotaccent" xMin="17" yMin="0" xMax="292" yMax="869">
      <component glyphName=".ttfautohint" x="17" y="0" flags="0x0"/>
      <component glyphName="I" x="0" y="0" flags="0x0"/>
      <component glyphName="dotaccent" x="56" y="145" flags="0x4"/>
    </TTGlyph>
    <TTGlyph name="Igrave" xMin="17" yMin="0" xMax="265" yMax="868">
      <component glyphName=".ttfautohint" x="17" y="0" flags="0x0"/>
      <component glyphName="I" x="0" y="0" flags="0x0"/>
      <component glyphName="grave" x="-6" y="145" flags="0x4"/>
    </TTGlyph>
    <TTGlyph name="Imacron" xMin="17" yMin="0" xMax="383" yMax="844">
      <component glyphName=".ttfautohint" x="17" y="0" flags="0x0"/>
      <component glyphName="I" x="0" y="0" flags="0x0"/>
      <component glyphName="macron" x="60" y="145" flags="0x4"/>
    </TTGlyph>
    <TTGlyph name="Iogonek" xMin="-31" yMin="-190" xMax="265" yMax="686">
      <contour>
        <pt x="100" y="-15" on="0"/>
        <pt x="71" y="-60" on="0"/>
        <pt x="71" y="-83" on="1"/>
        <pt x="71" y="-122" on="0"/>
        <pt x="113" y="-122" on="1"/>
        <pt x="140" y="-122" on="1"/>
        <pt x="130" y="-176" on="1"/>
        <pt x="90" y="-190" on="0"/>
        <pt x="59" y="-190" on="1"/>
        <pt x="21" y="-190" on="0"/>
        <pt x="-31" y="-153" on="0"/>
        <pt x="-31" y="-114" on="1"/>
        <pt x="-31" y="-78" on="0"/>
        <pt x="7" y="-24" on="0"/>
        <pt x="38" y="0" on="1"/>
        <pt x="17" y="0" on="1"/>
        <pt x="138" y="686" on="1"/>
        <pt x="265" y="686" on="1"/>
        <pt x="144" y="0" on="1"/>
        <pt x="118" y="0" on="1"/>
      </contour>
    </TTGlyph>
    <TTGlyph name="Itilde" xMin="17" yMin="0" xMax="400" yMax="868">
      <component glyphName=".ttfautohint" x="17" y="0" flags="0x0"/>
      <component glyphName="I" x="0" y="0" flags="0x0"/>
      <component glyphName="tilde" x="57" y="145" flags="0x4"/>
    </TTGlyph>
    <TTGlyph name="J" xMin="-4" yMin="-12" xMax="531" yMax="686">
      <contour>
        <pt x="102" y="-12" on="0"/>
        <pt x="-4" y="66" on="0"/>
        <pt x="-4" y="142" on="1"/>
        <pt x="-4" y="180" on="0"/>
        <pt x="7" y="226" on="1"/>
        <pt x="134" y="226" on="1"/>
        <pt x="124" y="189" on="0"/>
        <pt x="124" y="166" on="1"/>
        <pt x="124" y="130" on="0"/>
        <pt x="160" y="96" on="0"/>
        <pt x="200" y="96" on="1"/>
        <pt x="248" y="96" on="0"/>
        <pt x="307" y="146" on="0"/>
        <pt x="315" y="195" on="1"/>
        <pt x="402" y="686" on="1"/>
        <pt x="531" y="686" on="1"/>
        <pt x="444" y="195" on="1"/>
        <pt x="425" y="91" on="0"/>
        <pt x="303" y="-12" on="0"/>
        <pt x="203" y="-12" on="1"/>
      </contour>
    </TTGlyph>
    <TTGlyph name="Jcircumflex" xMin="-4" yMin="-12" xMax="628" yMax="868">
      <component glyphName=".ttfautohint" x="0" y="0" flags="0x0"/>
      <component glyphName="J" x="0" y="0" flags="0x0"/>
      <component glyphName="circumflex" x="314" y="145" flags="0x4"/>
    </TTGlyph>
    <TTGlyph name="K" xMin="12" yMin="0" xMax="750" yMax="686">
      <contour>
        <pt x="133" y="686" on="1"/>
        <pt x="261" y="686" on="1"/>
        <pt x="200" y="344" on="1"/>
        <pt x="582" y="686" on="1"/>
        <pt x="750" y="686" on="1"/>
        <pt x="436" y="407" on="1"/>
        <pt x="634" y="0" on="1"/>
        <pt x="491" y="0" on="1"/>
        <pt x="338" y="321" on="1"/>
        <pt x="173" y="189" on="1"/>
        <pt x="140" y="0" on="1"/>
        <pt x="12" y="0" on="1"/>
      </contour>
    </TTGlyph>
    <TTGlyph name="Kcommaaccent" xMin="12" yMin="-230" xMax="750" yMax="686">
      <component glyphName=".ttfautohint" x="12" y="0" flags="0x0"/>
      <component glyphName="K" x="0" y="0" flags="0x0"/>
      <component glyphName="uni0326" x="429" y="0" flags="0x0"/>
    </TTGlyph>
    <TTGlyph name="L" xMin="12" yMin="0" xMax="529" yMax="686">
      <contour>
        <pt x="133" y="686" on="1"/>
        <pt x="261" y="686" on="1"/>
        <pt x="159" y="111" on="1"/>
        <pt x="529" y="111" on="1"/>
        <pt x="509" y="0" on="1"/>
        <pt x="12" y="0" on="1"/>
      </contour>
    </TTGlyph>
    <TTGlyph name="Lacute" xMin="12" yMin="0" xMax="529" yMax="868">
      <component glyphName=".ttfautohint" x="12" y="0" flags="0x0"/>
      <component glyphName="L" x="0" y="0" flags="0x0"/>
      <component glyphName="acute" x="94" y="145" flags="0x4"/>
    </TTGlyph>
    <TTGlyph name="Lcaron" xMin="12" yMin="0" xMax="529" yMax="686">
      <contour>
        <pt x="133" y="686" on="1"/>
        <pt x="261" y="686" on="1"/>
        <pt x="159" y="111" on="1"/>
        <pt x="529" y="111" on="1"/>
        <pt x="509" y="0" on="1"/>
        <pt x="12" y="0" on="1"/>
      </contour>
      <contour>
        <pt x="407" y="571" on="1"/>
        <pt x="361" y="571" on="1"/>
        <pt x="381" y="686" on="1"/>
        <pt x="500" y="686" on="1"/>
        <pt x="482" y="582" on="1"/>
        <pt x="403" y="459" on="1"/>
        <pt x="340" y="459" on="1"/>
      </contour>
    </TTGlyph>
    <TTGlyph name="Lcommaaccent" xMin="12" yMin="-230" xMax="529" yMax="686">
      <component glyphName=".ttfautohint" x="12" y="0" flags="0x0"/>
      <component glyphName="L" x="0" y="0" flags="0x0"/>
      <component glyphName="uni0326" x="384" y="0" flags="0x0"/>
    </TTGlyph>
    <TTGlyph name="Ldot" xMin="12" yMin="0" xMax="529" yMax="686">
      <component glyphName=".ttfautohint" x="12" y="0" flags="0x0"/>
      <component glyphName="L" x="0" y="0" flags="0x0"/>
      <component glyphName="periodcentered" x="231" y="105" flags="0x4"/>
    </TTGlyph>
    <TTGlyph name="Lslash" xMin="-14" yMin="0" xMax="529" yMax="686">
      <contour>
        <pt x="62" y="253" on="1"/>
        <pt x="-14" y="207" on="1"/>
        <pt x="3" y="302" on="1"/>
        <pt x="79" y="347" on="1"/>
        <pt x="139" y="686" on="1"/>
        <pt x="267" y="686" on="1"/>
        <pt x="222" y="432" on="1"/>
        <pt x="390" y="531" on="1"/>
        <pt x="373" y="436" on="1"/>
        <pt x="205" y="337" on="1"/>
        <pt x="165" y="111" on="1"/>
        <pt x="529" y="111" on="1"/>
        <pt x="509" y="0" on="1"/>
        <pt x="18" y="0" on="1"/>
      </contour>
    </TTGlyph>
    <TTGlyph name="M" xMin="12" yMin="0" xMax="824" yMax="686">
      <contour>
        <pt x="133" y="686" on="1"/>
        <pt x="322" y="686" on="1"/>
        <pt x="371" y="277" on="1"/>
        <pt x="374" y="249" on="0"/>
        <pt x="377" y="155" on="0"/>
        <pt x="377" y="140" on="1"/>
        <pt x="382" y="140" on="1"/>
        <pt x="387" y="156" on="0"/>
        <pt x="422" y="253" on="0"/>
        <pt x="433" y="277" on="1"/>
        <pt x="626" y="686" on="1"/>
        <pt x="824" y="686" on="1"/>
        <pt x="703" y="0" on="1"/>
        <pt x="575" y="0" on="1"/>
        <pt x="654" y="443" on="1"/>
        <pt x="659" y="472" on="0"/>
        <pt x="675" y="545" on="0"/>
        <pt x="678" y="559" on="1"/>
        <pt x="672" y="559" on="1"/>
        <pt x="655" y="515" on="0"/>
        <pt x="639" y="482" on="1"/>
        <pt x="414" y="0" on="1"/>
        <pt x="292" y="0" on="1"/>
        <pt x="239" y="482" on="1"/>
        <pt x="237" y="508" on="1"/>
        <pt x="233" y="559" on="1"/>
        <pt x="228" y="559" on="1"/>
        <pt x="226" y="545" on="0"/>
        <pt x="217" y="472" on="0"/>
        <pt x="212" y="443" on="1"/>
        <pt x="134" y="0" on="1"/>
        <pt x="12" y="0" on="1"/>
      </contour>
    </TTGlyph>
    <TTGlyph name="N" xMin="12" yMin="0" xMax="713" yMax="686">
      <contour>
        <pt x="133" y="686" on="1"/>
        <pt x="255" y="686" on="1"/>
        <pt x="476" y="266" on="1"/>
        <pt x="484" y="251" on="0"/>
        <pt x="499" y="218" on="0"/>
        <pt x="503" y="209" on="1"/>
        <pt x="508" y="210" on="1"/>
        <pt x="515" y="261" on="0"/>
        <pt x="517" y="269" on="1"/>
        <pt x="590" y="686" on="1"/>
        <pt x="713" y="686" on="1"/>
        <pt x="592" y="0" on="1"/>
        <pt x="472" y="0" on="1"/>
        <pt x="252" y="421" on="1"/>
        <pt x="242" y="439" on="0"/>
        <pt x="225" y="477" on="0"/>
        <pt x="223" y="481" on="1"/>
        <pt x="218" y="481" on="1"/>
        <pt x="214" y="457" on="1"/>
        <pt x="208" y="418" on="1"/>
        <pt x="135" y="0" on="1"/>
        <pt x="12" y="0" on="1"/>
      </contour>
    </TTGlyph>
    <TTGlyph name="Nacute" xMin="12" yMin="0" xMax="713" yMax="868">
      <component glyphName=".ttfautohint" x="12" y="0" flags="0x0"/>
      <component glyphName="N" x="0" y="0" flags="0x0"/>
      <component glyphName="acute" x="336" y="145" flags="0x4"/>
    </TTGlyph>
    <TTGlyph name="Nacute.loclPLK" xMin="12" yMin="0" xMax="713" yMax="868">
      <component glyphName=".ttfautohint" x="12" y="0" flags="0x0"/>
      <component glyphName="N" x="0" y="0" flags="0x0"/>
      <component glyphName="acute.loclPLK" x="234" y="145" flags="0x4"/>
    </TTGlyph>
    <TTGlyph name="Ncaron" xMin="12" yMin="0" xMax="713" yMax="868">
      <component glyphName=".ttfautohint" x="12" y="0" flags="0x0"/>
      <component glyphName="N" x="0" y="0" flags="0x0"/>
      <component glyphName="caron" x="293" y="145" flags="0x4"/>
    </TTGlyph>
    <TTGlyph name="Ncommaaccent" xMin="12" yMin="-230" xMax="713" yMax="686">
      <component glyphName=".ttfautohint" x="12" y="0" flags="0x0"/>
      <component glyphName="N" x="0" y="0" flags="0x0"/>
      <component glyphName="uni0326" x="438" y="0" flags="0x0"/>
    </TTGlyph>
    <TTGlyph name="Ntilde" xMin="12" yMin="0" xMax="713" yMax="868">
      <component glyphName=".ttfautohint" x="12" y="0" flags="0x0"/>
      <component glyphName="N" x="0" y="0" flags="0x0"/>
      <component glyphName="tilde" x="294" y="145" flags="0x4"/>
    </TTGlyph>
    <TTGlyph name="O" xMin="35" yMin="-12" xMax="745" yMax="698">
      <contour>
        <pt x="195" y="-12" on="0"/>
        <pt x="35" y="125" on="0"/>
        <pt x="35" y="257" on="1"/>
        <pt x="35" y="306" on="0"/>
        <pt x="42" y="348" on="1"/>
        <pt x="68" y="514" on="0"/>
        <pt x="273" y="698" on="0"/>
        <pt x="436" y="698" on="1"/>
        <pt x="583" y="698" on="0"/>
        <pt x="745" y="561" on="0"/>
        <pt x="745" y="431" on="1"/>
        <pt x="745" y="393" on="0"/>
        <pt x="738" y="342" on="1"/>
        <pt x="713" y="175" on="0"/>
        <pt x="506" y="-12" on="0"/>
        <pt x="342" y="-11" on="1"/>
      </contour>
      <contour>
        <pt x="450" y="97" on="0"/>
        <pt x="583" y="220" on="0"/>
        <pt x="603" y="336" on="1"/>
        <pt x="613" y="390" on="0"/>
        <pt x="613" y="424" on="1"/>
        <pt x="613" y="503" on="0"/>
        <pt x="522" y="590" on="0"/>
        <pt x="437" y="590" on="1"/>
        <pt x="328" y="590" on="0"/>
        <pt x="196" y="467" on="0"/>
        <pt x="176" y="351" on="1"/>
        <pt x="166" y="290" on="0"/>
        <pt x="166" y="264" on="1"/>
        <pt x="166" y="184" on="0"/>
        <pt x="256" y="97" on="0"/>
        <pt x="341" y="97" on="1"/>
      </contour>
    </TTGlyph>
    <TTGlyph name="OE" xMin="33" yMin="-12" xMax="999" yMax="698">
      <contour>
        <pt x="152" y="-12" on="0"/>
        <pt x="33" y="111" on="0"/>
        <pt x="33" y="231" on="1"/>
        <pt x="33" y="279" on="0"/>
        <pt x="44" y="343" on="1"/>
        <pt x="73" y="516" on="0"/>
        <pt x="241" y="698" on="0"/>
        <pt x="365" y="698" on="1"/>
        <pt x="485" y="698" on="0"/>
        <pt x="546" y="624" on="1"/>
        <pt x="557" y="686" on="1"/>
        <pt x="999" y="686" on="1"/>
        <pt x="980" y="578" on="1"/>
        <pt x="665" y="578" on="1"/>
        <pt x="635" y="405" on="1"/>
        <pt x="902" y="405" on="1"/>
        <pt x="883" y="297" on="1"/>
        <pt x="616" y="297" on="1"/>
        <pt x="582" y="108" on="1"/>
        <pt x="904" y="108" on="1"/>
        <pt x="885" y="0" on="1"/>
        <pt x="436" y="0" on="1"/>
        <pt x="446" y="61" on="1"/>
        <pt x="367" y="-12" on="0"/>
        <pt x="263" y="-12" on="1"/>
      </contour>
      <contour>
        <pt x="370" y="96" on="0"/>
        <pt x="473" y="213" on="0"/>
        <pt x="497" y="343" on="1"/>
        <pt x="506" y="399" on="0"/>
        <pt x="506" y="440" on="1"/>
        <pt x="506" y="519" on="0"/>
        <pt x="443" y="590" on="0"/>
        <pt x="383" y="590" on="1"/>
        <pt x="298" y="590" on="0"/>
        <pt x="199" y="471" on="0"/>
        <pt x="176" y="343" on="1"/>
        <pt x="165" y="283" on="0"/>
        <pt x="165" y="243" on="1"/>
        <pt x="165" y="168" on="0"/>
        <pt x="228" y="96" on="0"/>
        <pt x="294" y="96" on="1"/>
      </contour>
    </TTGlyph>
    <TTGlyph name="Oacute" xMin="35" yMin="-11" xMax="745" yMax="868">
      <component glyphName=".ttfautohint" x="35" y="0" flags="0x0"/>
      <component glyphName="O" x="0" y="0" flags="0x0"/>
      <component glyphName="acute" x="327" y="145" flags="0x4"/>
    </TTGlyph>
    <TTGlyph name="Oacute.loclPLK" xMin="35" yMin="-11" xMax="745" yMax="868">
      <component glyphName=".ttfautohint" x="35" y="0" flags="0x0"/>
      <component glyphName="O" x="0" y="0" flags="0x0"/>
      <component glyphName="acute.loclPLK" x="225" y="145" flags="0x4"/>
    </TTGlyph>
    <TTGlyph name="Obreve" xMin="35" yMin="-11" xMax="745" yMax="868">
      <component glyphName=".ttfautohint" x="35" y="0" flags="0x0"/>
      <component glyphName="O" x="0" y="0" flags="0x0"/>
      <component glyphName="breve" x="273" y="145" flags="0x4"/>
    </TTGlyph>
    <TTGlyph name="Ocircumflex" xMin="35" yMin="-11" xMax="745" yMax="868">
      <component glyphName=".ttfautohint" x="35" y="0" flags="0x0"/>
      <component glyphName="O" x="0" y="0" flags="0x0"/>
      <component glyphName="circumflex" x="277" y="145" flags="0x4"/>
    </TTGlyph>
    <TTGlyph name="Odieresis" xMin="35" yMin="-11" xMax="745" yMax="868">
      <component glyphName=".ttfautohint" x="35" y="0" flags="0x0"/>
      <component glyphName="O" x="0" y="0" flags="0x0"/>
      <component glyphName="dieresis" x="286" y="145" flags="0x4"/>
    </TTGlyph>
    <TTGlyph name="Ograve" xMin="35" yMin="-11" xMax="745" yMax="868">
      <component glyphName=".ttfautohint" x="35" y="0" flags="0x0"/>
      <component glyphName="O" x="0" y="0" flags="0x0"/>
      <component glyphName="grave" x="222" y="145" flags="0x4"/>
    </TTGlyph>
    <TTGlyph name="Ohorn" xMin="35" yMin="-12" xMax="868" yMax="828">
      <contour>
        <pt x="868" y="828" on="1"/>
        <pt x="858" y="774" on="1"/>
        <pt x="845" y="697" on="0"/>
        <pt x="772" y="601" on="0"/>
        <pt x="708" y="578" on="1"/>
        <pt x="745" y="516" on="0"/>
        <pt x="745" y="431" on="1"/>
        <pt x="745" y="393" on="0"/>
        <pt x="738" y="342" on="1"/>
        <pt x="713" y="175" on="0"/>
        <pt x="506" y="-12" on="0"/>
        <pt x="342" y="-11" on="1"/>
        <pt x="195" y="-12" on="0"/>
        <pt x="35" y="125" on="0"/>
        <pt x="35" y="257" on="1"/>
        <pt x="35" y="306" on="0"/>
        <pt x="42" y="348" on="1"/>
        <pt x="68" y="514" on="0"/>
        <pt x="273" y="698" on="0"/>
        <pt x="436" y="698" on="1"/>
        <pt x="584" y="698" on="0"/>
        <pt x="665" y="629" on="1"/>
        <pt x="702" y="639" on="0"/>
        <pt x="750" y="674" on="0"/>
        <pt x="764" y="701" on="1"/>
        <pt x="710" y="701" on="1"/>
        <pt x="733" y="828" on="1"/>
      </contour>
      <contour>
        <pt x="613" y="390" on="0"/>
        <pt x="613" y="424" on="1"/>
        <pt x="613" y="503" on="0"/>
        <pt x="522" y="590" on="0"/>
        <pt x="437" y="590" on="1"/>
        <pt x="328" y="590" on="0"/>
        <pt x="196" y="467" on="0"/>
        <pt x="176" y="351" on="1"/>
        <pt x="166" y="290" on="0"/>
        <pt x="166" y="264" on="1"/>
        <pt x="166" y="184" on="0"/>
        <pt x="256" y="97" on="0"/>
        <pt x="341" y="97" on="1"/>
        <pt x="450" y="97" on="0"/>
        <pt x="583" y="220" on="0"/>
        <pt x="603" y="336" on="1"/>
      </contour>
    </TTGlyph>
    <TTGlyph name="Ohungarumlaut" xMin="35" yMin="-11" xMax="745" yMax="868">
      <component glyphName=".ttfautohint" x="35" y="0" flags="0x0"/>
      <component glyphName="O" x="0" y="0" flags="0x0"/>
      <component glyphName="hungarumlaut" x="306" y="145" flags="0x4"/>
    </TTGlyph>
    <TTGlyph name="Omacron" xMin="35" yMin="-11" xMax="745" yMax="844">
      <component glyphName=".ttfautohint" x="35" y="0" flags="0x0"/>
      <component glyphName="O" x="0" y="0" flags="0x0"/>
      <component glyphName="macron" x="288" y="145" flags="0x4"/>
    </TTGlyph>
    <TTGlyph name="Oslash" xMin="-12" yMin="-49" xMax="791" yMax="735">
      <contour>
        <pt x="98" y="71" on="1"/>
        <pt x="35" y="137" on="0"/>
        <pt x="35" y="254" on="1"/>
        <pt x="35" y="367" on="0"/>
        <pt x="112" y="554" on="0"/>
        <pt x="183" y="614" on="1"/>
        <pt x="231" y="655" on="0"/>
        <pt x="360" y="698" on="0"/>
        <pt x="435" y="698" on="1"/>
        <pt x="553" y="698" on="0"/>
        <pt x="628" y="656" on="1"/>
        <pt x="700" y="735" on="1"/>
        <pt x="791" y="735" on="1"/>
        <pt x="681" y="615" on="1"/>
        <pt x="745" y="546" on="0"/>
        <pt x="745" y="431" on="1"/>
        <pt x="745" y="326" on="0"/>
        <pt x="678" y="149" on="0"/>
        <pt x="615" y="89" on="1"/>
        <pt x="564" y="40" on="0"/>
        <pt x="426" y="-12" on="0"/>
        <pt x="343" y="-12" on="1"/>
        <pt x="222" y="-12" on="0"/>
        <pt x="150" y="30" on="1"/>
        <pt x="79" y="-49" on="1"/>
        <pt x="-12" y="-49" on="1"/>
      </contour>
      <contour>
        <pt x="545" y="565" on="1"/>
        <pt x="505" y="590" on="0"/>
        <pt x="442" y="590" on="1"/>
        <pt x="337" y="590" on="0"/>
        <pt x="201" y="472" on="0"/>
        <pt x="179" y="365" on="1"/>
        <pt x="167" y="302" on="0"/>
        <pt x="167" y="265" on="1"/>
        <pt x="167" y="207" on="0"/>
        <pt x="188" y="169" on="1"/>
      </contour>
      <contour>
        <pt x="443" y="96" on="0"/>
        <pt x="582" y="219" on="0"/>
        <pt x="602" y="329" on="1"/>
        <pt x="613" y="390" on="0"/>
        <pt x="613" y="421" on="1"/>
        <pt x="613" y="479" on="0"/>
        <pt x="591" y="516" on="1"/>
        <pt x="233" y="120" on="1"/>
        <pt x="274" y="96" on="0"/>
        <pt x="336" y="96" on="1"/>
      </contour>
    </TTGlyph>
    <TTGlyph name="Oslashacute" xMin="-12" yMin="-49" xMax="791" yMax="868">
      <component glyphName=".ttfautohint" x="0" y="0" flags="0x0"/>
      <component glyphName="Oslash" x="0" y="0" flags="0x0"/>
      <component glyphName="acute" x="364" y="145" flags="0x4"/>
    </TTGlyph>
    <TTGlyph name="Otilde" xMin="35" yMin="-11" xMax="745" yMax="868">
      <component glyphName=".ttfautohint" x="35" y="0" flags="0x0"/>
      <component glyphName="O" x="0" y="0" flags="0x0"/>
      <component glyphName="tilde" x="285" y="145" flags="0x4"/>
    </TTGlyph>
    <TTGlyph name="P" xMin="12" yMin="0" xMax="653" yMax="686">
      <contour>
        <pt x="133" y="686" on="1"/>
        <pt x="420" y="686" on="1"/>
        <pt x="653" y="686" on="0"/>
        <pt x="653" y="499" on="1"/>
        <pt x="653" y="421" on="0"/>
        <pt x="586" y="306" on="0"/>
        <pt x="463" y="245" on="0"/>
        <pt x="382" y="245" on="1"/>
        <pt x="183" y="245" on="1"/>
        <pt x="140" y="0" on="1"/>
        <pt x="12" y="0" on="1"/>
      </contour>
      <contour>
        <pt x="381" y="354" on="1"/>
        <pt x="444" y="354" on="0"/>
        <pt x="522" y="423" on="0"/>
        <pt x="522" y="485" on="1"/>
        <pt x="522" y="577" on="0"/>
        <pt x="420" y="577" on="1"/>
        <pt x="241" y="577" on="1"/>
        <pt x="202" y="354" on="1"/>
      </contour>
    </TTGlyph>
    <TTGlyph name="Q" xMin="35" yMin="-130" xMax="745" yMax="698">
      <contour>
        <pt x="368" y="-10" on="1"/>
        <pt x="356" y="-12" on="0"/>
        <pt x="343" y="-12" on="1"/>
        <pt x="195" y="-12" on="0"/>
        <pt x="35" y="121" on="0"/>
        <pt x="35" y="254" on="1"/>
        <pt x="35" y="364" on="0"/>
        <pt x="108" y="548" on="0"/>
        <pt x="177" y="607" on="1"/>
        <pt x="226" y="651" on="0"/>
        <pt x="357" y="698" on="0"/>
        <pt x="435" y="698" on="1"/>
        <pt x="584" y="698" on="0"/>
        <pt x="745" y="564" on="0"/>
        <pt x="745" y="431" on="1"/>
        <pt x="745" y="284" on="0"/>
        <pt x="615" y="62" on="0"/>
        <pt x="499" y="16" on="1"/>
        <pt x="626" y="-130" on="1"/>
        <pt x="470" y="-130" on="1"/>
      </contour>
      <contour>
        <pt x="440" y="96" on="0"/>
        <pt x="576" y="211" on="0"/>
        <pt x="599" y="315" on="1"/>
        <pt x="613" y="381" on="0"/>
        <pt x="613" y="421" on="1"/>
        <pt x="613" y="505" on="0"/>
        <pt x="526" y="590" on="0"/>
        <pt x="442" y="590" on="1"/>
        <pt x="338" y="590" on="0"/>
        <pt x="201" y="472" on="0"/>
        <pt x="179" y="366" on="1"/>
        <pt x="167" y="303" on="0"/>
        <pt x="167" y="265" on="1"/>
        <pt x="167" y="181" on="0"/>
        <pt x="253" y="96" on="0"/>
        <pt x="336" y="96" on="1"/>
      </contour>
    </TTGlyph>
    <TTGlyph name="R" xMin="12" yMin="0" xMax="687" yMax="686">
      <contour>
        <pt x="133" y="686" on="1"/>
        <pt x="459" y="686" on="1"/>
        <pt x="573" y="686" on="0"/>
        <pt x="687" y="589" on="0"/>
        <pt x="687" y="502" on="1"/>
        <pt x="687" y="420" on="0"/>
        <pt x="598" y="306" on="0"/>
        <pt x="527" y="283" on="1"/>
        <pt x="623" y="0" on="1"/>
        <pt x="487" y="0" on="1"/>
        <pt x="403" y="265" on="1"/>
        <pt x="187" y="265" on="1"/>
        <pt x="140" y="0" on="1"/>
        <pt x="12" y="0" on="1"/>
      </contour>
      <contour>
        <pt x="429" y="373" on="1"/>
        <pt x="487" y="373" on="0"/>
        <pt x="556" y="438" on="0"/>
        <pt x="556" y="493" on="1"/>
        <pt x="556" y="533" on="0"/>
        <pt x="506" y="577" on="0"/>
        <pt x="458" y="577" on="1"/>
        <pt x="241" y="577" on="1"/>
        <pt x="205" y="373" on="1"/>
      </contour>
    </TTGlyph>
    <TTGlyph name="Racute" xMin="12" yMin="0" xMax="687" yMax="868">
      <component glyphName=".ttfautohint" x="12" y="0" flags="0x0"/>
      <component glyphName="R" x="0" y="0" flags="0x0"/>
      <component glyphName="acute" x="290" y="145" flags="0x4"/>
    </TTGlyph>
    <TTGlyph name="Rcaron" xMin="12" yMin="0" xMax="687" yMax="868">
      <component glyphName=".ttfautohint" x="12" y="0" flags="0x0"/>
      <component glyphName="R" x="0" y="0" flags="0x0"/>
      <component glyphName="caron" x="247" y="145" flags="0x4"/>
    </TTGlyph>
    <TTGlyph name="Rcommaaccent" xMin="12" yMin="-230" xMax="687" yMax="686">
      <component glyphName=".ttfautohint" x="12" y="0" flags="0x0"/>
      <component glyphName="R" x="0" y="0" flags="0x0"/>
      <component glyphName="uni0326" x="438" y="0" flags="0x0"/>
    </TTGlyph>
    <TTGlyph name="S" xMin="17" yMin="-12" xMax="635" yMax="698">
      <contour>
        <pt x="176" y="-12" on="0"/>
        <pt x="17" y="77" on="0"/>
        <pt x="17" y="163" on="1"/>
        <pt x="17" y="190" on="0"/>
        <pt x="25" y="220" on="1"/>
        <pt x="154" y="220" on="1"/>
        <pt x="148" y="196" on="0"/>
        <pt x="148" y="184" on="1"/>
        <pt x="148" y="142" on="0"/>
        <pt x="224" y="96" on="0"/>
        <pt x="292" y="96" on="1"/>
        <pt x="379" y="96" on="0"/>
        <pt x="466" y="149" on="0"/>
        <pt x="466" y="195" on="1"/>
        <pt x="466" y="223" on="0"/>
        <pt x="425" y="261" on="0"/>
        <pt x="363" y="285" on="0"/>
        <pt x="310" y="301" on="1"/>
        <pt x="239" y="322" on="0"/>
        <pt x="151" y="360" on="0"/>
        <pt x="89" y="431" on="0"/>
        <pt x="89" y="487" on="1"/>
        <pt x="89" y="556" on="0"/>
        <pt x="166" y="651" on="0"/>
        <pt x="295" y="698" on="0"/>
        <pt x="373" y="698" on="1"/>
        <pt x="491" y="698" on="0"/>
        <pt x="635" y="617" on="0"/>
        <pt x="635" y="537" on="1"/>
        <pt x="635" y="516" on="0"/>
        <pt x="630" y="487" on="1"/>
        <pt x="504" y="487" on="1"/>
        <pt x="507" y="501" on="0"/>
        <pt x="507" y="512" on="1"/>
        <pt x="507" y="549" on="0"/>
        <pt x="439" y="590" on="0"/>
        <pt x="380" y="590" on="1"/>
        <pt x="307" y="590" on="0"/>
        <pt x="221" y="545" on="0"/>
        <pt x="221" y="505" on="1"/>
        <pt x="221" y="470" on="0"/>
        <pt x="294" y="431" on="0"/>
        <pt x="370" y="409" on="1"/>
        <pt x="443" y="388" on="0"/>
        <pt x="534" y="349" on="0"/>
        <pt x="600" y="276" on="0"/>
        <pt x="600" y="219" on="1"/>
        <pt x="600" y="139" on="0"/>
        <pt x="516" y="35" on="0"/>
        <pt x="382" y="-12" on="0"/>
        <pt x="303" y="-12" on="1"/>
      </contour>
    </TTGlyph>
    <TTGlyph name="Sacute" xMin="17" yMin="-12" xMax="635" yMax="868">
      <component glyphName=".ttfautohint" x="17" y="0" flags="0x0"/>
      <component glyphName="S" x="0" y="0" flags="0x0"/>
      <component glyphName="acute" x="299" y="145" flags="0x4"/>
    </TTGlyph>
    <TTGlyph name="Sacute.loclPLK" xMin="17" yMin="-12" xMax="635" yMax="868">
      <component glyphName=".ttfautohint" x="17" y="0" flags="0x0"/>
      <component glyphName="S" x="0" y="0" flags="0x0"/>
      <component glyphName="acute.loclPLK" x="197" y="145" flags="0x4"/>
    </TTGlyph>
    <TTGlyph name="Scaron" xMin="17" yMin="-12" xMax="635" yMax="868">
      <component glyphName=".ttfautohint" x="17" y="0" flags="0x0"/>
      <component glyphName="S" x="0" y="0" flags="0x0"/>
      <component glyphName="caron" x="256" y="145" flags="0x4"/>
    </TTGlyph>
    <TTGlyph name="Scedilla" xMin="17" yMin="-182" xMax="635" yMax="698">
      <contour>
        <pt x="214" y="-182" on="0"/>
        <pt x="168" y="-174" on="1"/>
        <pt x="177" y="-125" on="1"/>
        <pt x="270" y="-125" on="1"/>
        <pt x="293" y="-125" on="0"/>
        <pt x="317" y="-112" on="0"/>
        <pt x="317" y="-96" on="1"/>
        <pt x="317" y="-86" on="0"/>
        <pt x="300" y="-77" on="0"/>
        <pt x="280" y="-77" on="1"/>
        <pt x="236" y="-77" on="1"/>
        <pt x="259" y="-10" on="1"/>
        <pt x="149" y="-3" on="0"/>
        <pt x="17" y="85" on="0"/>
        <pt x="17" y="163" on="1"/>
        <pt x="17" y="190" on="0"/>
        <pt x="25" y="220" on="1"/>
        <pt x="154" y="220" on="1"/>
        <pt x="148" y="196" on="0"/>
        <pt x="148" y="184" on="1"/>
        <pt x="148" y="142" on="0"/>
        <pt x="224" y="96" on="0"/>
        <pt x="292" y="96" on="1"/>
        <pt x="379" y="96" on="0"/>
        <pt x="466" y="149" on="0"/>
        <pt x="466" y="195" on="1"/>
        <pt x="466" y="223" on="0"/>
        <pt x="425" y="261" on="0"/>
        <pt x="363" y="285" on="0"/>
        <pt x="310" y="301" on="1"/>
        <pt x="239" y="322" on="0"/>
        <pt x="151" y="360" on="0"/>
        <pt x="89" y="431" on="0"/>
        <pt x="89" y="487" on="1"/>
        <pt x="89" y="556" on="0"/>
        <pt x="166" y="651" on="0"/>
        <pt x="295" y="698" on="0"/>
        <pt x="373" y="698" on="1"/>
        <pt x="491" y="698" on="0"/>
        <pt x="635" y="617" on="0"/>
        <pt x="635" y="537" on="1"/>
        <pt x="635" y="516" on="0"/>
        <pt x="630" y="487" on="1"/>
        <pt x="504" y="487" on="1"/>
        <pt x="507" y="501" on="0"/>
        <pt x="507" y="512" on="1"/>
        <pt x="507" y="549" on="0"/>
        <pt x="439" y="590" on="0"/>
        <pt x="380" y="590" on="1"/>
        <pt x="307" y="590" on="0"/>
        <pt x="221" y="545" on="0"/>
        <pt x="221" y="505" on="1"/>
        <pt x="221" y="470" on="0"/>
        <pt x="294" y="431" on="0"/>
        <pt x="370" y="409" on="1"/>
        <pt x="443" y="388" on="0"/>
        <pt x="534" y="349" on="0"/>
        <pt x="600" y="276" on="0"/>
        <pt x="600" y="219" on="1"/>
        <pt x="600" y="110" on="0"/>
        <pt x="449" y="-3" on="0"/>
        <pt x="336" y="-10" on="1"/>
        <pt x="328" y="-34" on="1"/>
        <pt x="366" y="-36" on="0"/>
        <pt x="413" y="-67" on="0"/>
        <pt x="413" y="-97" on="1"/>
        <pt x="413" y="-144" on="0"/>
        <pt x="326" y="-182" on="0"/>
        <pt x="271" y="-182" on="1"/>
      </contour>
    </TTGlyph>
    <TTGlyph name="Scircumflex" xMin="17" yMin="-12" xMax="635" yMax="868">
      <component glyphName=".ttfautohint" x="17" y="0" flags="0x0"/>
      <component glyphName="S" x="0" y="0" flags="0x0"/>
      <component glyphName="circumflex" x="249" y="145" flags="0x4"/>
    </TTGlyph>
    <TTGlyph name="Scommaaccent" xMin="17" yMin="-230" xMax="635" yMax="698">
      <component glyphName=".ttfautohint" x="17" y="0" flags="0x0"/>
      <component glyphName="S" x="0" y="0" flags="0x0"/>
      <component glyphName="uni0326" x="411" y="0" flags="0x0"/>
    </TTGlyph>
    <TTGlyph name="T" xMin="64" yMin="0" xMax="652" yMax="686">
      <contour>
        <pt x="285" y="576" on="1"/>
        <pt x="64" y="576" on="1"/>
        <pt x="84" y="686" on="1"/>
        <pt x="652" y="686" on="1"/>
        <pt x="633" y="576" on="1"/>
        <pt x="412" y="576" on="1"/>
        <pt x="311" y="0" on="1"/>
        <pt x="183" y="0" on="1"/>
      </contour>
    </TTGlyph>
    <TTGlyph name="Tbar" xMin="64" yMin="0" xMax="652" yMax="686">
      <contour>
        <pt x="247" y="362" on="1"/>
        <pt x="152" y="362" on="1"/>
        <pt x="167" y="446" on="1"/>
        <pt x="262" y="446" on="1"/>
        <pt x="285" y="576" on="1"/>
        <pt x="64" y="576" on="1"/>
        <pt x="84" y="686" on="1"/>
        <pt x="652" y="686" on="1"/>
        <pt x="633" y="576" on="1"/>
        <pt x="412" y="576" on="1"/>
        <pt x="390" y="446" on="1"/>
        <pt x="484" y="446" on="1"/>
        <pt x="469" y="362" on="1"/>
        <pt x="375" y="362" on="1"/>
        <pt x="311" y="0" on="1"/>
        <pt x="183" y="0" on="1"/>
      </contour>
    </TTGlyph>
    <TTGlyph name="Tcaron" xMin="64" yMin="0" xMax="652" yMax="868">
      <component glyphName=".ttfautohint" x="64" y="0" flags="0x0"/>
      <component glyphName="T" x="0" y="0" flags="0x0"/>
      <component glyphName="caron" x="218" y="145" flags="0x4"/>
    </TTGlyph>
    <TTGlyph name="Thorn" xMin="12" yMin="0" xMax="633" yMax="686">
      <contour>
        <pt x="133" y="686" on="1"/>
        <pt x="261" y="686" on="1"/>
        <pt x="241" y="575" on="1"/>
        <pt x="400" y="575" on="1"/>
        <pt x="633" y="575" on="0"/>
        <pt x="633" y="388" on="1"/>
        <pt x="633" y="310" on="0"/>
        <pt x="566" y="195" on="0"/>
        <pt x="443" y="134" on="0"/>
        <pt x="362" y="134" on="1"/>
        <pt x="163" y="134" on="1"/>
        <pt x="140" y="0" on="1"/>
        <pt x="12" y="0" on="1"/>
      </contour>
      <contour>
        <pt x="361" y="243" on="1"/>
        <pt x="424" y="243" on="0"/>
        <pt x="502" y="312" on="0"/>
        <pt x="502" y="373" on="1"/>
        <pt x="502" y="466" on="0"/>
        <pt x="400" y="466" on="1"/>
        <pt x="222" y="466" on="1"/>
        <pt x="182" y="243" on="1"/>
      </contour>
    </TTGlyph>
    <TTGlyph name="U" xMin="56" yMin="-12" xMax="716" yMax="686">
      <contour>
        <pt x="194" y="-12" on="0"/>
        <pt x="56" y="96" on="0"/>
        <pt x="56" y="199" on="1"/>
        <pt x="56" y="229" on="0"/>
        <pt x="62" y="262" on="1"/>
        <pt x="136" y="686" on="1"/>
        <pt x="264" y="686" on="1"/>
        <pt x="189" y="260" on="1"/>
        <pt x="184" y="235" on="0"/>
        <pt x="184" y="217" on="1"/>
        <pt x="184" y="158" on="0"/>
        <pt x="254" y="96" on="0"/>
        <pt x="322" y="96" on="1"/>
        <pt x="399" y="96" on="0"/>
        <pt x="498" y="178" on="0"/>
        <pt x="512" y="257" on="1"/>
        <pt x="588" y="686" on="1"/>
        <pt x="716" y="686" on="1"/>
        <pt x="640" y="254" on="1"/>
        <pt x="592" y="-12" on="0"/>
        <pt x="322" y="-12" on="1"/>
      </contour>
    </TTGlyph>
    <TTGlyph name="Uacute" xMin="56" yMin="-12" xMax="716" yMax="868">
      <component glyphName=".ttfautohint" x="56" y="0" flags="0x0"/>
      <component glyphName="U" x="0" y="0" flags="0x0"/>
      <component glyphName="acute" x="330" y="145" flags="0x4"/>
    </TTGlyph>
    <TTGlyph name="Ubreve" xMin="56" yMin="-12" xMax="716" yMax="868">
      <component glyphName=".ttfautohint" x="56" y="0" flags="0x0"/>
      <component glyphName="U" x="0" y="0" flags="0x0"/>
      <component glyphName="breve" x="276" y="145" flags="0x4"/>
    </TTGlyph>
    <TTGlyph name="Ucircumflex" xMin="56" yMin="-12" xMax="716" yMax="868">
      <component glyphName=".ttfautohint" x="56" y="0" flags="0x0"/>
      <component glyphName="U" x="0" y="0" flags="0x0"/>
      <component glyphName="circumflex" x="280" y="145" flags="0x4"/>
    </TTGlyph>
    <TTGlyph name="Udieresis" xMin="56" yMin="-12" xMax="716" yMax="868">
      <component glyphName=".ttfautohint" x="56" y="0" flags="0x0"/>
      <component glyphName="U" x="0" y="0" flags="0x0"/>
      <component glyphName="dieresis" x="289" y="145" flags="0x4"/>
    </TTGlyph>
    <TTGlyph name="Ugrave" xMin="56" yMin="-12" xMax="716" yMax="868">
      <component glyphName=".ttfautohint" x="56" y="0" flags="0x0"/>
      <component glyphName="U" x="0" y="0" flags="0x0"/>
      <component glyphName="grave" x="225" y="145" flags="0x4"/>
    </TTGlyph>
    <TTGlyph name="Uhorn" xMin="56" yMin="-12" xMax="859" yMax="868">
      <contour>
        <pt x="859" y="868" on="1"/>
        <pt x="849" y="814" on="1"/>
        <pt x="836" y="738" on="0"/>
        <pt x="766" y="644" on="0"/>
        <pt x="704" y="620" on="1"/>
        <pt x="640" y="254" on="1"/>
        <pt x="592" y="-12" on="0"/>
        <pt x="322" y="-12" on="1"/>
        <pt x="194" y="-12" on="0"/>
        <pt x="56" y="96" on="0"/>
        <pt x="56" y="199" on="1"/>
        <pt x="56" y="229" on="0"/>
        <pt x="62" y="262" on="1"/>
        <pt x="136" y="686" on="1"/>
        <pt x="264" y="686" on="1"/>
        <pt x="189" y="260" on="1"/>
        <pt x="184" y="235" on="0"/>
        <pt x="184" y="217" on="1"/>
        <pt x="184" y="158" on="0"/>
        <pt x="254" y="96" on="0"/>
        <pt x="322" y="96" on="1"/>
        <pt x="399" y="96" on="0"/>
        <pt x="498" y="178" on="0"/>
        <pt x="512" y="257" on="1"/>
        <pt x="588" y="686" on="1"/>
        <pt x="700" y="686" on="1"/>
        <pt x="737" y="705" on="0"/>
        <pt x="755" y="741" on="1"/>
        <pt x="701" y="741" on="1"/>
        <pt x="724" y="868" on="1"/>
      </contour>
    </TTGlyph>
    <TTGlyph name="Uhungarumlaut" xMin="56" yMin="-12" xMax="716" yMax="868">
      <component glyphName=".ttfautohint" x="56" y="0" flags="0x0"/>
      <component glyphName="U" x="0" y="0" flags="0x0"/>
      <component glyphName="hungarumlaut" x="309" y="145" flags="0x4"/>
    </TTGlyph>
    <TTGlyph name="Umacron" xMin="56" yMin="-12" xMax="716" yMax="844">
      <component glyphName=".ttfautohint" x="56" y="0" flags="0x0"/>
      <component glyphName="U" x="0" y="0" flags="0x0"/>
      <component glyphName="macron" x="291" y="145" flags="0x4"/>
    </TTGlyph>
    <TTGlyph name="Uogonek" xMin="56" yMin="-182" xMax="716" yMax="686">
      <contour>
        <pt x="317" y="-182" on="0"/>
        <pt x="265" y="-145" on="0"/>
        <pt x="265" y="-106" on="1"/>
        <pt x="265" y="-55" on="0"/>
        <pt x="310" y="-12" on="1"/>
        <pt x="187" y="-9" on="0"/>
        <pt x="56" y="97" on="0"/>
        <pt x="56" y="199" on="1"/>
        <pt x="56" y="229" on="0"/>
        <pt x="62" y="262" on="1"/>
        <pt x="136" y="686" on="1"/>
        <pt x="264" y="686" on="1"/>
        <pt x="189" y="260" on="1"/>
        <pt x="184" y="235" on="0"/>
        <pt x="184" y="217" on="1"/>
        <pt x="184" y="158" on="0"/>
        <pt x="254" y="96" on="0"/>
        <pt x="322" y="96" on="1"/>
        <pt x="399" y="96" on="0"/>
        <pt x="498" y="178" on="0"/>
        <pt x="512" y="257" on="1"/>
        <pt x="588" y="686" on="1"/>
        <pt x="716" y="686" on="1"/>
        <pt x="640" y="254" on="1"/>
        <pt x="600" y="30" on="0"/>
        <pt x="401" y="-4" on="1"/>
        <pt x="367" y="-40" on="0"/>
        <pt x="367" y="-75" on="1"/>
        <pt x="367" y="-114" on="0"/>
        <pt x="409" y="-114" on="1"/>
        <pt x="436" y="-114" on="1"/>
        <pt x="426" y="-168" on="1"/>
        <pt x="386" y="-182" on="0"/>
        <pt x="355" y="-182" on="1"/>
      </contour>
    </TTGlyph>
    <TTGlyph name="Uring" xMin="56" yMin="-12" xMax="716" yMax="903">
      <component glyphName=".ttfautohint" x="56" y="0" flags="0x0"/>
      <component glyphName="U" x="0" y="0" flags="0x0"/>
      <component glyphName="ring" x="283" y="145" flags="0x4"/>
    </TTGlyph>
    <TTGlyph name="Utilde" xMin="56" yMin="-12" xMax="716" yMax="868">
      <component glyphName=".ttfautohint" x="56" y="0" flags="0x0"/>
      <component glyphName="U" x="0" y="0" flags="0x0"/>
      <component glyphName="tilde" x="288" y="145" flags="0x4"/>
    </TTGlyph>
    <TTGlyph name="V" xMin="73" yMin="0" xMax="723" yMax="686">
      <contour>
        <pt x="73" y="686" on="1"/>
        <pt x="204" y="686" on="1"/>
        <pt x="278" y="265" on="1"/>
        <pt x="282" y="245" on="0"/>
        <pt x="289" y="200" on="0"/>
        <pt x="292" y="181" on="1"/>
        <pt x="298" y="143" on="1"/>
        <pt x="303" y="143" on="1"/>
        <pt x="319" y="175" on="1"/>
        <pt x="328" y="193" on="0"/>
        <pt x="352" y="241" on="0"/>
        <pt x="364" y="263" on="1"/>
        <pt x="586" y="686" on="1"/>
        <pt x="723" y="686" on="1"/>
        <pt x="351" y="0" on="1"/>
        <pt x="202" y="0" on="1"/>
      </contour>
    </TTGlyph>
    <TTGlyph name="W" xMin="68" yMin="0" xMax="1000" yMax="686">
      <contour>
        <pt x="68" y="686" on="1"/>
        <pt x="190" y="686" on="1"/>
        <pt x="227" y="242" on="1"/>
        <pt x="229" y="225" on="0"/>
        <pt x="231" y="155" on="0"/>
        <pt x="231" y="143" on="1"/>
        <pt x="236" y="143" on="1"/>
        <pt x="240" y="155" on="0"/>
        <pt x="263" y="228" on="0"/>
        <pt x="269" y="242" on="1"/>
        <pt x="450" y="686" on="1"/>
        <pt x="612" y="686" on="1"/>
        <pt x="638" y="242" on="1"/>
        <pt x="640" y="214" on="0"/>
        <pt x="640" y="154" on="0"/>
        <pt x="640" y="143" on="1"/>
        <pt x="645" y="143" on="1"/>
        <pt x="649" y="154" on="0"/>
        <pt x="673" y="223" on="0"/>
        <pt x="681" y="242" on="1"/>
        <pt x="871" y="686" on="1"/>
        <pt x="1000" y="686" on="1"/>
        <pt x="692" y="0" on="1"/>
        <pt x="540" y="0" on="1"/>
        <pt x="512" y="452" on="1"/>
        <pt x="510" y="484" on="0"/>
        <pt x="509" y="543" on="0"/>
        <pt x="509" y="554" on="1"/>
        <pt x="505" y="554" on="1"/>
        <pt x="502" y="543" on="0"/>
        <pt x="479" y="472" on="0"/>
        <pt x="471" y="452" on="1"/>
        <pt x="281" y="0" on="1"/>
        <pt x="129" y="0" on="1"/>
      </contour>
    </TTGlyph>
    <TTGlyph name="Wacute" xMin="68" yMin="0" xMax="1000" yMax="868">
      <component glyphName=".ttfautohint" x="68" y="0" flags="0x0"/>
      <component glyphName="W" x="0" y="0" flags="0x0"/>
      <component glyphName="acute" x="441" y="145" flags="0x4"/>
    </TTGlyph>
    <TTGlyph name="Wcircumflex" xMin="68" yMin="0" xMax="1000" yMax="868">
      <component glyphName=".ttfautohint" x="68" y="0" flags="0x0"/>
      <component glyphName="W" x="0" y="0" flags="0x0"/>
      <component glyphName="circumflex" x="391" y="145" flags="0x4"/>
    </TTGlyph>
    <TTGlyph name="Wdieresis" xMin="68" yMin="0" xMax="1000" yMax="868">
      <component glyphName=".ttfautohint" x="68" y="0" flags="0x0"/>
      <component glyphName="W" x="0" y="0" flags="0x0"/>
      <component glyphName="dieresis" x="400" y="145" flags="0x4"/>
    </TTGlyph>
    <TTGlyph name="Wgrave" xMin="68" yMin="0" xMax="1000" yMax="868">
      <component glyphName=".ttfautohint" x="68" y="0" flags="0x0"/>
      <component glyphName="W" x="0" y="0" flags="0x0"/>
      <component glyphName="grave" x="336" y="145" flags="0x4"/>
    </TTGlyph>
    <TTGlyph name="X" xMin="-58" yMin="0" xMax="701" yMax="686">
      <contour>
        <pt x="261" y="364" on="1"/>
        <pt x="84" y="686" on="1"/>
        <pt x="229" y="686" on="1"/>
        <pt x="347" y="462" on="1"/>
        <pt x="352" y="462" on="1"/>
        <pt x="545" y="686" on="1"/>
        <pt x="701" y="686" on="1"/>
        <pt x="410" y="355" on="1"/>
        <pt x="604" y="0" on="1"/>
        <pt x="459" y="0" on="1"/>
        <pt x="325" y="255" on="1"/>
        <pt x="319" y="255" on="1"/>
        <pt x="98" y="0" on="1"/>
        <pt x="-58" y="0" on="1"/>
      </contour>
    </TTGlyph>
    <TTGlyph name="Y" xMin="67" yMin="0" xMax="723" yMax="686">
      <contour>
        <pt x="260" y="279" on="1"/>
        <pt x="67" y="686" on="1"/>
        <pt x="200" y="686" on="1"/>
        <pt x="339" y="393" on="1"/>
        <pt x="344" y="393" on="1"/>
        <pt x="581" y="686" on="1"/>
        <pt x="723" y="686" on="1"/>
        <pt x="388" y="279" on="1"/>
        <pt x="339" y="0" on="1"/>
        <pt x="211" y="0" on="1"/>
      </contour>
    </TTGlyph>
    <TTGlyph name="Y.loclGUA" xMin="37" yMin="-12" xMax="658" yMax="686">
      <contour>
        <pt x="163" y="-12" on="0"/>
        <pt x="37" y="74" on="0"/>
        <pt x="37" y="159" on="1"/>
        <pt x="37" y="168" on="1"/>
        <pt x="168" y="168" on="1"/>
        <pt x="168" y="131" on="0"/>
        <pt x="222" y="96" on="0"/>
        <pt x="282" y="96" on="1"/>
        <pt x="351" y="96" on="0"/>
        <pt x="437" y="165" on="0"/>
        <pt x="450" y="234" on="1"/>
        <pt x="459" y="285" on="1"/>
        <pt x="453" y="285" on="1"/>
        <pt x="388" y="201" on="0"/>
        <pt x="264" y="201" on="1"/>
        <pt x="174" y="201" on="0"/>
        <pt x="82" y="286" on="0"/>
        <pt x="82" y="369" on="1"/>
        <pt x="82" y="400" on="0"/>
        <pt x="88" y="434" on="1"/>
        <pt x="133" y="686" on="1"/>
        <pt x="261" y="686" on="1"/>
        <pt x="216" y="430" on="1"/>
        <pt x="212" y="415" on="0"/>
        <pt x="212" y="398" on="1"/>
        <pt x="212" y="355" on="0"/>
        <pt x="264" y="309" on="0"/>
        <pt x="313" y="309" on="1"/>
        <pt x="384" y="309" on="0"/>
        <pt x="480" y="406" on="0"/>
        <pt x="496" y="497" on="1"/>
        <pt x="530" y="686" on="1"/>
        <pt x="658" y="686" on="1"/>
        <pt x="619" y="470" on="1"/>
        <pt x="580" y="250" on="1"/>
        <pt x="558" y="119" on="0"/>
        <pt x="402" y="-12" on="0"/>
        <pt x="277" y="-12" on="1"/>
      </contour>
    </TTGlyph>
    <TTGlyph name="Yacute" xMin="67" yMin="0" xMax="723" yMax="868">
      <component glyphName=".ttfautohint" x="67" y="0" flags="0x0"/>
      <component glyphName="Y" x="0" y="0" flags="0x0"/>
      <component glyphName="acute" x="302" y="145" flags="0x4"/>
    </TTGlyph>
    <TTGlyph name="Yacute.loclGUA" xMin="37" yMin="-12" xMax="658" yMax="868">
      <component glyphName=".ttfautohint" x="37" y="0" flags="0x0"/>
      <component glyphName="Y.loclGUA" x="0" y="0" flags="0x0"/>
      <component glyphName="acute" x="309" y="145" flags="0x4"/>
    </TTGlyph>
    <TTGlyph name="Ycircumflex" xMin="67" yMin="0" xMax="723" yMax="868">
      <component glyphName=".ttfautohint" x="67" y="0" flags="0x0"/>
      <component glyphName="Y" x="0" y="0" flags="0x0"/>
      <component glyphName="circumflex" x="252" y="145" flags="0x4"/>
    </TTGlyph>
    <TTGlyph name="Ycircumflex.loclGUA" xMin="37" yMin="-12" xMax="658" yMax="868">
      <component glyphName=".ttfautohint" x="37" y="0" flags="0x0"/>
      <component glyphName="Y.loclGUA" x="0" y="0" flags="0x0"/>
      <component glyphName="circumflex" x="259" y="145" flags="0x4"/>
    </TTGlyph>
    <TTGlyph name="Ydieresis" xMin="67" yMin="0" xMax="723" yMax="868">
      <component glyphName=".ttfautohint" x="67" y="0" flags="0x0"/>
      <component glyphName="Y" x="0" y="0" flags="0x0"/>
      <component glyphName="dieresis" x="261" y="145" flags="0x4"/>
    </TTGlyph>
    <TTGlyph name="Ydieresis.loclGUA" xMin="37" yMin="-12" xMax="658" yMax="868">
      <component glyphName=".ttfautohint" x="37" y="0" flags="0x0"/>
      <component glyphName="Y.loclGUA" x="0" y="0" flags="0x0"/>
      <component glyphName="dieresis" x="268" y="145" flags="0x4"/>
    </TTGlyph>
    <TTGlyph name="Ygrave" xMin="67" yMin="0" xMax="723" yMax="868">
      <component glyphName=".ttfautohint" x="67" y="0" flags="0x0"/>
      <component glyphName="Y" x="0" y="0" flags="0x0"/>
      <component glyphName="grave" x="197" y="145" flags="0x4"/>
    </TTGlyph>
    <TTGlyph name="Ygrave.loclGUA" xMin="37" yMin="-12" xMax="658" yMax="868">
      <component glyphName=".ttfautohint" x="37" y="0" flags="0x0"/>
      <component glyphName="Y.loclGUA" x="0" y="0" flags="0x0"/>
      <component glyphName="grave" x="204" y="145" flags="0x4"/>
    </TTGlyph>
    <TTGlyph name="Z" xMin="-38" yMin="0" xMax="641" yMax="686">
      <contour>
        <pt x="-27" y="61" on="1"/>
        <pt x="423" y="577" on="1"/>
        <pt x="89" y="577" on="1"/>
        <pt x="108" y="686" on="1"/>
        <pt x="641" y="686" on="1"/>
        <pt x="630" y="624" on="1"/>
        <pt x="180" y="109" on="1"/>
        <pt x="549" y="109" on="1"/>
        <pt x="529" y="0" on="1"/>
        <pt x="-38" y="0" on="1"/>
      </contour>
    </TTGlyph>
    <TTGlyph name="Zacute" xMin="-38" yMin="0" xMax="641" yMax="868">
      <component glyphName=".ttfautohint" x="0" y="0" flags="0x0"/>
      <component glyphName="Z" x="0" y="0" flags="0x0"/>
      <component glyphName="acute" x="261" y="145" flags="0x4"/>
    </TTGlyph>
    <TTGlyph name="Zacute.loclPLK" xMin="-38" yMin="0" xMax="641" yMax="868">
      <component glyphName=".ttfautohint" x="0" y="0" flags="0x0"/>
      <component glyphName="Z" x="0" y="0" flags="0x0"/>
      <component glyphName="acute.loclPLK" x="159" y="145" flags="0x4"/>
    </TTGlyph>
    <TTGlyph name="Zcaron" xMin="-38" yMin="0" xMax="641" yMax="868">
      <component glyphName=".ttfautohint" x="0" y="0" flags="0x0"/>
      <component glyphName="Z" x="0" y="0" flags="0x0"/>
      <component glyphName="caron" x="218" y="145" flags="0x4"/>
    </TTGlyph>
    <TTGlyph name="Zdotaccent" xMin="-38" yMin="0" xMax="641" yMax="869">
      <component glyphName=".ttfautohint" x="0" y="0" flags="0x0"/>
      <component glyphName="Z" x="0" y="0" flags="0x0"/>
      <component glyphName="dotaccent" x="218" y="145" flags="0x4"/>
    </TTGlyph>
    <TTGlyph name="a" xMin="18" yMin="-12" xMax="542" yMax="538">
      <contour>
        <pt x="469" y="86" on="0"/>
        <pt x="498" y="86" on="1"/>
        <pt x="531" y="86" on="1"/>
        <pt x="516" y="4" on="1"/>
        <pt x="486" y="-12" on="0"/>
        <pt x="440" y="-12" on="1"/>
        <pt x="401" y="-12" on="0"/>
        <pt x="354" y="34" on="0"/>
        <pt x="354" y="74" on="1"/>
        <pt x="349" y="74" on="1"/>
        <pt x="322" y="33" on="0"/>
        <pt x="236" y="-12" on="0"/>
        <pt x="188" y="-12" on="1"/>
        <pt x="109" y="-12" on="0"/>
        <pt x="18" y="92" on="0"/>
        <pt x="18" y="190" on="1"/>
        <pt x="18" y="277" on="0"/>
        <pt x="74" y="437" on="0"/>
        <pt x="183" y="538" on="0"/>
        <pt x="259" y="538" on="1"/>
        <pt x="313" y="538" on="0"/>
        <pt x="384" y="502" on="0"/>
        <pt x="406" y="465" on="1"/>
        <pt x="412" y="465" on="1"/>
        <pt x="443" y="526" on="1"/>
        <pt x="542" y="526" on="1"/>
        <pt x="529" y="453" on="0"/>
        <pt x="508" y="336" on="0"/>
        <pt x="500" y="290" on="1"/>
        <pt x="469" y="123" on="0"/>
        <pt x="469" y="113" on="1"/>
      </contour>
      <contour>
        <pt x="283" y="91" on="0"/>
        <pt x="351" y="169" on="0"/>
        <pt x="382" y="279" on="0"/>
        <pt x="382" y="329" on="1"/>
        <pt x="382" y="438" on="0"/>
        <pt x="290" y="438" on="1"/>
        <pt x="238" y="438" on="0"/>
        <pt x="172" y="364" on="0"/>
        <pt x="143" y="254" on="0"/>
        <pt x="143" y="197" on="1"/>
        <pt x="143" y="144" on="0"/>
        <pt x="185" y="91" on="0"/>
        <pt x="230" y="91" on="1"/>
      </contour>
    </TTGlyph>
    <TTGlyph name="aacute" xMin="18" yMin="-12" xMax="542" yMax="723">
      <component glyphName=".ttfautohint" x="18" y="0" flags="0x0"/>
      <component glyphName="a" x="0" y="0" flags="0x0"/>
      <component glyphName="acute" x="193" y="0" flags="0x0"/>
    </TTGlyph>
    <TTGlyph name="abreve" xMin="18" yMin="-12" xMax="542" yMax="723">
      <component glyphName=".ttfautohint" x="18" y="0" flags="0x0"/>
      <component glyphName="a" x="0" y="0" flags="0x0"/>
      <component glyphName="breve" x="139" y="0" flags="0x0"/>
    </TTGlyph>
    <TTGlyph name="acircumflex" xMin="18" yMin="-12" xMax="542" yMax="723">
      <component glyphName=".ttfautohint" x="18" y="0" flags="0x0"/>
      <component glyphName="a" x="0" y="0" flags="0x0"/>
      <component glyphName="circumflex" x="143" y="0" flags="0x0"/>
    </TTGlyph>
    <TTGlyph name="acute" xMin="60" yMin="591" xMax="290" yMax="723">
      <contour>
        <pt x="164" y="723" on="1"/>
        <pt x="289" y="723" on="1"/>
        <pt x="290" y="720" on="1"/>
        <pt x="161" y="591" on="1"/>
        <pt x="60" y="591" on="1"/>
      </contour>
    </TTGlyph>
    <TTGlyph name="acute.loclPLK" xMin="154" yMin="591" xMax="317" yMax="723">
      <contour>
        <pt x="202" y="723" on="1"/>
        <pt x="316" y="723" on="1"/>
        <pt x="317" y="720" on="1"/>
        <pt x="249" y="591" on="1"/>
        <pt x="154" y="591" on="1"/>
      </contour>
    </TTGlyph>
    <TTGlyph name="adieresis" xMin="18" yMin="-12" xMax="542" yMax="723">
      <component glyphName=".ttfautohint" x="18" y="0" flags="0x0"/>
      <component glyphName="a" x="0" y="0" flags="0x0"/>
      <component glyphName="dieresis" x="152" y="0" flags="0x0"/>
    </TTGlyph>
    <TTGlyph name="ae" xMin="-6" yMin="-12" xMax="850" yMax="538">
      <contour>
        <pt x="108" y="-12" on="0"/>
        <pt x="-6" y="43" on="0"/>
        <pt x="-6" y="117" on="1"/>
        <pt x="-6" y="231" on="0"/>
        <pt x="194" y="319" on="0"/>
        <pt x="374" y="319" on="1"/>
        <pt x="382" y="363" on="1"/>
        <pt x="384" y="379" on="0"/>
        <pt x="384" y="385" on="1"/>
        <pt x="384" y="413" on="0"/>
        <pt x="345" y="443" on="0"/>
        <pt x="296" y="443" on="1"/>
        <pt x="241" y="443" on="0"/>
        <pt x="187" y="409" on="0"/>
        <pt x="183" y="384" on="1"/>
        <pt x="180" y="370" on="1"/>
        <pt x="64" y="370" on="1"/>
        <pt x="64" y="420" on="0"/>
        <pt x="126" y="497" on="0"/>
        <pt x="232" y="538" on="0"/>
        <pt x="297" y="538" on="1"/>
        <pt x="424" y="538" on="0"/>
        <pt x="473" y="483" on="1"/>
        <pt x="537" y="538" on="0"/>
        <pt x="638" y="538" on="1"/>
        <pt x="850" y="538" on="0"/>
        <pt x="850" y="347" on="1"/>
        <pt x="850" y="315" on="0"/>
        <pt x="842" y="270" on="1"/>
        <pt x="836" y="234" on="1"/>
        <pt x="481" y="234" on="1"/>
        <pt x="477" y="213" on="0"/>
        <pt x="477" y="191" on="1"/>
        <pt x="477" y="136" on="0"/>
        <pt x="529" y="83" on="0"/>
        <pt x="586" y="83" on="1"/>
        <pt x="636" y="83" on="0"/>
        <pt x="700" y="133" on="0"/>
        <pt x="709" y="184" on="1"/>
        <pt x="827" y="184" on="1"/>
        <pt x="812" y="87" on="0"/>
        <pt x="684" y="-12" on="0"/>
        <pt x="589" y="-12" on="1"/>
        <pt x="440" y="-12" on="0"/>
        <pt x="387" y="67" on="1"/>
        <pt x="308" y="-12" on="0"/>
        <pt x="184" y="-12" on="1"/>
      </contour>
      <contour>
        <pt x="727" y="319" on="1"/>
        <pt x="730" y="337" on="0"/>
        <pt x="730" y="354" on="1"/>
        <pt x="730" y="400" on="0"/>
        <pt x="683" y="443" on="0"/>
        <pt x="641" y="443" on="1"/>
        <pt x="584" y="443" on="0"/>
        <pt x="514" y="381" on="0"/>
        <pt x="497" y="319" on="1"/>
      </contour>
      <contour>
        <pt x="260" y="84" on="0"/>
        <pt x="346" y="153" on="0"/>
        <pt x="355" y="210" on="1"/>
        <pt x="360" y="234" on="1"/>
        <pt x="249" y="234" on="0"/>
        <pt x="120" y="190" on="0"/>
        <pt x="120" y="133" on="1"/>
        <pt x="120" y="84" on="0"/>
        <pt x="197" y="84" on="1"/>
      </contour>
    </TTGlyph>
    <TTGlyph name="aeacute" xMin="-6" yMin="-12" xMax="850" yMax="723">
      <component glyphName=".ttfautohint" x="0" y="0" flags="0x0"/>
      <component glyphName="ae" x="0" y="0" flags="0x0"/>
      <component glyphName="acute" x="391" y="0" flags="0x0"/>
    </TTGlyph>
    <TTGlyph name="agrave" xMin="18" yMin="-12" xMax="542" yMax="723">
      <component glyphName=".ttfautohint" x="18" y="0" flags="0x0"/>
      <component glyphName="a" x="0" y="0" flags="0x0"/>
      <component glyphName="grave" x="88" y="0" flags="0x0"/>
    </TTGlyph>
    <TTGlyph name="amacron" xMin="18" yMin="-12" xMax="542" yMax="699">
      <component glyphName=".ttfautohint" x="18" y="0" flags="0x0"/>
      <component glyphName="a" x="0" y="0" flags="0x0"/>
      <component glyphName="macron" x="154" y="0" flags="0x0"/>
    </TTGlyph>
    <TTGlyph name="ampersand" xMin="23" yMin="-12" xMax="697" yMax="698">
      <contour>
        <pt x="161" y="-12" on="0"/>
        <pt x="23" y="76" on="0"/>
        <pt x="23" y="156" on="1"/>
        <pt x="23" y="235" on="0"/>
        <pt x="118" y="337" on="0"/>
        <pt x="190" y="352" on="1"/>
        <pt x="191" y="356" on="1"/>
        <pt x="146" y="377" on="0"/>
        <pt x="98" y="438" on="0"/>
        <pt x="98" y="484" on="1"/>
        <pt x="98" y="551" on="0"/>
        <pt x="173" y="648" on="0"/>
        <pt x="303" y="698" on="0"/>
        <pt x="384" y="698" on="1"/>
        <pt x="495" y="698" on="0"/>
        <pt x="629" y="612" on="0"/>
        <pt x="629" y="540" on="1"/>
        <pt x="629" y="524" on="0"/>
        <pt x="622" y="485" on="1"/>
        <pt x="502" y="485" on="1"/>
        <pt x="505" y="508" on="0"/>
        <pt x="505" y="520" on="1"/>
        <pt x="505" y="599" on="0"/>
        <pt x="384" y="599" on="1"/>
        <pt x="310" y="599" on="0"/>
        <pt x="218" y="536" on="0"/>
        <pt x="218" y="478" on="1"/>
        <pt x="218" y="440" on="0"/>
        <pt x="278" y="397" on="0"/>
        <pt x="323" y="397" on="1"/>
        <pt x="389" y="397" on="1"/>
        <pt x="372" y="299" on="1"/>
        <pt x="309" y="299" on="1"/>
        <pt x="242" y="299" on="0"/>
        <pt x="150" y="244" on="0"/>
        <pt x="150" y="175" on="1"/>
        <pt x="150" y="87" on="0"/>
        <pt x="277" y="87" on="1"/>
        <pt x="354" y="87" on="0"/>
        <pt x="441" y="144" on="0"/>
        <pt x="451" y="198" on="1"/>
        <pt x="486" y="397" on="1"/>
        <pt x="697" y="397" on="1"/>
        <pt x="681" y="299" on="1"/>
        <pt x="589" y="299" on="1"/>
        <pt x="571" y="201" on="1"/>
        <pt x="553" y="100" on="0"/>
        <pt x="405" y="-12" on="0"/>
        <pt x="281" y="-12" on="1"/>
      </contour>
    </TTGlyph>
    <TTGlyph name="ampersand.alt" xMin="26" yMin="-14" xMax="655" yMax="698">
      <contour>
        <pt x="618" y="209" on="0"/>
        <pt x="534" y="117" on="1"/>
        <pt x="611" y="0" on="1"/>
        <pt x="477" y="0" on="1"/>
        <pt x="448" y="44" on="1"/>
        <pt x="353" y="-14" on="0"/>
        <pt x="242" y="-14" on="1"/>
        <pt x="174" y="-14" on="0"/>
        <pt x="76" y="32" on="0"/>
        <pt x="26" y="113" on="0"/>
        <pt x="26" y="163" on="1"/>
        <pt x="26" y="241" on="0"/>
        <pt x="130" y="369" on="0"/>
        <pt x="218" y="401" on="1"/>
        <pt x="190" y="454" on="0"/>
        <pt x="190" y="511" on="1"/>
        <pt x="190" y="565" on="0"/>
        <pt x="244" y="651" on="0"/>
        <pt x="338" y="698" on="0"/>
        <pt x="395" y="698" on="1"/>
        <pt x="470" y="698" on="0"/>
        <pt x="557" y="624" on="0"/>
        <pt x="557" y="565" on="1"/>
        <pt x="557" y="499" on="0"/>
        <pt x="461" y="386" on="0"/>
        <pt x="378" y="355" on="1"/>
        <pt x="477" y="204" on="1"/>
        <pt x="520" y="266" on="0"/>
        <pt x="543" y="350" on="1"/>
        <pt x="655" y="350" on="1"/>
      </contour>
      <contour>
        <pt x="347" y="603" on="0"/>
        <pt x="303" y="554" on="0"/>
        <pt x="303" y="514" on="1"/>
        <pt x="303" y="467" on="0"/>
        <pt x="329" y="428" on="1"/>
        <pt x="379" y="442" on="0"/>
        <pt x="442" y="507" on="0"/>
        <pt x="442" y="545" on="1"/>
        <pt x="442" y="571" on="0"/>
        <pt x="410" y="603" on="0"/>
        <pt x="383" y="603" on="1"/>
      </contour>
      <contour>
        <pt x="331" y="82" on="0"/>
        <pt x="397" y="124" on="1"/>
        <pt x="267" y="324" on="1"/>
        <pt x="211" y="307" on="0"/>
        <pt x="143" y="227" on="0"/>
        <pt x="143" y="177" on="1"/>
        <pt x="143" y="132" on="0"/>
        <pt x="197" y="82" on="0"/>
        <pt x="250" y="82" on="1"/>
      </contour>
    </TTGlyph>
    <TTGlyph name="aogonek" xMin="18" yMin="-182" xMax="542" yMax="538">
      <contour>
        <pt x="467" y="99" on="0"/>
        <pt x="483" y="86" on="0"/>
        <pt x="496" y="86" on="1"/>
        <pt x="529" y="86" on="1"/>
        <pt x="515" y="4" on="1"/>
        <pt x="426" y="-33" on="0"/>
        <pt x="426" y="-79" on="1"/>
        <pt x="426" y="-114" on="0"/>
        <pt x="468" y="-114" on="1"/>
        <pt x="494" y="-114" on="1"/>
        <pt x="485" y="-168" on="1"/>
        <pt x="445" y="-182" on="0"/>
        <pt x="415" y="-182" on="1"/>
        <pt x="377" y="-182" on="0"/>
        <pt x="324" y="-146" on="0"/>
        <pt x="324" y="-106" on="1"/>
        <pt x="324" y="-46" on="0"/>
        <pt x="402" y="-5" on="1"/>
        <pt x="378" y="2" on="0"/>
        <pt x="352" y="44" on="0"/>
        <pt x="352" y="74" on="1"/>
        <pt x="347" y="74" on="1"/>
        <pt x="320" y="33" on="0"/>
        <pt x="235" y="-12" on="0"/>
        <pt x="188" y="-12" on="1"/>
        <pt x="109" y="-12" on="0"/>
        <pt x="18" y="92" on="0"/>
        <pt x="18" y="190" on="1"/>
        <pt x="18" y="277" on="0"/>
        <pt x="74" y="437" on="0"/>
        <pt x="183" y="538" on="0"/>
        <pt x="259" y="538" on="1"/>
        <pt x="313" y="538" on="0"/>
        <pt x="384" y="502" on="0"/>
        <pt x="406" y="465" on="1"/>
        <pt x="412" y="465" on="1"/>
        <pt x="443" y="526" on="1"/>
        <pt x="542" y="526" on="1"/>
        <pt x="497" y="278" on="0"/>
        <pt x="485" y="215" on="1"/>
        <pt x="467" y="114" on="0"/>
        <pt x="467" y="113" on="1"/>
      </contour>
      <contour>
        <pt x="282" y="91" on="0"/>
        <pt x="351" y="173" on="0"/>
        <pt x="382" y="284" on="0"/>
        <pt x="382" y="329" on="1"/>
        <pt x="382" y="438" on="0"/>
        <pt x="290" y="438" on="1"/>
        <pt x="238" y="438" on="0"/>
        <pt x="172" y="364" on="0"/>
        <pt x="143" y="254" on="0"/>
        <pt x="143" y="197" on="1"/>
        <pt x="143" y="144" on="0"/>
        <pt x="185" y="91" on="0"/>
        <pt x="230" y="91" on="1"/>
      </contour>
    </TTGlyph>
    <TTGlyph name="approxequal" xMin="-9" yMin="47" xMax="548" yMax="454">
      <contour>
        <pt x="47" y="369" on="1"/>
        <pt x="47" y="371" on="0"/>
        <pt x="91" y="410" on="0"/>
        <pt x="159" y="442" on="0"/>
        <pt x="200" y="442" on="1"/>
        <pt x="224" y="442" on="0"/>
        <pt x="266" y="427" on="0"/>
        <pt x="296" y="412" on="1"/>
        <pt x="325" y="397" on="0"/>
        <pt x="368" y="381" on="0"/>
        <pt x="394" y="381" on="1"/>
        <pt x="430" y="381" on="0"/>
        <pt x="499" y="413" on="0"/>
        <pt x="548" y="452" on="0"/>
        <pt x="548" y="454" on="1"/>
        <pt x="528" y="343" on="1"/>
        <pt x="528" y="341" on="0"/>
        <pt x="484" y="303" on="0"/>
        <pt x="416" y="271" on="0"/>
        <pt x="374" y="271" on="1"/>
        <pt x="350" y="271" on="0"/>
        <pt x="307" y="286" on="0"/>
        <pt x="279" y="301" on="1"/>
        <pt x="249" y="316" on="0"/>
        <pt x="206" y="331" on="0"/>
        <pt x="181" y="331" on="1"/>
        <pt x="145" y="331" on="0"/>
        <pt x="76" y="299" on="0"/>
        <pt x="27" y="261" on="0"/>
        <pt x="27" y="259" on="1"/>
      </contour>
      <contour>
        <pt x="9" y="157" on="1"/>
        <pt x="9" y="159" on="0"/>
        <pt x="53" y="197" on="0"/>
        <pt x="121" y="229" on="0"/>
        <pt x="163" y="229" on="1"/>
        <pt x="187" y="229" on="0"/>
        <pt x="230" y="214" on="0"/>
        <pt x="258" y="199" on="1"/>
        <pt x="288" y="184" on="0"/>
        <pt x="331" y="169" on="0"/>
        <pt x="356" y="169" on="1"/>
        <pt x="393" y="169" on="0"/>
        <pt x="461" y="201" on="0"/>
        <pt x="510" y="239" on="0"/>
        <pt x="510" y="241" on="1"/>
        <pt x="491" y="131" on="1"/>
        <pt x="491" y="129" on="0"/>
        <pt x="447" y="91" on="0"/>
        <pt x="379" y="59" on="0"/>
        <pt x="337" y="59" on="1"/>
        <pt x="313" y="59" on="0"/>
        <pt x="270" y="74" on="0"/>
        <pt x="242" y="89" on="1"/>
        <pt x="212" y="104" on="0"/>
        <pt x="169" y="119" on="0"/>
        <pt x="144" y="119" on="1"/>
        <pt x="107" y="119" on="0"/>
        <pt x="39" y="87" on="0"/>
        <pt x="-9" y="49" on="0"/>
        <pt x="-9" y="47" on="1"/>
      </contour>
    </TTGlyph>
    <TTGlyph name="aring" xMin="18" yMin="-12" xMax="542" yMax="758">
      <component glyphName=".ttfautohint" x="18" y="0" flags="0x0"/>
      <component glyphName="a" x="0" y="0" flags="0x0"/>
      <component glyphName="ring" x="146" y="0" flags="0x0"/>
    </TTGlyph>
    <TTGlyph name="aringacute" xMin="18" yMin="-12" xMax="542" yMax="910">
      <component glyphName=".ttfautohint" x="18" y="0" flags="0x0"/>
      <component glyphName="a" x="0" y="0" flags="0x0"/>
      <component glyphName="ring" x="146" y="0" flags="0x0"/>
      <component glyphName="acute" x="224" y="187" flags="0x4"/>
    </TTGlyph>
    <TTGlyph name="arrowboth" xMin="32" yMin="72" xMax="953" yMax="433">
      <contour>
        <pt x="32" y="242" on="1"/>
        <pt x="35" y="263" on="1"/>
        <pt x="254" y="433" on="1"/>
        <pt x="311" y="433" on="1"/>
        <pt x="235" y="301" on="1"/>
        <pt x="769" y="301" on="1"/>
        <pt x="738" y="433" on="1"/>
        <pt x="786" y="433" on="1"/>
        <pt x="953" y="263" on="1"/>
        <pt x="950" y="242" on="1"/>
        <pt x="731" y="72" on="1"/>
        <pt x="674" y="72" on="1"/>
        <pt x="752" y="204" on="1"/>
        <pt x="218" y="204" on="1"/>
        <pt x="247" y="72" on="1"/>
        <pt x="199" y="72" on="1"/>
      </contour>
    </TTGlyph>
    <TTGlyph name="arrowdown" xMin="15" yMin="-207" xMax="383" yMax="711">
      <contour>
        <pt x="15" y="-10" on="1"/>
        <pt x="23" y="38" on="1"/>
        <pt x="145" y="-17" on="1"/>
        <pt x="273" y="711" on="1"/>
        <pt x="370" y="711" on="1"/>
        <pt x="242" y="-17" on="1"/>
        <pt x="383" y="38" on="1"/>
        <pt x="373" y="-18" on="1"/>
        <pt x="171" y="-207" on="1"/>
        <pt x="150" y="-207" on="1"/>
      </contour>
    </TTGlyph>
    <TTGlyph name="arrowleft" xMin="26" yMin="72" xMax="954" yMax="433">
      <contour>
        <pt x="26" y="242" on="1"/>
        <pt x="29" y="263" on="1"/>
        <pt x="249" y="433" on="1"/>
        <pt x="305" y="433" on="1"/>
        <pt x="227" y="300" on="1"/>
        <pt x="954" y="300" on="1"/>
        <pt x="938" y="204" on="1"/>
        <pt x="210" y="204" on="1"/>
        <pt x="242" y="72" on="1"/>
        <pt x="193" y="72" on="1"/>
      </contour>
    </TTGlyph>
    <TTGlyph name="arrowright" xMin="24" yMin="72" xMax="952" yMax="433">
      <contour>
        <pt x="751" y="204" on="1"/>
        <pt x="24" y="204" on="1"/>
        <pt x="40" y="300" on="1"/>
        <pt x="768" y="300" on="1"/>
        <pt x="736" y="433" on="1"/>
        <pt x="785" y="433" on="1"/>
        <pt x="952" y="262" on="1"/>
        <pt x="949" y="241" on="1"/>
        <pt x="729" y="72" on="1"/>
        <pt x="673" y="72" on="1"/>
      </contour>
    </TTGlyph>
    <TTGlyph name="arrowup" xMin="94" yMin="-207" xMax="463" yMax="711">
      <contour>
        <pt x="235" y="520" on="1"/>
        <pt x="94" y="465" on="1"/>
        <pt x="104" y="522" on="1"/>
        <pt x="306" y="711" on="1"/>
        <pt x="327" y="711" on="1"/>
        <pt x="463" y="514" on="1"/>
        <pt x="454" y="465" on="1"/>
        <pt x="332" y="520" on="1"/>
        <pt x="204" y="-207" on="1"/>
        <pt x="107" y="-207" on="1"/>
      </contour>
    </TTGlyph>
    <TTGlyph name="arrowupdn" xMin="14" yMin="-207" xMax="467" yMax="711">
      <contour>
        <pt x="14" y="-10" on="1"/>
        <pt x="23" y="39" on="1"/>
        <pt x="145" y="-16" on="1"/>
        <pt x="239" y="518" on="1"/>
        <pt x="98" y="465" on="1"/>
        <pt x="109" y="522" on="1"/>
        <pt x="311" y="711" on="1"/>
        <pt x="332" y="711" on="1"/>
        <pt x="467" y="514" on="1"/>
        <pt x="458" y="465" on="1"/>
        <pt x="336" y="518" on="1"/>
        <pt x="242" y="-16" on="1"/>
        <pt x="383" y="39" on="1"/>
        <pt x="373" y="-18" on="1"/>
        <pt x="171" y="-207" on="1"/>
        <pt x="150" y="-207" on="1"/>
      </contour>
    </TTGlyph>
    <TTGlyph name="arrowupdnbse" xMin="-22" yMin="-233" xMax="469" yMax="711">
      <contour>
        <pt x="33" y="85" on="1"/>
        <pt x="41" y="133" on="1"/>
        <pt x="164" y="78" on="1"/>
        <pt x="242" y="518" on="1"/>
        <pt x="101" y="465" on="1"/>
        <pt x="111" y="522" on="1"/>
        <pt x="313" y="711" on="1"/>
        <pt x="334" y="711" on="1"/>
        <pt x="469" y="514" on="1"/>
        <pt x="461" y="465" on="1"/>
        <pt x="338" y="518" on="1"/>
        <pt x="260" y="78" on="1"/>
        <pt x="401" y="133" on="1"/>
        <pt x="392" y="77" on="1"/>
        <pt x="189" y="-112" on="1"/>
        <pt x="168" y="-112" on="1"/>
      </contour>
      <contour>
        <pt x="-10" y="-160" on="1"/>
        <pt x="351" y="-160" on="1"/>
        <pt x="338" y="-233" on="1"/>
        <pt x="-22" y="-233" on="1"/>
      </contour>
    </TTGlyph>
    <TTGlyph name="asciicircum" xMin="19" yMin="294" xMax="438" yMax="686">
      <contour>
        <pt x="243" y="686" on="1"/>
        <pt x="350" y="686" on="1"/>
        <pt x="438" y="294" on="1"/>
        <pt x="338" y="294" on="1"/>
        <pt x="281" y="580" on="1"/>
        <pt x="124" y="294" on="1"/>
        <pt x="19" y="294" on="1"/>
      </contour>
    </TTGlyph>
    <TTGlyph name="asciitilde" xMin="24" yMin="203" xMax="559" yMax="397">
      <contour>
        <pt x="43" y="313" on="1"/>
        <pt x="43" y="315" on="0"/>
        <pt x="87" y="353" on="0"/>
        <pt x="157" y="385" on="0"/>
        <pt x="200" y="385" on="1"/>
        <pt x="225" y="385" on="0"/>
        <pt x="269" y="370" on="0"/>
        <pt x="300" y="355" on="1"/>
        <pt x="330" y="340" on="0"/>
        <pt x="376" y="325" on="0"/>
        <pt x="402" y="325" on="1"/>
        <pt x="440" y="325" on="0"/>
        <pt x="510" y="357" on="0"/>
        <pt x="559" y="395" on="0"/>
        <pt x="559" y="397" on="1"/>
        <pt x="540" y="288" on="1"/>
        <pt x="540" y="286" on="0"/>
        <pt x="496" y="247" on="0"/>
        <pt x="426" y="215" on="0"/>
        <pt x="383" y="215" on="1"/>
        <pt x="358" y="215" on="0"/>
        <pt x="314" y="230" on="0"/>
        <pt x="283" y="245" on="1"/>
        <pt x="254" y="260" on="0"/>
        <pt x="207" y="276" on="0"/>
        <pt x="181" y="276" on="1"/>
        <pt x="143" y="276" on="0"/>
        <pt x="73" y="244" on="0"/>
        <pt x="24" y="205" on="0"/>
        <pt x="24" y="203" on="1"/>
      </contour>
    </TTGlyph>
    <TTGlyph name="asterisk" xMin="60" yMin="362" xMax="400" yMax="686">
      <contour>
        <pt x="198" y="481" on="1"/>
        <pt x="89" y="407" on="1"/>
        <pt x="60" y="478" on="1"/>
        <pt x="181" y="524" on="1"/>
        <pt x="77" y="571" on="1"/>
        <pt x="130" y="641" on="1"/>
        <pt x="213" y="567" on="1"/>
        <pt x="217" y="686" on="1"/>
        <pt x="300" y="686" on="1"/>
        <pt x="262" y="568" on="1"/>
        <pt x="371" y="641" on="1"/>
        <pt x="400" y="571" on="1"/>
        <pt x="280" y="524" on="1"/>
        <pt x="383" y="478" on="1"/>
        <pt x="330" y="407" on="1"/>
        <pt x="247" y="481" on="1"/>
        <pt x="243" y="362" on="1"/>
        <pt x="160" y="362" on="1"/>
      </contour>
    </TTGlyph>
    <TTGlyph name="at" xMin="37" yMin="-153" xMax="947" yMax="698">
      <contour>
        <pt x="679" y="698" on="0"/>
        <pt x="856" y="621" on="0"/>
        <pt x="947" y="478" on="0"/>
        <pt x="947" y="379" on="1"/>
        <pt x="947" y="293" on="0"/>
        <pt x="887" y="129" on="0"/>
        <pt x="758" y="22" on="0"/>
        <pt x="660" y="22" on="1"/>
        <pt x="619" y="22" on="0"/>
        <pt x="560" y="54" on="0"/>
        <pt x="560" y="90" on="1"/>
        <pt x="560" y="100" on="1"/>
        <pt x="555" y="100" on="1"/>
        <pt x="531" y="62" on="0"/>
        <pt x="453" y="21" on="0"/>
        <pt x="410" y="21" on="1"/>
        <pt x="338" y="21" on="0"/>
        <pt x="255" y="116" on="0"/>
        <pt x="255" y="205" on="1"/>
        <pt x="255" y="284" on="0"/>
        <pt x="306" y="429" on="0"/>
        <pt x="406" y="521" on="0"/>
        <pt x="475" y="521" on="1"/>
        <pt x="524" y="521" on="0"/>
        <pt x="588" y="488" on="0"/>
        <pt x="608" y="455" on="1"/>
        <pt x="614" y="455" on="1"/>
        <pt x="641" y="510" on="1"/>
        <pt x="733" y="510" on="1"/>
        <pt x="684" y="240" on="1"/>
        <pt x="665" y="140" on="0"/>
        <pt x="665" y="136" on="1"/>
        <pt x="665" y="123" on="0"/>
        <pt x="682" y="111" on="0"/>
        <pt x="702" y="111" on="1"/>
        <pt x="752" y="111" on="0"/>
        <pt x="827" y="187" on="0"/>
        <pt x="868" y="310" on="0"/>
        <pt x="868" y="379" on="1"/>
        <pt x="868" y="495" on="0"/>
        <pt x="704" y="628" on="0"/>
        <pt x="552" y="628" on="1"/>
        <pt x="345" y="628" on="0"/>
        <pt x="118" y="420" on="0"/>
        <pt x="118" y="212" on="1"/>
        <pt x="118" y="73" on="0"/>
        <pt x="265" y="-83" on="0"/>
        <pt x="439" y="-83" on="1"/>
        <pt x="486" y="-83" on="0"/>
        <pt x="567" y="-75" on="0"/>
        <pt x="615" y="-66" on="0"/>
        <pt x="621" y="-65" on="1"/>
        <pt x="610" y="-139" on="1"/>
        <pt x="518" y="-153" on="0"/>
        <pt x="439" y="-153" on="1"/>
        <pt x="224" y="-153" on="0"/>
        <pt x="37" y="37" on="0"/>
        <pt x="37" y="205" on="1"/>
        <pt x="37" y="455" on="0"/>
        <pt x="303" y="698" on="0"/>
        <pt x="552" y="698" on="1"/>
      </contour>
      <contour>
        <pt x="496" y="116" on="0"/>
        <pt x="559" y="190" on="0"/>
        <pt x="587" y="291" on="0"/>
        <pt x="587" y="331" on="1"/>
        <pt x="587" y="429" on="0"/>
        <pt x="504" y="429" on="1"/>
        <pt x="456" y="429" on="0"/>
        <pt x="396" y="362" on="0"/>
        <pt x="369" y="262" on="0"/>
        <pt x="369" y="211" on="1"/>
        <pt x="369" y="164" on="0"/>
        <pt x="408" y="116" on="0"/>
        <pt x="449" y="116" on="1"/>
      </contour>
    </TTGlyph>
    <TTGlyph name="atilde" xMin="18" yMin="-12" xMax="542" yMax="723">
      <component glyphName=".ttfautohint" x="18" y="0" flags="0x0"/>
      <component glyphName="a" x="0" y="0" flags="0x0"/>
      <component glyphName="tilde" x="151" y="0" flags="0x0"/>
    </TTGlyph>
    <TTGlyph name="b" xMin="13" yMin="-12" xMax="552" yMax="723">
      <contour>
        <pt x="242" y="-12" on="0"/>
        <pt x="160" y="29" on="0"/>
        <pt x="141" y="70" on="1"/>
        <pt x="134" y="70" on="1"/>
        <pt x="112" y="0" on="1"/>
        <pt x="13" y="0" on="1"/>
        <pt x="140" y="723" on="1"/>
        <pt x="260" y="723" on="1"/>
        <pt x="215" y="465" on="1"/>
        <pt x="221" y="465" on="1"/>
        <pt x="278" y="538" on="0"/>
        <pt x="376" y="538" on="1"/>
        <pt x="458" y="538" on="0"/>
        <pt x="552" y="437" on="0"/>
        <pt x="552" y="337" on="1"/>
        <pt x="552" y="249" on="0"/>
        <pt x="496" y="89" on="0"/>
        <pt x="381" y="-12" on="0"/>
        <pt x="298" y="-12" on="1"/>
      </contour>
      <contour>
        <pt x="326" y="88" on="0"/>
        <pt x="397" y="162" on="0"/>
        <pt x="428" y="272" on="0"/>
        <pt x="428" y="330" on="1"/>
        <pt x="428" y="384" on="0"/>
        <pt x="381" y="435" on="0"/>
        <pt x="331" y="435" on="1"/>
        <pt x="277" y="435" on="0"/>
        <pt x="206" y="361" on="0"/>
        <pt x="173" y="253" on="0"/>
        <pt x="173" y="201" on="1"/>
        <pt x="173" y="88" on="0"/>
        <pt x="270" y="88" on="1"/>
      </contour>
    </TTGlyph>
    <TTGlyph name="backslash" xMin="73" yMin="-49" xMax="210" yMax="735">
      <contour>
        <pt x="73" y="735" on="1"/>
        <pt x="159" y="735" on="1"/>
        <pt x="210" y="-49" on="1"/>
        <pt x="122" y="-49" on="1"/>
      </contour>
    </TTGlyph>
    <TTGlyph name="bar" xMin="90" yMin="-173" xMax="183" yMax="723">
      <contour>
        <pt x="90" y="723" on="1"/>
        <pt x="183" y="723" on="1"/>
        <pt x="183" y="-173" on="1"/>
        <pt x="90" y="-173" on="1"/>
      </contour>
    </TTGlyph>
    <TTGlyph name="braceleft" xMin="19" yMin="-159" xMax="398" yMax="735">
      <contour>
        <pt x="151" y="-159" on="0"/>
        <pt x="63" y="-113" on="0"/>
        <pt x="63" y="-47" on="1"/>
        <pt x="63" y="-18" on="0"/>
        <pt x="87" y="104" on="1"/>
        <pt x="102" y="181" on="0"/>
        <pt x="102" y="193" on="1"/>
        <pt x="102" y="219" on="0"/>
        <pt x="54" y="243" on="0"/>
        <pt x="19" y="243" on="1"/>
        <pt x="36" y="333" on="1"/>
        <pt x="73" y="333" on="0"/>
        <pt x="131" y="362" on="0"/>
        <pt x="137" y="393" on="1"/>
        <pt x="172" y="587" on="1"/>
        <pt x="183" y="649" on="0"/>
        <pt x="237" y="712" on="0"/>
        <pt x="325" y="735" on="0"/>
        <pt x="398" y="735" on="1"/>
        <pt x="386" y="665" on="1"/>
        <pt x="347" y="665" on="0"/>
        <pt x="286" y="636" on="0"/>
        <pt x="279" y="600" on="1"/>
        <pt x="274" y="572" on="0"/>
        <pt x="252" y="475" on="1"/>
        <pt x="236" y="401" on="1"/>
        <pt x="224" y="344" on="0"/>
        <pt x="168" y="293" on="0"/>
        <pt x="103" y="293" on="1"/>
        <pt x="102" y="283" on="1"/>
        <pt x="154" y="283" on="0"/>
        <pt x="199" y="242" on="0"/>
        <pt x="199" y="201" on="1"/>
        <pt x="199" y="179" on="0"/>
        <pt x="180" y="54" on="1"/>
        <pt x="168" y="-34" on="0"/>
        <pt x="168" y="-37" on="1"/>
        <pt x="168" y="-89" on="0"/>
        <pt x="253" y="-89" on="1"/>
        <pt x="241" y="-159" on="1"/>
      </contour>
    </TTGlyph>
    <TTGlyph name="braceright" xMin="-49" yMin="-159" xMax="330" yMax="735">
      <contour>
        <pt x="-37" y="-89" on="1"/>
        <pt x="3" y="-89" on="0"/>
        <pt x="64" y="-60" on="0"/>
        <pt x="71" y="-24" on="1"/>
        <pt x="75" y="0" on="0"/>
        <pt x="99" y="108" on="1"/>
        <pt x="113" y="175" on="1"/>
        <pt x="122" y="214" on="0"/>
        <pt x="149" y="259" on="0"/>
        <pt x="201" y="283" on="0"/>
        <pt x="246" y="283" on="1"/>
        <pt x="248" y="293" on="1"/>
        <pt x="196" y="293" on="0"/>
        <pt x="150" y="335" on="0"/>
        <pt x="150" y="375" on="1"/>
        <pt x="150" y="397" on="0"/>
        <pt x="169" y="522" on="1"/>
        <pt x="182" y="604" on="0"/>
        <pt x="182" y="613" on="1"/>
        <pt x="182" y="665" on="0"/>
        <pt x="97" y="665" on="1"/>
        <pt x="108" y="735" on="1"/>
        <pt x="199" y="735" on="0"/>
        <pt x="287" y="689" on="0"/>
        <pt x="287" y="623" on="1"/>
        <pt x="287" y="594" on="0"/>
        <pt x="263" y="472" on="1"/>
        <pt x="247" y="399" on="0"/>
        <pt x="247" y="383" on="1"/>
        <pt x="247" y="357" on="0"/>
        <pt x="295" y="333" on="0"/>
        <pt x="330" y="333" on="1"/>
        <pt x="314" y="243" on="1"/>
        <pt x="276" y="243" on="0"/>
        <pt x="218" y="214" on="0"/>
        <pt x="212" y="183" on="1"/>
        <pt x="178" y="-11" on="1"/>
        <pt x="167" y="-72" on="0"/>
        <pt x="113" y="-136" on="0"/>
        <pt x="24" y="-159" on="0"/>
        <pt x="-49" y="-159" on="1"/>
      </contour>
    </TTGlyph>
    <TTGlyph name="bracketleft" xMin="-14" yMin="-161" xMax="348" yMax="735">
      <contour>
        <pt x="142" y="735" on="1"/>
        <pt x="348" y="735" on="1"/>
        <pt x="334" y="650" on="1"/>
        <pt x="231" y="650" on="1"/>
        <pt x="102" y="-76" on="1"/>
        <pt x="205" y="-76" on="1"/>
        <pt x="191" y="-161" on="1"/>
        <pt x="-14" y="-161" on="1"/>
      </contour>
    </TTGlyph>
    <TTGlyph name="bracketright" xMin="-54" yMin="-161" xMax="308" yMax="735">
      <contour>
        <pt x="-40" y="-76" on="1"/>
        <pt x="62" y="-76" on="1"/>
        <pt x="191" y="650" on="1"/>
        <pt x="88" y="650" on="1"/>
        <pt x="102" y="735" on="1"/>
        <pt x="308" y="735" on="1"/>
        <pt x="151" y="-161" on="1"/>
        <pt x="-54" y="-161" on="1"/>
      </contour>
    </TTGlyph>
    <TTGlyph name="breve" xMin="20" yMin="593" xMax="334" yMax="723">
      <contour>
        <pt x="88" y="593" on="0"/>
        <pt x="20" y="653" on="0"/>
        <pt x="20" y="699" on="1"/>
        <pt x="20" y="715" on="0"/>
        <pt x="22" y="723" on="1"/>
        <pt x="102" y="723" on="1"/>
        <pt x="102" y="702" on="0"/>
        <pt x="131" y="673" on="0"/>
        <pt x="167" y="673" on="1"/>
        <pt x="202" y="673" on="0"/>
        <pt x="248" y="704" on="0"/>
        <pt x="254" y="723" on="1"/>
        <pt x="334" y="723" on="1"/>
        <pt x="328" y="696" on="0"/>
        <pt x="299" y="645" on="0"/>
        <pt x="275" y="626" on="1"/>
        <pt x="230" y="593" on="0"/>
        <pt x="165" y="593" on="1"/>
      </contour>
    </TTGlyph>
    <TTGlyph name="brokenbar" xMin="90" yMin="-173" xMax="183" yMax="723">
      <contour>
        <pt x="90" y="723" on="1"/>
        <pt x="183" y="723" on="1"/>
        <pt x="183" y="357" on="1"/>
        <pt x="90" y="357" on="1"/>
      </contour>
      <contour>
        <pt x="90" y="193" on="1"/>
        <pt x="183" y="193" on="1"/>
        <pt x="183" y="-173" on="1"/>
        <pt x="90" y="-173" on="1"/>
      </contour>
    </TTGlyph>
    <TTGlyph name="bullet" xMin="43" yMin="212" xMax="307" yMax="475">
      <contour>
        <pt x="116" y="212" on="0"/>
        <pt x="43" y="284" on="0"/>
        <pt x="43" y="336" on="1"/>
        <pt x="43" y="373" on="0"/>
        <pt x="78" y="437" on="0"/>
        <pt x="142" y="475" on="0"/>
        <pt x="181" y="475" on="1"/>
        <pt x="234" y="475" on="0"/>
        <pt x="307" y="402" on="0"/>
        <pt x="307" y="350" on="1"/>
        <pt x="307" y="313" on="0"/>
        <pt x="271" y="249" on="0"/>
        <pt x="208" y="212" on="0"/>
        <pt x="169" y="212" on="1"/>
      </contour>
    </TTGlyph>
    <TTGlyph name="c" xMin="18" yMin="-12" xMax="506" yMax="538">
      <contour>
        <pt x="129" y="-12" on="0"/>
        <pt x="18" y="86" on="0"/>
        <pt x="18" y="189" on="1"/>
        <pt x="18" y="282" on="0"/>
        <pt x="75" y="440" on="0"/>
        <pt x="199" y="538" on="0"/>
        <pt x="294" y="538" on="1"/>
        <pt x="396" y="538" on="0"/>
        <pt x="506" y="452" on="0"/>
        <pt x="506" y="373" on="1"/>
        <pt x="506" y="352" on="0"/>
        <pt x="503" y="329" on="1"/>
        <pt x="381" y="329" on="1"/>
        <pt x="383" y="347" on="0"/>
        <pt x="383" y="356" on="1"/>
        <pt x="383" y="441" on="0"/>
        <pt x="297" y="441" on="1"/>
        <pt x="181" y="441" on="0"/>
        <pt x="150" y="276" on="1"/>
        <pt x="142" y="229" on="0"/>
        <pt x="142" y="197" on="1"/>
        <pt x="142" y="140" on="0"/>
        <pt x="190" y="85" on="0"/>
        <pt x="241" y="85" on="1"/>
        <pt x="293" y="85" on="0"/>
        <pt x="355" y="146" on="0"/>
        <pt x="364" y="197" on="1"/>
        <pt x="480" y="197" on="1"/>
        <pt x="464" y="97" on="0"/>
        <pt x="343" y="-12" on="0"/>
        <pt x="243" y="-12" on="1"/>
      </contour>
    </TTGlyph>
    <TTGlyph name="cacute" xMin="18" yMin="-12" xMax="506" yMax="723">
      <component glyphName=".ttfautohint" x="18" y="0" flags="0x0"/>
      <component glyphName="c" x="0" y="0" flags="0x0"/>
      <component glyphName="acute" x="202" y="0" flags="0x0"/>
    </TTGlyph>
    <TTGlyph name="cacute.loclPLK" xMin="18" yMin="-12" xMax="506" yMax="723">
      <component glyphName=".ttfautohint" x="18" y="0" flags="0x0"/>
      <component glyphName="c" x="0" y="0" flags="0x0"/>
      <component glyphName="acute.loclPLK" x="100" y="0" flags="0x0"/>
    </TTGlyph>
    <TTGlyph name="caron" xMin="18" yMin="588" xMax="337" yMax="723">
      <contour>
        <pt x="18" y="723" on="1"/>
        <pt x="117" y="723" on="1"/>
        <pt x="162" y="651" on="1"/>
        <pt x="227" y="723" on="1"/>
        <pt x="337" y="723" on="1"/>
        <pt x="208" y="588" on="1"/>
        <pt x="100" y="588" on="1"/>
      </contour>
    </TTGlyph>
    <TTGlyph name="ccaron" xMin="18" yMin="-12" xMax="506" yMax="723">
      <component glyphName=".ttfautohint" x="18" y="0" flags="0x0"/>
      <component glyphName="c" x="0" y="0" flags="0x0"/>
      <component glyphName="caron" x="159" y="0" flags="0x0"/>
    </TTGlyph>
    <TTGlyph name="ccedilla" xMin="18" yMin="-182" xMax="506" yMax="538">
      <contour>
        <pt x="381" y="329" on="1"/>
        <pt x="383" y="347" on="0"/>
        <pt x="383" y="356" on="1"/>
        <pt x="383" y="441" on="0"/>
        <pt x="297" y="441" on="1"/>
        <pt x="181" y="441" on="0"/>
        <pt x="150" y="276" on="1"/>
        <pt x="142" y="229" on="0"/>
        <pt x="142" y="197" on="1"/>
        <pt x="142" y="140" on="0"/>
        <pt x="190" y="85" on="0"/>
        <pt x="241" y="85" on="1"/>
        <pt x="293" y="85" on="0"/>
        <pt x="355" y="146" on="0"/>
        <pt x="364" y="197" on="1"/>
        <pt x="480" y="197" on="1"/>
        <pt x="465" y="100" on="0"/>
        <pt x="350" y="-9" on="0"/>
        <pt x="254" y="-12" on="1"/>
        <pt x="247" y="-34" on="1"/>
        <pt x="285" y="-36" on="0"/>
        <pt x="332" y="-67" on="0"/>
        <pt x="332" y="-97" on="1"/>
        <pt x="332" y="-144" on="0"/>
        <pt x="245" y="-182" on="0"/>
        <pt x="190" y="-182" on="1"/>
        <pt x="133" y="-182" on="0"/>
        <pt x="87" y="-174" on="1"/>
        <pt x="96" y="-125" on="1"/>
        <pt x="189" y="-125" on="1"/>
        <pt x="212" y="-125" on="0"/>
        <pt x="236" y="-112" on="0"/>
        <pt x="236" y="-96" on="1"/>
        <pt x="236" y="-86" on="0"/>
        <pt x="219" y="-77" on="0"/>
        <pt x="199" y="-77" on="1"/>
        <pt x="155" y="-77" on="1"/>
        <pt x="179" y="-7" on="1"/>
        <pt x="97" y="5" on="0"/>
        <pt x="18" y="102" on="0"/>
        <pt x="18" y="189" on="1"/>
        <pt x="18" y="282" on="0"/>
        <pt x="75" y="440" on="0"/>
        <pt x="199" y="538" on="0"/>
        <pt x="294" y="538" on="1"/>
        <pt x="396" y="538" on="0"/>
        <pt x="506" y="452" on="0"/>
        <pt x="506" y="373" on="1"/>
        <pt x="506" y="352" on="0"/>
        <pt x="503" y="329" on="1"/>
      </contour>
    </TTGlyph>
    <TTGlyph name="ccircumflex" xMin="18" yMin="-12" xMax="506" yMax="723">
      <component glyphName=".ttfautohint" x="18" y="0" flags="0x0"/>
      <component glyphName="c" x="0" y="0" flags="0x0"/>
      <component glyphName="circumflex" x="152" y="0" flags="0x0"/>
    </TTGlyph>
    <TTGlyph name="cdotaccent" xMin="18" yMin="-12" xMax="506" yMax="724">
      <component glyphName=".ttfautohint" x="18" y="0" flags="0x0"/>
      <component glyphName="c" x="0" y="0" flags="0x0"/>
      <component glyphName="dotaccent" x="159" y="0" flags="0x0"/>
    </TTGlyph>
    <TTGlyph name="cedilla" xMin="31" yMin="-182" xMax="276" yMax="11">
      <contour>
        <pt x="77" y="-182" on="0"/>
        <pt x="31" y="-174" on="1"/>
        <pt x="40" y="-125" on="1"/>
        <pt x="133" y="-125" on="1"/>
        <pt x="156" y="-125" on="0"/>
        <pt x="180" y="-112" on="0"/>
        <pt x="180" y="-96" on="1"/>
        <pt x="180" y="-86" on="0"/>
        <pt x="163" y="-77" on="0"/>
        <pt x="143" y="-77" on="1"/>
        <pt x="99" y="-77" on="1"/>
        <pt x="129" y="11" on="1"/>
        <pt x="206" y="11" on="1"/>
        <pt x="191" y="-34" on="1"/>
        <pt x="229" y="-36" on="0"/>
        <pt x="276" y="-67" on="0"/>
        <pt x="276" y="-97" on="1"/>
        <pt x="276" y="-144" on="0"/>
        <pt x="189" y="-182" on="0"/>
        <pt x="134" y="-182" on="1"/>
      </contour>
    </TTGlyph>
    <TTGlyph name="cent" xMin="40" yMin="-49" xMax="527" yMax="723">
      <contour>
        <pt x="212" y="70" on="1"/>
        <pt x="125" y="81" on="0"/>
        <pt x="40" y="178" on="0"/>
        <pt x="40" y="268" on="1"/>
        <pt x="40" y="359" on="0"/>
        <pt x="96" y="516" on="0"/>
        <pt x="217" y="615" on="0"/>
        <pt x="309" y="617" on="1"/>
        <pt x="328" y="723" on="1"/>
        <pt x="379" y="723" on="1"/>
        <pt x="360" y="614" on="1"/>
        <pt x="441" y="606" on="0"/>
        <pt x="527" y="522" on="0"/>
        <pt x="527" y="453" on="1"/>
        <pt x="527" y="432" on="0"/>
        <pt x="524" y="408" on="1"/>
        <pt x="403" y="408" on="1"/>
        <pt x="404" y="418" on="0"/>
        <pt x="404" y="435" on="1"/>
        <pt x="404" y="507" on="0"/>
        <pt x="342" y="518" on="1"/>
        <pt x="280" y="165" on="1"/>
        <pt x="324" y="171" on="0"/>
        <pt x="377" y="230" on="0"/>
        <pt x="385" y="276" on="1"/>
        <pt x="501" y="276" on="1"/>
        <pt x="485" y="177" on="0"/>
        <pt x="365" y="68" on="0"/>
        <pt x="263" y="67" on="1"/>
        <pt x="242" y="-49" on="1"/>
        <pt x="191" y="-49" on="1"/>
      </contour>
      <contour>
        <pt x="292" y="517" on="1"/>
        <pt x="197" y="501" on="0"/>
        <pt x="171" y="351" on="1"/>
        <pt x="163" y="307" on="0"/>
        <pt x="163" y="277" on="1"/>
        <pt x="163" y="229" on="0"/>
        <pt x="196" y="175" on="0"/>
        <pt x="230" y="167" on="1"/>
      </contour>
    </TTGlyph>
    <TTGlyph name="circumflex" xMin="-5" yMin="588" xMax="314" yMax="723">
      <contour>
        <pt x="124" y="723" on="1"/>
        <pt x="232" y="723" on="1"/>
        <pt x="314" y="588" on="1"/>
        <pt x="215" y="588" on="1"/>
        <pt x="171" y="660" on="1"/>
        <pt x="106" y="588" on="1"/>
        <pt x="-5" y="588" on="1"/>
      </contour>
    </TTGlyph>
    <TTGlyph name="colon" xMin="38" yMin="0" xMax="256" yMax="526">
      <contour>
        <pt x="131" y="526" on="1"/>
        <pt x="256" y="526" on="1"/>
        <pt x="234" y="399" on="1"/>
        <pt x="109" y="399" on="1"/>
      </contour>
      <contour>
        <pt x="60" y="127" on="1"/>
        <pt x="185" y="127" on="1"/>
        <pt x="163" y="0" on="1"/>
        <pt x="38" y="0" on="1"/>
      </contour>
    </TTGlyph>
    <TTGlyph name="comma" xMin="-4" yMin="-148" xMax="169" yMax="127">
      <contour>
        <pt x="71" y="0" on="1"/>
        <pt x="22" y="0" on="1"/>
        <pt x="45" y="127" on="1"/>
        <pt x="169" y="127" on="1"/>
        <pt x="149" y="11" on="1"/>
        <pt x="61" y="-148" on="1"/>
        <pt x="-4" y="-148" on="1"/>
      </contour>
    </TTGlyph>
    <TTGlyph name="copyright" xMin="13" yMin="-12" xMax="723" yMax="698">
      <contour>
        <pt x="272" y="-12" on="0"/>
        <pt x="109" y="84" on="0"/>
        <pt x="13" y="247" on="0"/>
        <pt x="13" y="343" on="1"/>
        <pt x="13" y="439" on="0"/>
        <pt x="109" y="602" on="0"/>
        <pt x="272" y="698" on="0"/>
        <pt x="368" y="698" on="1"/>
        <pt x="464" y="698" on="0"/>
        <pt x="627" y="602" on="0"/>
        <pt x="723" y="439" on="0"/>
        <pt x="723" y="343" on="1"/>
        <pt x="723" y="247" on="0"/>
        <pt x="627" y="84" on="0"/>
        <pt x="464" y="-12" on="0"/>
        <pt x="368" y="-12" on="1"/>
      </contour>
      <contour>
        <pt x="449" y="45" on="0"/>
        <pt x="585" y="125" on="0"/>
        <pt x="664" y="262" on="0"/>
        <pt x="664" y="343" on="1"/>
        <pt x="664" y="424" on="0"/>
        <pt x="585" y="561" on="0"/>
        <pt x="449" y="641" on="0"/>
        <pt x="368" y="641" on="1"/>
        <pt x="287" y="641" on="0"/>
        <pt x="151" y="561" on="0"/>
        <pt x="72" y="424" on="0"/>
        <pt x="72" y="343" on="1"/>
        <pt x="72" y="262" on="0"/>
        <pt x="151" y="125" on="0"/>
        <pt x="287" y="45" on="0"/>
        <pt x="368" y="45" on="1"/>
      </contour>
      <contour>
        <pt x="276" y="132" on="0"/>
        <pt x="190" y="234" on="0"/>
        <pt x="190" y="342" on="1"/>
        <pt x="190" y="450" on="0"/>
        <pt x="276" y="552" on="0"/>
        <pt x="368" y="552" on="1"/>
        <pt x="451" y="552" on="0"/>
        <pt x="527" y="470" on="0"/>
        <pt x="527" y="389" on="1"/>
        <pt x="453" y="389" on="1"/>
        <pt x="453" y="442" on="0"/>
        <pt x="415" y="490" on="0"/>
        <pt x="368" y="490" on="1"/>
        <pt x="314" y="490" on="0"/>
        <pt x="265" y="421" on="0"/>
        <pt x="265" y="342" on="1"/>
        <pt x="265" y="263" on="0"/>
        <pt x="313" y="194" on="0"/>
        <pt x="368" y="194" on="1"/>
        <pt x="415" y="194" on="0"/>
        <pt x="457" y="245" on="0"/>
        <pt x="457" y="295" on="1"/>
        <pt x="527" y="295" on="1"/>
        <pt x="527" y="224" on="0"/>
        <pt x="449" y="132" on="0"/>
        <pt x="368" y="132" on="1"/>
      </contour>
    </TTGlyph>
    <TTGlyph name="currency" xMin="28" yMin="99" xMax="528" yMax="603">
      <contour>
        <pt x="29" y="144" on="1"/>
        <pt x="83" y="200" on="1"/>
        <pt x="58" y="231" on="0"/>
        <pt x="33" y="309" on="0"/>
        <pt x="33" y="351" on="1"/>
        <pt x="33" y="394" on="0"/>
        <pt x="58" y="473" on="0"/>
        <pt x="83" y="501" on="1"/>
        <pt x="28" y="555" on="1"/>
        <pt x="76" y="603" on="1"/>
        <pt x="133" y="547" on="1"/>
        <pt x="161" y="571" on="0"/>
        <pt x="238" y="598" on="0"/>
        <pt x="278" y="598" on="1"/>
        <pt x="318" y="598" on="0"/>
        <pt x="395" y="571" on="0"/>
        <pt x="423" y="547" on="1"/>
        <pt x="480" y="603" on="1"/>
        <pt x="528" y="555" on="1"/>
        <pt x="473" y="501" on="1"/>
        <pt x="498" y="473" on="0"/>
        <pt x="523" y="394" on="0"/>
        <pt x="523" y="351" on="1"/>
        <pt x="523" y="309" on="0"/>
        <pt x="498" y="231" on="0"/>
        <pt x="473" y="200" on="1"/>
        <pt x="527" y="144" on="1"/>
        <pt x="482" y="99" on="1"/>
        <pt x="427" y="157" on="1"/>
        <pt x="398" y="130" on="0"/>
        <pt x="320" y="102" on="0"/>
        <pt x="278" y="102" on="1"/>
        <pt x="236" y="102" on="0"/>
        <pt x="158" y="130" on="0"/>
        <pt x="129" y="157" on="1"/>
        <pt x="74" y="99" on="1"/>
      </contour>
      <contour>
        <pt x="322" y="181" on="0"/>
        <pt x="397" y="228" on="0"/>
        <pt x="441" y="306" on="0"/>
        <pt x="441" y="351" on="1"/>
        <pt x="441" y="395" on="0"/>
        <pt x="397" y="472" on="0"/>
        <pt x="322" y="519" on="0"/>
        <pt x="278" y="519" on="1"/>
        <pt x="234" y="519" on="0"/>
        <pt x="159" y="472" on="0"/>
        <pt x="115" y="395" on="0"/>
        <pt x="115" y="351" on="1"/>
        <pt x="115" y="306" on="0"/>
        <pt x="159" y="228" on="0"/>
        <pt x="234" y="181" on="0"/>
        <pt x="278" y="181" on="1"/>
      </contour>
    </TTGlyph>
    <TTGlyph name="d" xMin="19" yMin="-12" xMax="593" yMax="723">
      <contour>
        <pt x="115" y="-12" on="0"/>
        <pt x="19" y="90" on="0"/>
        <pt x="19" y="196" on="1"/>
        <pt x="19" y="281" on="0"/>
        <pt x="76" y="439" on="0"/>
        <pt x="188" y="538" on="0"/>
        <pt x="266" y="538" on="1"/>
        <pt x="323" y="538" on="0"/>
        <pt x="398" y="501" on="0"/>
        <pt x="422" y="465" on="1"/>
        <pt x="428" y="465" on="1"/>
        <pt x="473" y="723" on="1"/>
        <pt x="593" y="723" on="1"/>
        <pt x="466" y="0" on="1"/>
        <pt x="369" y="0" on="1"/>
        <pt x="369" y="70" on="1"/>
        <pt x="363" y="70" on="1"/>
        <pt x="333" y="31" on="0"/>
        <pt x="251" y="-12" on="0"/>
        <pt x="205" y="-12" on="1"/>
      </contour>
      <contour>
        <pt x="295" y="91" on="0"/>
        <pt x="366" y="161" on="0"/>
        <pt x="399" y="270" on="0"/>
        <pt x="399" y="329" on="1"/>
        <pt x="399" y="438" on="0"/>
        <pt x="299" y="438" on="1"/>
        <pt x="217" y="438" on="0"/>
        <pt x="144" y="293" on="0"/>
        <pt x="144" y="200" on="1"/>
        <pt x="144" y="144" on="0"/>
        <pt x="191" y="91" on="0"/>
        <pt x="241" y="91" on="1"/>
      </contour>
    </TTGlyph>
    <TTGlyph name="dagger" xMin="58" yMin="-172" xMax="555" yMax="686">
      <contour>
        <pt x="265" y="427" on="1"/>
        <pt x="58" y="409" on="1"/>
        <pt x="77" y="515" on="1"/>
        <pt x="278" y="498" on="1"/>
        <pt x="295" y="686" on="1"/>
        <pt x="396" y="686" on="1"/>
        <pt x="347" y="498" on="1"/>
        <pt x="555" y="515" on="1"/>
        <pt x="536" y="409" on="1"/>
        <pt x="334" y="427" on="1"/>
        <pt x="248" y="-172" on="1"/>
        <pt x="141" y="-172" on="1"/>
      </contour>
    </TTGlyph>
    <TTGlyph name="daggerdbl" xMin="-14" yMin="-172" xMax="553" yMax="686">
      <contour>
        <pt x="192" y="18" on="1"/>
        <pt x="-14" y="1" on="1"/>
        <pt x="3" y="107" on="1"/>
        <pt x="204" y="89" on="1"/>
        <pt x="215" y="260" on="1"/>
        <pt x="263" y="427" on="1"/>
        <pt x="57" y="409" on="1"/>
        <pt x="75" y="515" on="1"/>
        <pt x="276" y="498" on="1"/>
        <pt x="294" y="686" on="1"/>
        <pt x="395" y="686" on="1"/>
        <pt x="346" y="498" on="1"/>
        <pt x="553" y="515" on="1"/>
        <pt x="534" y="409" on="1"/>
        <pt x="333" y="427" on="1"/>
        <pt x="322" y="260" on="1"/>
        <pt x="273" y="89" on="1"/>
        <pt x="481" y="107" on="1"/>
        <pt x="462" y="1" on="1"/>
        <pt x="261" y="18" on="1"/>
        <pt x="243" y="-172" on="1"/>
        <pt x="142" y="-172" on="1"/>
      </contour>
    </TTGlyph>
    <TTGlyph name="dcaron" xMin="19" yMin="-12" xMax="764" yMax="723">
      <contour>
        <pt x="115" y="-12" on="0"/>
        <pt x="19" y="90" on="0"/>
        <pt x="19" y="196" on="1"/>
        <pt x="19" y="281" on="0"/>
        <pt x="76" y="439" on="0"/>
        <pt x="188" y="538" on="0"/>
        <pt x="266" y="538" on="1"/>
        <pt x="323" y="538" on="0"/>
        <pt x="398" y="501" on="0"/>
        <pt x="422" y="465" on="1"/>
        <pt x="428" y="465" on="1"/>
        <pt x="473" y="723" on="1"/>
        <pt x="593" y="723" on="1"/>
        <pt x="466" y="0" on="1"/>
        <pt x="369" y="0" on="1"/>
        <pt x="369" y="70" on="1"/>
        <pt x="363" y="70" on="1"/>
        <pt x="333" y="31" on="0"/>
        <pt x="251" y="-12" on="0"/>
        <pt x="205" y="-12" on="1"/>
      </contour>
      <contour>
        <pt x="672" y="571" on="1"/>
        <pt x="625" y="571" on="1"/>
        <pt x="644" y="686" on="1"/>
        <pt x="764" y="686" on="1"/>
        <pt x="746" y="582" on="1"/>
        <pt x="667" y="459" on="1"/>
        <pt x="604" y="459" on="1"/>
      </contour>
      <contour>
        <pt x="295" y="91" on="0"/>
        <pt x="366" y="161" on="0"/>
        <pt x="399" y="270" on="0"/>
        <pt x="399" y="329" on="1"/>
        <pt x="399" y="438" on="0"/>
        <pt x="299" y="438" on="1"/>
        <pt x="217" y="438" on="0"/>
        <pt x="144" y="293" on="0"/>
        <pt x="144" y="200" on="1"/>
        <pt x="144" y="144" on="0"/>
        <pt x="191" y="91" on="0"/>
        <pt x="241" y="91" on="1"/>
      </contour>
    </TTGlyph>
    <TTGlyph name="dcroat" xMin="19" yMin="-12" xMax="644" yMax="723">
      <contour>
        <pt x="115" y="-12" on="0"/>
        <pt x="19" y="90" on="0"/>
        <pt x="19" y="196" on="1"/>
        <pt x="19" y="281" on="0"/>
        <pt x="76" y="439" on="0"/>
        <pt x="188" y="538" on="0"/>
        <pt x="266" y="538" on="1"/>
        <pt x="323" y="538" on="0"/>
        <pt x="398" y="501" on="0"/>
        <pt x="422" y="465" on="1"/>
        <pt x="428" y="465" on="1"/>
        <pt x="450" y="590" on="1"/>
        <pt x="302" y="590" on="1"/>
        <pt x="314" y="658" on="1"/>
        <pt x="462" y="658" on="1"/>
        <pt x="473" y="723" on="1"/>
        <pt x="593" y="723" on="1"/>
        <pt x="581" y="658" on="1"/>
        <pt x="644" y="658" on="1"/>
        <pt x="632" y="590" on="1"/>
        <pt x="570" y="590" on="1"/>
        <pt x="466" y="0" on="1"/>
        <pt x="369" y="0" on="1"/>
        <pt x="369" y="70" on="1"/>
        <pt x="363" y="70" on="1"/>
        <pt x="333" y="31" on="0"/>
        <pt x="251" y="-12" on="0"/>
        <pt x="205" y="-12" on="1"/>
      </contour>
      <contour>
        <pt x="295" y="91" on="0"/>
        <pt x="366" y="161" on="0"/>
        <pt x="399" y="270" on="0"/>
        <pt x="399" y="329" on="1"/>
        <pt x="399" y="438" on="0"/>
        <pt x="299" y="438" on="1"/>
        <pt x="217" y="438" on="0"/>
        <pt x="144" y="293" on="0"/>
        <pt x="144" y="200" on="1"/>
        <pt x="144" y="144" on="0"/>
        <pt x="191" y="91" on="0"/>
        <pt x="241" y="91" on="1"/>
      </contour>
    </TTGlyph>
    <TTGlyph name="degree" xMin="60" yMin="401" xMax="357" yMax="698">
      <contour>
        <pt x="168" y="401" on="0"/>
        <pt x="100" y="440" on="0"/>
        <pt x="60" y="508" on="0"/>
        <pt x="60" y="549" on="1"/>
        <pt x="60" y="590" on="0"/>
        <pt x="100" y="658" on="0"/>
        <pt x="168" y="698" on="0"/>
        <pt x="209" y="698" on="1"/>
        <pt x="250" y="698" on="0"/>
        <pt x="318" y="658" on="0"/>
        <pt x="357" y="590" on="0"/>
        <pt x="357" y="549" on="1"/>
        <pt x="357" y="508" on="0"/>
        <pt x="318" y="440" on="0"/>
        <pt x="250" y="401" on="0"/>
        <pt x="209" y="401" on="1"/>
      </contour>
      <contour>
        <pt x="240" y="473" on="0"/>
        <pt x="284" y="517" on="0"/>
        <pt x="284" y="549" on="1"/>
        <pt x="284" y="581" on="0"/>
        <pt x="241" y="625" on="0"/>
        <pt x="209" y="625" on="1"/>
        <pt x="177" y="625" on="0"/>
        <pt x="132" y="581" on="0"/>
        <pt x="132" y="549" on="1"/>
        <pt x="132" y="517" on="0"/>
        <pt x="177" y="473" on="0"/>
        <pt x="209" y="473" on="1"/>
      </contour>
    </TTGlyph>
    <TTGlyph name="dieresis" xMin="2" yMin="613" xMax="331" yMax="723">
      <contour>
        <pt x="21" y="723" on="1"/>
        <pt x="128" y="723" on="1"/>
        <pt x="109" y="613" on="1"/>
        <pt x="2" y="613" on="1"/>
      </contour>
      <contour>
        <pt x="223" y="723" on="1"/>
        <pt x="331" y="723" on="1"/>
        <pt x="311" y="613" on="1"/>
        <pt x="203" y="613" on="1"/>
      </contour>
    </TTGlyph>
    <TTGlyph name="divide" xMin="22" yMin="1" xMax="511" yMax="512">
      <contour>
        <pt x="255" y="512" on="1"/>
        <pt x="368" y="512" on="1"/>
        <pt x="348" y="405" on="1"/>
        <pt x="235" y="405" on="1"/>
      </contour>
      <contour>
        <pt x="39" y="304" on="1"/>
        <pt x="511" y="304" on="1"/>
        <pt x="494" y="207" on="1"/>
        <pt x="22" y="207" on="1"/>
      </contour>
      <contour>
        <pt x="183" y="107" on="1"/>
        <pt x="296" y="107" on="1"/>
        <pt x="277" y="1" on="1"/>
        <pt x="164" y="1" on="1"/>
      </contour>
    </TTGlyph>
    <TTGlyph name="dollar" xMin="26" yMin="-49" xMax="519" yMax="723">
      <contour>
        <pt x="206" y="68" on="1"/>
        <pt x="117" y="75" on="0"/>
        <pt x="26" y="148" on="0"/>
        <pt x="26" y="204" on="1"/>
        <pt x="26" y="226" on="0"/>
        <pt x="33" y="245" on="1"/>
        <pt x="150" y="245" on="1"/>
        <pt x="146" y="237" on="0"/>
        <pt x="146" y="226" on="1"/>
        <pt x="146" y="198" on="0"/>
        <pt x="188" y="167" on="0"/>
        <pt x="222" y="163" on="1"/>
        <pt x="247" y="301" on="1"/>
        <pt x="194" y="315" on="0"/>
        <pt x="126" y="343" on="0"/>
        <pt x="78" y="397" on="0"/>
        <pt x="78" y="440" on="1"/>
        <pt x="78" y="521" on="0"/>
        <pt x="205" y="615" on="0"/>
        <pt x="303" y="617" on="1"/>
        <pt x="322" y="723" on="1"/>
        <pt x="373" y="723" on="1"/>
        <pt x="354" y="615" on="1"/>
        <pt x="430" y="607" on="0"/>
        <pt x="519" y="543" on="0"/>
        <pt x="519" y="495" on="1"/>
        <pt x="519" y="482" on="0"/>
        <pt x="514" y="457" on="0"/>
        <pt x="512" y="452" on="1"/>
        <pt x="395" y="452" on="1"/>
        <pt x="397" y="457" on="0"/>
        <pt x="397" y="467" on="1"/>
        <pt x="397" y="488" on="0"/>
        <pt x="366" y="516" on="0"/>
        <pt x="337" y="520" on="1"/>
        <pt x="315" y="399" on="1"/>
        <pt x="370" y="385" on="0"/>
        <pt x="441" y="357" on="0"/>
        <pt x="492" y="301" on="0"/>
        <pt x="492" y="256" on="1"/>
        <pt x="492" y="160" on="0"/>
        <pt x="358" y="68" on="0"/>
        <pt x="256" y="67" on="1"/>
        <pt x="236" y="-49" on="1"/>
        <pt x="185" y="-49" on="1"/>
      </contour>
      <contour>
        <pt x="286" y="521" on="1"/>
        <pt x="245" y="517" on="0"/>
        <pt x="203" y="485" on="0"/>
        <pt x="203" y="464" on="1"/>
        <pt x="203" y="445" on="0"/>
        <pt x="236" y="421" on="0"/>
        <pt x="267" y="412" on="1"/>
      </contour>
      <contour>
        <pt x="314" y="166" on="0"/>
        <pt x="367" y="198" on="0"/>
        <pt x="367" y="227" on="1"/>
        <pt x="367" y="249" on="0"/>
        <pt x="329" y="277" on="0"/>
        <pt x="295" y="288" on="1"/>
        <pt x="273" y="162" on="1"/>
      </contour>
    </TTGlyph>
    <TTGlyph name="dotaccent" xMin="97" yMin="606" xMax="236" yMax="724">
      <contour>
        <pt x="118" y="724" on="1"/>
        <pt x="236" y="724" on="1"/>
        <pt x="215" y="606" on="1"/>
        <pt x="97" y="606" on="1"/>
      </contour>
    </TTGlyph>
    <TTGlyph name="dotbelowcomb" xMin="-312" yMin="-173" xMax="-173" yMax="-55">
      <contour>
        <pt x="-291" y="-55" on="1"/>
        <pt x="-173" y="-55" on="1"/>
        <pt x="-194" y="-173" on="1"/>
        <pt x="-312" y="-173" on="1"/>
      </contour>
    </TTGlyph>
    <TTGlyph name="dotlessi" xMin="21" yMin="0" xMax="234" yMax="526">
      <contour>
        <pt x="114" y="526" on="1"/>
        <pt x="234" y="526" on="1"/>
        <pt x="141" y="0" on="1"/>
        <pt x="21" y="0" on="1"/>
      </contour>
    </TTGlyph>
    <TTGlyph name="e" xMin="18" yMin="-12" xMax="516" yMax="538">
      <contour>
        <pt x="135" y="-12" on="0"/>
        <pt x="18" y="87" on="0"/>
        <pt x="18" y="190" on="1"/>
        <pt x="18" y="284" on="0"/>
        <pt x="77" y="442" on="0"/>
        <pt x="204" y="538" on="0"/>
        <pt x="302" y="538" on="1"/>
        <pt x="516" y="538" on="0"/>
        <pt x="516" y="347" on="1"/>
        <pt x="516" y="307" on="0"/>
        <pt x="508" y="270" on="1"/>
        <pt x="502" y="234" on="1"/>
        <pt x="143" y="234" on="1"/>
        <pt x="140" y="218" on="0"/>
        <pt x="140" y="191" on="1"/>
        <pt x="140" y="136" on="0"/>
        <pt x="193" y="83" on="0"/>
        <pt x="250" y="83" on="1"/>
        <pt x="301" y="83" on="0"/>
        <pt x="366" y="133" on="0"/>
        <pt x="375" y="184" on="1"/>
        <pt x="493" y="184" on="1"/>
        <pt x="478" y="87" on="0"/>
        <pt x="349" y="-12" on="0"/>
        <pt x="254" y="-12" on="1"/>
      </contour>
      <contour>
        <pt x="393" y="319" on="1"/>
        <pt x="396" y="337" on="0"/>
        <pt x="396" y="354" on="1"/>
        <pt x="396" y="400" on="0"/>
        <pt x="348" y="443" on="0"/>
        <pt x="305" y="443" on="1"/>
        <pt x="194" y="443" on="0"/>
        <pt x="160" y="319" on="1"/>
      </contour>
    </TTGlyph>
    <TTGlyph name="eacute" xMin="18" yMin="-12" xMax="516" yMax="723">
      <component glyphName=".ttfautohint" x="18" y="0" flags="0x0"/>
      <component glyphName="e" x="0" y="0" flags="0x0"/>
      <component glyphName="acute" x="207" y="0" flags="0x0"/>
    </TTGlyph>
    <TTGlyph name="ebreve" xMin="18" yMin="-12" xMax="516" yMax="723">
      <component glyphName=".ttfautohint" x="18" y="0" flags="0x0"/>
      <component glyphName="e" x="0" y="0" flags="0x0"/>
      <component glyphName="breve" x="153" y="0" flags="0x0"/>
    </TTGlyph>
    <TTGlyph name="ecaron" xMin="18" yMin="-12" xMax="516" yMax="723">
      <component glyphName=".ttfautohint" x="18" y="0" flags="0x0"/>
      <component glyphName="e" x="0" y="0" flags="0x0"/>
      <component glyphName="caron" x="164" y="0" flags="0x0"/>
    </TTGlyph>
    <TTGlyph name="ecircumflex" xMin="18" yMin="-12" xMax="516" yMax="723">
      <component glyphName=".ttfautohint" x="18" y="0" flags="0x0"/>
      <component glyphName="e" x="0" y="0" flags="0x0"/>
      <component glyphName="circumflex" x="157" y="0" flags="0x0"/>
    </TTGlyph>
    <TTGlyph name="edieresis" xMin="18" yMin="-12" xMax="516" yMax="723">
      <component glyphName=".ttfautohint" x="18" y="0" flags="0x0"/>
      <component glyphName="e" x="0" y="0" flags="0x0"/>
      <component glyphName="dieresis" x="166" y="0" flags="0x0"/>
    </TTGlyph>
    <TTGlyph name="edotaccent" xMin="18" yMin="-12" xMax="516" yMax="724">
      <component glyphName=".ttfautohint" x="18" y="0" flags="0x0"/>
      <component glyphName="e" x="0" y="0" flags="0x0"/>
      <component glyphName="dotaccent" x="164" y="0" flags="0x0"/>
    </TTGlyph>
    <TTGlyph name="egrave" xMin="18" yMin="-12" xMax="516" yMax="723">
      <component glyphName=".ttfautohint" x="18" y="0" flags="0x0"/>
      <component glyphName="e" x="0" y="0" flags="0x0"/>
      <component glyphName="grave" x="102" y="0" flags="0x0"/>
    </TTGlyph>
    <TTGlyph name="eight" xMin="5" yMin="-12" xMax="536" yMax="698">
      <contour>
        <pt x="117" y="-12" on="0"/>
        <pt x="5" y="76" on="0"/>
        <pt x="5" y="150" on="1"/>
        <pt x="5" y="220" on="0"/>
        <pt x="78" y="325" on="0"/>
        <pt x="148" y="352" on="1"/>
        <pt x="114" y="372" on="0"/>
        <pt x="79" y="436" on="0"/>
        <pt x="79" y="476" on="1"/>
        <pt x="79" y="535" on="0"/>
        <pt x="141" y="637" on="0"/>
        <pt x="254" y="698" on="0"/>
        <pt x="328" y="698" on="1"/>
        <pt x="430" y="698" on="0"/>
        <pt x="536" y="607" on="0"/>
        <pt x="536" y="534" on="1"/>
        <pt x="536" y="476" on="0"/>
        <pt x="472" y="379" on="0"/>
        <pt x="412" y="352" on="1"/>
        <pt x="498" y="312" on="0"/>
        <pt x="498" y="217" on="1"/>
        <pt x="498" y="154" on="0"/>
        <pt x="438" y="50" on="0"/>
        <pt x="319" y="-12" on="0"/>
        <pt x="233" y="-12" on="1"/>
      </contour>
      <contour>
        <pt x="342" y="399" on="0"/>
        <pt x="413" y="465" on="0"/>
        <pt x="413" y="524" on="1"/>
        <pt x="413" y="561" on="0"/>
        <pt x="367" y="601" on="0"/>
        <pt x="324" y="601" on="1"/>
        <pt x="269" y="601" on="0"/>
        <pt x="200" y="533" on="0"/>
        <pt x="200" y="475" on="1"/>
        <pt x="200" y="438" on="0"/>
        <pt x="245" y="399" on="0"/>
        <pt x="288" y="399" on="1"/>
      </contour>
      <contour>
        <pt x="292" y="85" on="0"/>
        <pt x="374" y="156" on="0"/>
        <pt x="374" y="218" on="1"/>
        <pt x="374" y="259" on="0"/>
        <pt x="322" y="302" on="0"/>
        <pt x="271" y="302" on="1"/>
        <pt x="208" y="302" on="0"/>
        <pt x="131" y="230" on="0"/>
        <pt x="131" y="168" on="1"/>
        <pt x="131" y="129" on="0"/>
        <pt x="183" y="85" on="0"/>
        <pt x="233" y="85" on="1"/>
      </contour>
    </TTGlyph>
    <TTGlyph name="ellipsis" xMin="54" yMin="0" xMax="868" yMax="127">
      <contour>
        <pt x="78" y="127" on="1"/>
        <pt x="202" y="127" on="1"/>
        <pt x="179" y="0" on="1"/>
        <pt x="54" y="0" on="1"/>
      </contour>
      <contour>
        <pt x="411" y="127" on="1"/>
        <pt x="535" y="127" on="1"/>
        <pt x="512" y="0" on="1"/>
        <pt x="387" y="0" on="1"/>
      </contour>
      <contour>
        <pt x="743" y="127" on="1"/>
        <pt x="868" y="127" on="1"/>
        <pt x="845" y="0" on="1"/>
        <pt x="720" y="0" on="1"/>
      </contour>
    </TTGlyph>
    <TTGlyph name="emacron" xMin="18" yMin="-12" xMax="516" yMax="699">
      <component glyphName=".ttfautohint" x="18" y="0" flags="0x0"/>
      <component glyphName="e" x="0" y="0" flags="0x0"/>
      <component glyphName="macron" x="168" y="0" flags="0x0"/>
    </TTGlyph>
    <TTGlyph name="emdash" xMin="-12" yMin="225" xMax="1003" yMax="315">
      <contour>
        <pt x="3" y="315" on="1"/>
        <pt x="1003" y="315" on="1"/>
        <pt x="987" y="225" on="1"/>
        <pt x="-12" y="225" on="1"/>
      </contour>
    </TTGlyph>
    <TTGlyph name="endash" xMin="-12" yMin="225" xMax="559" yMax="315">
      <contour>
        <pt x="3" y="315" on="1"/>
        <pt x="559" y="315" on="1"/>
        <pt x="543" y="225" on="1"/>
        <pt x="-12" y="225" on="1"/>
      </contour>
    </TTGlyph>
    <TTGlyph name="eng" xMin="16" yMin="-182" xMax="538" yMax="538">
      <contour>
        <pt x="296" y="-182" on="0"/>
        <pt x="244" y="-173" on="0"/>
        <pt x="229" y="-167" on="1"/>
        <pt x="243" y="-85" on="1"/>
        <pt x="292" y="-85" on="1"/>
        <pt x="336" y="-85" on="0"/>
        <pt x="344" y="-40" on="1"/>
        <pt x="407" y="318" on="1"/>
        <pt x="413" y="354" on="0"/>
        <pt x="413" y="367" on="1"/>
        <pt x="413" y="403" on="0"/>
        <pt x="376" y="434" on="0"/>
        <pt x="342" y="434" on="1"/>
        <pt x="285" y="434" on="0"/>
        <pt x="198" y="354" on="0"/>
        <pt x="186" y="283" on="1"/>
        <pt x="136" y="0" on="1"/>
        <pt x="16" y="0" on="1"/>
        <pt x="109" y="526" on="1"/>
        <pt x="206" y="526" on="1"/>
        <pt x="206" y="455" on="1"/>
        <pt x="213" y="455" on="1"/>
        <pt x="243" y="491" on="0"/>
        <pt x="336" y="538" on="0"/>
        <pt x="386" y="538" on="1"/>
        <pt x="455" y="538" on="0"/>
        <pt x="538" y="473" on="0"/>
        <pt x="538" y="404" on="1"/>
        <pt x="538" y="377" on="0"/>
        <pt x="529" y="325" on="1"/>
        <pt x="463" y="-48" on="1"/>
        <pt x="439" y="-182" on="0"/>
        <pt x="319" y="-182" on="1"/>
      </contour>
    </TTGlyph>
    <TTGlyph name="eogonek" xMin="18" yMin="-182" xMax="516" yMax="538">
      <contour>
        <pt x="321" y="-182" on="0"/>
        <pt x="269" y="-144" on="0"/>
        <pt x="269" y="-102" on="1"/>
        <pt x="269" y="-53" on="0"/>
        <pt x="310" y="-7" on="1"/>
        <pt x="286" y="-12" on="0"/>
        <pt x="254" y="-12" on="1"/>
        <pt x="135" y="-12" on="0"/>
        <pt x="18" y="87" on="0"/>
        <pt x="18" y="190" on="1"/>
        <pt x="18" y="284" on="0"/>
        <pt x="77" y="442" on="0"/>
        <pt x="204" y="538" on="0"/>
        <pt x="302" y="538" on="1"/>
        <pt x="516" y="538" on="0"/>
        <pt x="516" y="347" on="1"/>
        <pt x="516" y="315" on="0"/>
        <pt x="508" y="270" on="1"/>
        <pt x="502" y="234" on="1"/>
        <pt x="143" y="234" on="1"/>
        <pt x="140" y="218" on="0"/>
        <pt x="140" y="191" on="1"/>
        <pt x="140" y="136" on="0"/>
        <pt x="193" y="83" on="0"/>
        <pt x="250" y="83" on="1"/>
        <pt x="301" y="83" on="0"/>
        <pt x="366" y="133" on="0"/>
        <pt x="375" y="184" on="1"/>
        <pt x="493" y="184" on="1"/>
        <pt x="486" y="141" on="0"/>
        <pt x="454" y="77" on="0"/>
        <pt x="428" y="51" on="1"/>
        <pt x="372" y="-5" on="0"/>
        <pt x="372" y="-67" on="1"/>
        <pt x="372" y="-86" on="0"/>
        <pt x="398" y="-114" on="0"/>
        <pt x="419" y="-114" on="1"/>
        <pt x="440" y="-114" on="1"/>
        <pt x="431" y="-168" on="1"/>
        <pt x="391" y="-182" on="0"/>
        <pt x="360" y="-182" on="1"/>
      </contour>
      <contour>
        <pt x="393" y="319" on="1"/>
        <pt x="396" y="337" on="0"/>
        <pt x="396" y="354" on="1"/>
        <pt x="396" y="400" on="0"/>
        <pt x="348" y="443" on="0"/>
        <pt x="305" y="443" on="1"/>
        <pt x="194" y="443" on="0"/>
        <pt x="160" y="319" on="1"/>
      </contour>
    </TTGlyph>
    <TTGlyph name="equal" xMin="24" yMin="99" xMax="550" yMax="409">
      <contour>
        <pt x="78" y="409" on="1"/>
        <pt x="550" y="409" on="1"/>
        <pt x="533" y="311" on="1"/>
        <pt x="61" y="311" on="1"/>
      </contour>
      <contour>
        <pt x="41" y="196" on="1"/>
        <pt x="513" y="196" on="1"/>
        <pt x="496" y="99" on="1"/>
        <pt x="24" y="99" on="1"/>
      </contour>
    </TTGlyph>
    <TTGlyph name="equivalence" xMin="3" yMin="14" xMax="568" yMax="536">
      <contour>
        <pt x="95" y="536" on="1"/>
        <pt x="568" y="536" on="1"/>
        <pt x="551" y="439" on="1"/>
        <pt x="78" y="439" on="1"/>
      </contour>
      <contour>
        <pt x="58" y="323" on="1"/>
        <pt x="531" y="323" on="1"/>
        <pt x="513" y="226" on="1"/>
        <pt x="40" y="226" on="1"/>
      </contour>
      <contour>
        <pt x="20" y="110" on="1"/>
        <pt x="493" y="110" on="1"/>
        <pt x="476" y="14" on="1"/>
        <pt x="3" y="14" on="1"/>
      </contour>
    </TTGlyph>
    <TTGlyph name="estimated" xMin="45" yMin="-12" xMax="559" yMax="538">
      <contour>
        <pt x="224" y="-12" on="0"/>
        <pt x="107" y="59" on="0"/>
        <pt x="45" y="183" on="0"/>
        <pt x="45" y="263" on="1"/>
        <pt x="45" y="343" on="0"/>
        <pt x="107" y="467" on="0"/>
        <pt x="224" y="538" on="0"/>
        <pt x="302" y="538" on="1"/>
        <pt x="380" y="538" on="0"/>
        <pt x="496" y="465" on="0"/>
        <pt x="559" y="335" on="0"/>
        <pt x="559" y="253" on="1"/>
        <pt x="559" y="248" on="1"/>
        <pt x="153" y="248" on="1"/>
        <pt x="153" y="83" on="1"/>
        <pt x="211" y="30" on="0"/>
        <pt x="302" y="30" on="1"/>
        <pt x="367" y="30" on="0"/>
        <pt x="466" y="88" on="0"/>
        <pt x="492" y="139" on="1"/>
        <pt x="526" y="118" on="1"/>
        <pt x="494" y="57" on="0"/>
        <pt x="379" y="-12" on="0"/>
        <pt x="302" y="-12" on="1"/>
      </contour>
      <contour>
        <pt x="451" y="290" on="1"/>
        <pt x="451" y="441" on="1"/>
        <pt x="391" y="496" on="0"/>
        <pt x="302" y="496" on="1"/>
        <pt x="212" y="496" on="0"/>
        <pt x="153" y="442" on="1"/>
        <pt x="153" y="290" on="1"/>
      </contour>
    </TTGlyph>
    <TTGlyph name="eth" xMin="19" yMin="-12" xMax="578" yMax="723">
      <contour>
        <pt x="137" y="-12" on="0"/>
        <pt x="19" y="87" on="0"/>
        <pt x="19" y="190" on="1"/>
        <pt x="19" y="274" on="0"/>
        <pt x="65" y="415" on="0"/>
        <pt x="109" y="461" on="1"/>
        <pt x="141" y="495" on="0"/>
        <pt x="228" y="531" on="0"/>
        <pt x="279" y="531" on="1"/>
        <pt x="335" y="531" on="0"/>
        <pt x="376" y="515" on="1"/>
        <pt x="380" y="518" on="1"/>
        <pt x="365" y="554" on="0"/>
        <pt x="331" y="601" on="1"/>
        <pt x="168" y="589" on="1"/>
        <pt x="179" y="657" on="1"/>
        <pt x="281" y="665" on="1"/>
        <pt x="276" y="671" on="0"/>
        <pt x="244" y="700" on="1"/>
        <pt x="225" y="718" on="1"/>
        <pt x="229" y="723" on="1"/>
        <pt x="365" y="723" on="1"/>
        <pt x="399" y="691" on="0"/>
        <pt x="412" y="674" on="1"/>
        <pt x="578" y="686" on="1"/>
        <pt x="565" y="617" on="1"/>
        <pt x="465" y="611" on="1"/>
        <pt x="506" y="552" on="0"/>
        <pt x="551" y="417" on="0"/>
        <pt x="551" y="345" on="1"/>
        <pt x="551" y="186" on="0"/>
        <pt x="411" y="-12" on="0"/>
        <pt x="256" y="-12" on="1"/>
      </contour>
      <contour>
        <pt x="326" y="86" on="0"/>
        <pt x="403" y="168" on="0"/>
        <pt x="417" y="245" on="1"/>
        <pt x="425" y="289" on="0"/>
        <pt x="425" y="322" on="1"/>
        <pt x="425" y="379" on="0"/>
        <pt x="370" y="433" on="0"/>
        <pt x="311" y="433" on="1"/>
        <pt x="241" y="433" on="0"/>
        <pt x="165" y="350" on="0"/>
        <pt x="152" y="273" on="1"/>
        <pt x="144" y="229" on="0"/>
        <pt x="144" y="197" on="1"/>
        <pt x="144" y="140" on="0"/>
        <pt x="198" y="86" on="0"/>
        <pt x="257" y="86" on="1"/>
      </contour>
    </TTGlyph>
    <TTGlyph name="exclam" xMin="36" yMin="0" xMax="288" yMax="686">
      <contour>
        <pt x="149" y="686" on="1"/>
        <pt x="288" y="686" on="1"/>
        <pt x="167" y="188" on="1"/>
        <pt x="92" y="188" on="1"/>
      </contour>
      <contour>
        <pt x="58" y="127" on="1"/>
        <pt x="183" y="127" on="1"/>
        <pt x="160" y="0" on="1"/>
        <pt x="36" y="0" on="1"/>
      </contour>
    </TTGlyph>
    <TTGlyph name="exclamdbl" xMin="36" yMin="0" xMax="569" yMax="686">
      <component glyphName=".ttfautohint" x="36" y="0" flags="0x0"/>
      <component glyphName="exclam" x="281" y="0" flags="0x0"/>
      <component glyphName="exclam" x="0" y="0" flags="0x0"/>
    </TTGlyph>
    <TTGlyph name="exclamdown" xMin="29" yMin="-160" xMax="282" yMax="526">
      <contour>
        <pt x="157" y="526" on="1"/>
        <pt x="282" y="526" on="1"/>
        <pt x="259" y="399" on="1"/>
        <pt x="134" y="399" on="1"/>
      </contour>
      <contour>
        <pt x="150" y="338" on="1"/>
        <pt x="225" y="338" on="1"/>
        <pt x="168" y="-160" on="1"/>
        <pt x="29" y="-160" on="1"/>
      </contour>
    </TTGlyph>
    <TTGlyph name="f" xMin="-99" yMin="-182" xMax="368" yMax="731">
      <contour>
        <pt x="-34" y="-182" on="0"/>
        <pt x="-84" y="-173" on="0"/>
        <pt x="-99" y="-167" on="1"/>
        <pt x="-84" y="-84" on="1"/>
        <pt x="-33" y="-84" on="1"/>
        <pt x="11" y="-84" on="0"/>
        <pt x="19" y="-39" on="1"/>
        <pt x="101" y="428" on="1"/>
        <pt x="25" y="428" on="1"/>
        <pt x="43" y="526" on="1"/>
        <pt x="119" y="526" on="1"/>
        <pt x="130" y="594" on="1"/>
        <pt x="141" y="654" on="0"/>
        <pt x="211" y="731" on="0"/>
        <pt x="280" y="731" on="1"/>
        <pt x="303" y="731" on="0"/>
        <pt x="352" y="722" on="0"/>
        <pt x="368" y="716" on="1"/>
        <pt x="353" y="633" on="1"/>
        <pt x="302" y="633" on="1"/>
        <pt x="258" y="633" on="0"/>
        <pt x="250" y="588" on="1"/>
        <pt x="239" y="526" on="1"/>
        <pt x="335" y="526" on="1"/>
        <pt x="317" y="428" on="1"/>
        <pt x="221" y="428" on="1"/>
        <pt x="138" y="-45" on="1"/>
        <pt x="128" y="-105" on="0"/>
        <pt x="58" y="-182" on="0"/>
        <pt x="-12" y="-182" on="1"/>
      </contour>
    </TTGlyph>
    <TTGlyph name="f_f" xMin="-99" yMin="-182" xMax="682" yMax="731">
      <contour>
        <pt x="572" y="633" on="0"/>
        <pt x="564" y="588" on="1"/>
        <pt x="553" y="526" on="1"/>
        <pt x="648" y="526" on="1"/>
        <pt x="631" y="428" on="1"/>
        <pt x="535" y="428" on="1"/>
        <pt x="460" y="0" on="1"/>
        <pt x="340" y="0" on="1"/>
        <pt x="415" y="428" on="1"/>
        <pt x="221" y="428" on="1"/>
        <pt x="138" y="-45" on="1"/>
        <pt x="128" y="-105" on="0"/>
        <pt x="58" y="-182" on="0"/>
        <pt x="-12" y="-182" on="1"/>
        <pt x="-34" y="-182" on="0"/>
        <pt x="-84" y="-173" on="0"/>
        <pt x="-99" y="-167" on="1"/>
        <pt x="-84" y="-84" on="1"/>
        <pt x="-33" y="-84" on="1"/>
        <pt x="11" y="-84" on="0"/>
        <pt x="19" y="-39" on="1"/>
        <pt x="101" y="428" on="1"/>
        <pt x="25" y="428" on="1"/>
        <pt x="43" y="526" on="1"/>
        <pt x="119" y="526" on="1"/>
        <pt x="130" y="594" on="1"/>
        <pt x="141" y="654" on="0"/>
        <pt x="211" y="731" on="0"/>
        <pt x="280" y="731" on="1"/>
        <pt x="303" y="731" on="0"/>
        <pt x="352" y="722" on="0"/>
        <pt x="368" y="716" on="1"/>
        <pt x="353" y="633" on="1"/>
        <pt x="302" y="633" on="1"/>
        <pt x="258" y="633" on="0"/>
        <pt x="250" y="588" on="1"/>
        <pt x="239" y="526" on="1"/>
        <pt x="433" y="526" on="1"/>
        <pt x="444" y="594" on="1"/>
        <pt x="455" y="654" on="0"/>
        <pt x="525" y="731" on="0"/>
        <pt x="594" y="731" on="1"/>
        <pt x="617" y="731" on="0"/>
        <pt x="666" y="722" on="0"/>
        <pt x="682" y="716" on="1"/>
        <pt x="667" y="633" on="1"/>
        <pt x="616" y="633" on="1"/>
      </contour>
    </TTGlyph>
    <TTGlyph name="fi" xMin="-99" yMin="-182" xMax="574" yMax="731">
      <component glyphName=".ttfautohint" x="0" y="0" flags="0x0"/>
      <component glyphName="f" x="0" y="0" flags="0x0"/>
      <component glyphName="i" x="314" y="0" flags="0x0"/>
    </TTGlyph>
    <TTGlyph name="five" xMin="11" yMin="-12" xMax="544" yMax="686">
      <contour>
        <pt x="130" y="-12" on="0"/>
        <pt x="11" y="82" on="0"/>
        <pt x="11" y="166" on="1"/>
        <pt x="11" y="190" on="0"/>
        <pt x="15" y="213" on="1"/>
        <pt x="139" y="213" on="1"/>
        <pt x="136" y="197" on="0"/>
        <pt x="136" y="182" on="1"/>
        <pt x="136" y="137" on="0"/>
        <pt x="187" y="86" on="0"/>
        <pt x="231" y="86" on="1"/>
        <pt x="269" y="86" on="0"/>
        <pt x="336" y="123" on="0"/>
        <pt x="377" y="200" on="0"/>
        <pt x="377" y="256" on="1"/>
        <pt x="377" y="302" on="0"/>
        <pt x="329" y="350" on="0"/>
        <pt x="287" y="350" on="1"/>
        <pt x="217" y="350" on="0"/>
        <pt x="165" y="291" on="1"/>
        <pt x="55" y="306" on="1"/>
        <pt x="149" y="686" on="1"/>
        <pt x="544" y="686" on="1"/>
        <pt x="525" y="577" on="1"/>
        <pt x="235" y="577" on="1"/>
        <pt x="193" y="406" on="1"/>
        <pt x="252" y="446" on="0"/>
        <pt x="326" y="446" on="1"/>
        <pt x="407" y="446" on="0"/>
        <pt x="502" y="357" on="0"/>
        <pt x="502" y="269" on="1"/>
        <pt x="502" y="183" on="0"/>
        <pt x="431" y="56" on="0"/>
        <pt x="310" y="-12" on="0"/>
        <pt x="235" y="-12" on="1"/>
      </contour>
    </TTGlyph>
    <TTGlyph name="fiveeighths" xMin="45" yMin="-12" xMax="807" yMax="698">
      <contour>
        <pt x="716" y="698" on="1"/>
        <pt x="807" y="698" on="1"/>
        <pt x="136" y="-12" on="1"/>
        <pt x="45" y="-12" on="1"/>
      </contour>
      <contour>
        <pt x="122" y="320" on="0"/>
        <pt x="58" y="369" on="0"/>
        <pt x="58" y="412" on="1"/>
        <pt x="58" y="428" on="0"/>
        <pt x="60" y="437" on="1"/>
        <pt x="137" y="437" on="1"/>
        <pt x="135" y="427" on="0"/>
        <pt x="135" y="423" on="1"/>
        <pt x="135" y="405" on="0"/>
        <pt x="158" y="384" on="0"/>
        <pt x="178" y="384" on="1"/>
        <pt x="204" y="384" on="0"/>
        <pt x="243" y="425" on="0"/>
        <pt x="243" y="462" on="1"/>
        <pt x="243" y="482" on="0"/>
        <pt x="221" y="502" on="0"/>
        <pt x="201" y="502" on="1"/>
        <pt x="173" y="502" on="0"/>
        <pt x="147" y="479" on="1"/>
        <pt x="80" y="488" on="1"/>
        <pt x="130" y="686" on="1"/>
        <pt x="343" y="686" on="1"/>
        <pt x="331" y="618" on="1"/>
        <pt x="183" y="618" on="1"/>
        <pt x="166" y="550" on="1"/>
        <pt x="192" y="565" on="0"/>
        <pt x="228" y="565" on="1"/>
        <pt x="270" y="565" on="0"/>
        <pt x="321" y="516" on="0"/>
        <pt x="321" y="468" on="1"/>
        <pt x="321" y="399" on="0"/>
        <pt x="240" y="320" on="0"/>
        <pt x="178" y="320" on="1"/>
      </contour>
      <contour>
        <pt x="549" y="-12" on="0"/>
        <pt x="490" y="38" on="0"/>
        <pt x="490" y="80" on="1"/>
        <pt x="490" y="114" on="0"/>
        <pt x="524" y="166" on="0"/>
        <pt x="560" y="180" on="1"/>
        <pt x="544" y="192" on="0"/>
        <pt x="527" y="227" on="0"/>
        <pt x="527" y="247" on="1"/>
        <pt x="527" y="294" on="0"/>
        <pt x="600" y="361" on="0"/>
        <pt x="659" y="361" on="1"/>
        <pt x="715" y="361" on="0"/>
        <pt x="773" y="311" on="0"/>
        <pt x="773" y="271" on="1"/>
        <pt x="773" y="244" on="0"/>
        <pt x="741" y="196" on="0"/>
        <pt x="712" y="180" on="1"/>
        <pt x="752" y="157" on="0"/>
        <pt x="752" y="108" on="1"/>
        <pt x="752" y="57" on="0"/>
        <pt x="678" y="-12" on="0"/>
        <pt x="612" y="-12" on="1"/>
      </contour>
      <contour>
        <pt x="664" y="210" on="0"/>
        <pt x="696" y="239" on="0"/>
        <pt x="696" y="263" on="1"/>
        <pt x="696" y="279" on="0"/>
        <pt x="676" y="297" on="0"/>
        <pt x="657" y="297" on="1"/>
        <pt x="633" y="297" on="0"/>
        <pt x="604" y="268" on="0"/>
        <pt x="604" y="243" on="1"/>
        <pt x="604" y="210" on="0"/>
        <pt x="641" y="210" on="1"/>
      </contour>
      <contour>
        <pt x="640" y="51" on="0"/>
        <pt x="676" y="83" on="0"/>
        <pt x="676" y="110" on="1"/>
        <pt x="676" y="127" on="0"/>
        <pt x="652" y="146" on="0"/>
        <pt x="630" y="146" on="1"/>
        <pt x="601" y="146" on="0"/>
        <pt x="568" y="116" on="0"/>
        <pt x="568" y="90" on="1"/>
        <pt x="568" y="51" on="0"/>
        <pt x="614" y="51" on="1"/>
      </contour>
    </TTGlyph>
    <TTGlyph name="fl" xMin="-99" yMin="-182" xMax="574" yMax="731">
      <component glyphName=".ttfautohint" x="0" y="0" flags="0x0"/>
      <component glyphName="f" x="0" y="0" flags="0x0"/>
      <component glyphName="l" x="314" y="0" flags="0x0"/>
    </TTGlyph>
    <TTGlyph name="florin" xMin="-34" yMin="-183" xMax="541" yMax="731">
      <contour>
        <pt x="24" y="-183" on="0"/>
        <pt x="-21" y="-174" on="0"/>
        <pt x="-34" y="-168" on="1"/>
        <pt x="-10" y="-85" on="1"/>
        <pt x="41" y="-85" on="1"/>
        <pt x="85" y="-85" on="0"/>
        <pt x="99" y="-40" on="1"/>
        <pt x="227" y="386" on="1"/>
        <pt x="152" y="386" on="1"/>
        <pt x="180" y="485" on="1"/>
        <pt x="256" y="485" on="1"/>
        <pt x="289" y="594" on="1"/>
        <pt x="310" y="661" on="0"/>
        <pt x="387" y="731" on="0"/>
        <pt x="462" y="731" on="1"/>
        <pt x="483" y="731" on="0"/>
        <pt x="528" y="722" on="0"/>
        <pt x="541" y="716" on="1"/>
        <pt x="517" y="633" on="1"/>
        <pt x="466" y="633" on="1"/>
        <pt x="421" y="633" on="0"/>
        <pt x="407" y="588" on="1"/>
        <pt x="376" y="485" on="1"/>
        <pt x="471" y="485" on="1"/>
        <pt x="443" y="386" on="1"/>
        <pt x="347" y="386" on="1"/>
        <pt x="217" y="-46" on="1"/>
        <pt x="197" y="-112" on="0"/>
        <pt x="119" y="-183" on="0"/>
        <pt x="44" y="-183" on="1"/>
      </contour>
    </TTGlyph>
    <TTGlyph name="four" xMin="-9" yMin="0" xMax="515" yMax="698">
      <contour>
        <pt x="293" y="154" on="1"/>
        <pt x="-9" y="154" on="1"/>
        <pt x="7" y="253" on="1"/>
        <pt x="154" y="441" on="0"/>
        <pt x="262" y="698" on="1"/>
        <pt x="396" y="698" on="1"/>
        <pt x="362" y="616" on="0"/>
        <pt x="254" y="432" on="0"/>
        <pt x="148" y="283" on="0"/>
        <pt x="119" y="252" on="1"/>
        <pt x="309" y="252" on="1"/>
        <pt x="339" y="423" on="1"/>
        <pt x="386" y="492" on="0"/>
        <pt x="433" y="596" on="1"/>
        <pt x="490" y="596" on="1"/>
        <pt x="429" y="252" on="1"/>
        <pt x="515" y="252" on="1"/>
        <pt x="498" y="154" on="1"/>
        <pt x="413" y="154" on="1"/>
        <pt x="385" y="0" on="1"/>
        <pt x="265" y="0" on="1"/>
      </contour>
    </TTGlyph>
    <TTGlyph name="fraction" xMin="-258" yMin="-12" xMax="422" yMax="698">
      <contour>
        <pt x="332" y="698" on="1"/>
        <pt x="422" y="698" on="1"/>
        <pt x="-167" y="-12" on="1"/>
        <pt x="-258" y="-12" on="1"/>
      </contour>
    </TTGlyph>
    <TTGlyph name="franc" xMin="6" yMin="0" xMax="572" yMax="686">
      <contour>
        <pt x="127" y="686" on="1"/>
        <pt x="480" y="686" on="1"/>
        <pt x="462" y="580" on="1"/>
        <pt x="234" y="580" on="1"/>
        <pt x="199" y="381" on="1"/>
        <pt x="301" y="381" on="1"/>
        <pt x="316" y="464" on="1"/>
        <pt x="413" y="464" on="1"/>
        <pt x="411" y="381" on="1"/>
        <pt x="418" y="381" on="1"/>
        <pt x="464" y="476" on="0"/>
        <pt x="531" y="476" on="1"/>
        <pt x="547" y="476" on="0"/>
        <pt x="569" y="469" on="0"/>
        <pt x="572" y="467" on="1"/>
        <pt x="552" y="354" on="1"/>
        <pt x="515" y="354" on="1"/>
        <pt x="467" y="354" on="0"/>
        <pt x="404" y="284" on="0"/>
        <pt x="391" y="212" on="1"/>
        <pt x="354" y="0" on="1"/>
        <pt x="234" y="0" on="1"/>
        <pt x="282" y="275" on="1"/>
        <pt x="180" y="275" on="1"/>
        <pt x="132" y="0" on="1"/>
        <pt x="6" y="0" on="1"/>
      </contour>
    </TTGlyph>
    <TTGlyph name="g" xMin="-2" yMin="-182" xMax="558" yMax="538">
      <contour>
        <pt x="111" y="-182" on="0"/>
        <pt x="-1" y="-107" on="0"/>
        <pt x="-2" y="-35" on="1"/>
        <pt x="-2" y="-25" on="1"/>
        <pt x="115" y="-25" on="1"/>
        <pt x="118" y="-56" on="0"/>
        <pt x="165" y="-84" on="0"/>
        <pt x="210" y="-84" on="1"/>
        <pt x="329" y="-84" on="0"/>
        <pt x="356" y="59" on="1"/>
        <pt x="361" y="87" on="1"/>
        <pt x="355" y="87" on="1"/>
        <pt x="296" y="15" on="0"/>
        <pt x="199" y="15" on="1"/>
        <pt x="119" y="15" on="0"/>
        <pt x="22" y="111" on="0"/>
        <pt x="22" y="207" on="1"/>
        <pt x="22" y="293" on="0"/>
        <pt x="80" y="445" on="0"/>
        <pt x="194" y="538" on="0"/>
        <pt x="274" y="538" on="1"/>
        <pt x="329" y="538" on="0"/>
        <pt x="410" y="497" on="0"/>
        <pt x="430" y="456" on="1"/>
        <pt x="437" y="456" on="1"/>
        <pt x="459" y="526" on="1"/>
        <pt x="558" y="526" on="1"/>
        <pt x="476" y="63" on="1"/>
        <pt x="454" y="-61" on="0"/>
        <pt x="324" y="-182" on="0"/>
        <pt x="207" y="-182" on="1"/>
      </contour>
      <contour>
        <pt x="297" y="118" on="0"/>
        <pt x="367" y="183" on="0"/>
        <pt x="400" y="282" on="0"/>
        <pt x="400" y="334" on="1"/>
        <pt x="400" y="435" on="0"/>
        <pt x="303" y="435" on="1"/>
        <pt x="221" y="435" on="0"/>
        <pt x="146" y="302" on="0"/>
        <pt x="146" y="213" on="1"/>
        <pt x="146" y="164" on="0"/>
        <pt x="192" y="118" on="0"/>
        <pt x="243" y="118" on="1"/>
      </contour>
    </TTGlyph>
    <TTGlyph name="g_tilde.loclGUA" xMin="-2" yMin="-182" xMax="558" yMax="723">
      <component glyphName=".ttfautohint" x="0" y="0" flags="0x0"/>
      <component glyphName="g" x="0" y="0" flags="0x0"/>
      <component glyphName="tilde" x="165" y="0" flags="0x0"/>
    </TTGlyph>
    <TTGlyph name="gbreve" xMin="-2" yMin="-182" xMax="558" yMax="723">
      <component glyphName=".ttfautohint" x="0" y="0" flags="0x0"/>
      <component glyphName="g" x="0" y="0" flags="0x0"/>
      <component glyphName="breve" x="153" y="0" flags="0x0"/>
    </TTGlyph>
    <TTGlyph name="gcaron" xMin="-2" yMin="-182" xMax="558" yMax="723">
      <component glyphName=".ttfautohint" x="0" y="0" flags="0x0"/>
      <component glyphName="g" x="0" y="0" flags="0x0"/>
      <component glyphName="caron" x="164" y="0" flags="0x0"/>
    </TTGlyph>
    <TTGlyph name="gcircumflex" xMin="-2" yMin="-182" xMax="558" yMax="723">
      <component glyphName=".ttfautohint" x="0" y="0" flags="0x0"/>
      <component glyphName="g" x="0" y="0" flags="0x0"/>
      <component glyphName="circumflex" x="157" y="0" flags="0x0"/>
    </TTGlyph>
    <TTGlyph name="gcommaaccent" xMin="-2" yMin="-182" xMax="558" yMax="780">
      <contour>
        <pt x="278" y="678" on="1"/>
        <pt x="355" y="780" on="1"/>
        <pt x="418" y="780" on="1"/>
        <pt x="355" y="689" on="1"/>
        <pt x="401" y="689" on="1"/>
        <pt x="384" y="593" on="1"/>
        <pt x="263" y="593" on="1"/>
      </contour>
      <contour>
        <pt x="111" y="-182" on="0"/>
        <pt x="-1" y="-107" on="0"/>
        <pt x="-2" y="-35" on="1"/>
        <pt x="-2" y="-25" on="1"/>
        <pt x="115" y="-25" on="1"/>
        <pt x="118" y="-56" on="0"/>
        <pt x="165" y="-84" on="0"/>
        <pt x="210" y="-84" on="1"/>
        <pt x="329" y="-84" on="0"/>
        <pt x="356" y="59" on="1"/>
        <pt x="361" y="87" on="1"/>
        <pt x="355" y="87" on="1"/>
        <pt x="296" y="15" on="0"/>
        <pt x="199" y="15" on="1"/>
        <pt x="119" y="15" on="0"/>
        <pt x="22" y="111" on="0"/>
        <pt x="22" y="207" on="1"/>
        <pt x="22" y="293" on="0"/>
        <pt x="80" y="445" on="0"/>
        <pt x="194" y="538" on="0"/>
        <pt x="274" y="538" on="1"/>
        <pt x="329" y="538" on="0"/>
        <pt x="410" y="497" on="0"/>
        <pt x="430" y="456" on="1"/>
        <pt x="437" y="456" on="1"/>
        <pt x="459" y="526" on="1"/>
        <pt x="558" y="526" on="1"/>
        <pt x="476" y="63" on="1"/>
        <pt x="454" y="-61" on="0"/>
        <pt x="324" y="-182" on="0"/>
        <pt x="207" y="-182" on="1"/>
      </contour>
      <contour>
        <pt x="297" y="118" on="0"/>
        <pt x="367" y="183" on="0"/>
        <pt x="400" y="282" on="0"/>
        <pt x="400" y="334" on="1"/>
        <pt x="400" y="435" on="0"/>
        <pt x="303" y="435" on="1"/>
        <pt x="221" y="435" on="0"/>
        <pt x="146" y="302" on="0"/>
        <pt x="146" y="213" on="1"/>
        <pt x="146" y="164" on="0"/>
        <pt x="192" y="118" on="0"/>
        <pt x="243" y="118" on="1"/>
      </contour>
    </TTGlyph>
    <TTGlyph name="gdotaccent" xMin="-2" yMin="-182" xMax="558" yMax="724">
      <component glyphName=".ttfautohint" x="0" y="0" flags="0x0"/>
      <component glyphName="g" x="0" y="0" flags="0x0"/>
      <component glyphName="dotaccent" x="164" y="0" flags="0x0"/>
    </TTGlyph>
    <TTGlyph name="germandbls" xMin="8" yMin="0" xMax="592" yMax="735">
      <contour>
        <pt x="98" y="513" on="1"/>
        <pt x="118" y="627" on="0"/>
        <pt x="189" y="682" on="1"/>
        <pt x="258" y="735" on="0"/>
        <pt x="366" y="735" on="1"/>
        <pt x="473" y="735" on="0"/>
        <pt x="592" y="648" on="0"/>
        <pt x="592" y="570" on="1"/>
        <pt x="592" y="509" on="0"/>
        <pt x="514" y="416" on="0"/>
        <pt x="448" y="396" on="1"/>
        <pt x="448" y="392" on="1"/>
        <pt x="557" y="353" on="0"/>
        <pt x="557" y="230" on="1"/>
        <pt x="557" y="162" on="0"/>
        <pt x="489" y="58" on="0"/>
        <pt x="368" y="0" on="0"/>
        <pt x="289" y="0" on="1"/>
        <pt x="196" y="0" on="1"/>
        <pt x="213" y="98" on="1"/>
        <pt x="291" y="98" on="1"/>
        <pt x="334" y="98" on="0"/>
        <pt x="400" y="134" on="0"/>
        <pt x="436" y="195" on="0"/>
        <pt x="436" y="229" on="1"/>
        <pt x="436" y="274" on="0"/>
        <pt x="379" y="331" on="0"/>
        <pt x="331" y="331" on="1"/>
        <pt x="253" y="331" on="1"/>
        <pt x="272" y="435" on="1"/>
        <pt x="344" y="435" on="1"/>
        <pt x="395" y="435" on="0"/>
        <pt x="467" y="501" on="0"/>
        <pt x="467" y="550" on="1"/>
        <pt x="467" y="591" on="0"/>
        <pt x="416" y="638" on="0"/>
        <pt x="365" y="638" on="1"/>
        <pt x="307" y="638" on="0"/>
        <pt x="229" y="576" on="0"/>
        <pt x="219" y="519" on="1"/>
        <pt x="128" y="0" on="1"/>
        <pt x="8" y="0" on="1"/>
      </contour>
    </TTGlyph>
    <TTGlyph name="grave" xMin="86" yMin="591" xMax="262" yMax="723">
      <contour>
        <pt x="86" y="720" on="1"/>
        <pt x="87" y="723" on="1"/>
        <pt x="204" y="723" on="1"/>
        <pt x="262" y="591" on="1"/>
        <pt x="171" y="591" on="1"/>
      </contour>
    </TTGlyph>
    <TTGlyph name="greater" xMin="7" yMin="3" xMax="537" yMax="516">
      <contour>
        <pt x="26" y="115" on="1"/>
        <pt x="433" y="263" on="1"/>
        <pt x="79" y="411" on="1"/>
        <pt x="98" y="516" on="1"/>
        <pt x="537" y="319" on="1"/>
        <pt x="516" y="199" on="1"/>
        <pt x="7" y="3" on="1"/>
      </contour>
    </TTGlyph>
    <TTGlyph name="greaterequal" xMin="-18" yMin="0" xMax="533" yMax="637">
      <contour>
        <pt x="22" y="236" on="1"/>
        <pt x="429" y="384" on="1"/>
        <pt x="75" y="532" on="1"/>
        <pt x="94" y="637" on="1"/>
        <pt x="533" y="441" on="1"/>
        <pt x="512" y="321" on="1"/>
        <pt x="3" y="124" on="1"/>
      </contour>
      <contour>
        <pt x="-1" y="97" on="1"/>
        <pt x="471" y="97" on="1"/>
        <pt x="454" y="0" on="1"/>
        <pt x="-18" y="0" on="1"/>
      </contour>
    </TTGlyph>
    <TTGlyph name="guillemotleft" xMin="58" yMin="126" xMax="544" yMax="526">
      <component glyphName=".ttfautohint" x="58" y="126" flags="0x0"/>
      <component glyphName="guilsinglleft" x="219" y="0" flags="0x0"/>
      <component glyphName="guilsinglleft" x="0" y="0" flags="0x0"/>
    </TTGlyph>
    <TTGlyph name="guillemotright" xMin="9" yMin="126" xMax="488" yMax="526">
      <component glyphName=".ttfautohint" x="9" y="126" flags="0x0"/>
      <component glyphName="guilsinglright" x="211" y="0" flags="0x0"/>
      <component glyphName="guilsinglright" x="0" y="0" flags="0x0"/>
    </TTGlyph>
    <TTGlyph name="guilsinglleft" xMin="58" yMin="126" xMax="325" yMax="526">
      <contour>
        <pt x="58" y="326" on="1"/>
        <pt x="227" y="526" on="1"/>
        <pt x="325" y="526" on="1"/>
        <pt x="175" y="326" on="1"/>
        <pt x="254" y="126" on="1"/>
        <pt x="165" y="126" on="1"/>
      </contour>
    </TTGlyph>
    <TTGlyph name="guilsinglright" xMin="9" yMin="126" xMax="277" yMax="526">
      <contour>
        <pt x="160" y="326" on="1"/>
        <pt x="80" y="526" on="1"/>
        <pt x="169" y="526" on="1"/>
        <pt x="277" y="326" on="1"/>
        <pt x="107" y="126" on="1"/>
        <pt x="9" y="126" on="1"/>
      </contour>
    </TTGlyph>
    <TTGlyph name="h" xMin="16" yMin="0" xMax="538" yMax="723">
      <contour>
        <pt x="143" y="723" on="1"/>
        <pt x="263" y="723" on="1"/>
        <pt x="218" y="466" on="1"/>
        <pt x="224" y="466" on="1"/>
        <pt x="254" y="498" on="0"/>
        <pt x="340" y="538" on="0"/>
        <pt x="386" y="538" on="1"/>
        <pt x="455" y="538" on="0"/>
        <pt x="538" y="473" on="0"/>
        <pt x="538" y="404" on="1"/>
        <pt x="538" y="377" on="0"/>
        <pt x="529" y="325" on="1"/>
        <pt x="471" y="0" on="1"/>
        <pt x="351" y="0" on="1"/>
        <pt x="407" y="318" on="1"/>
        <pt x="413" y="354" on="0"/>
        <pt x="413" y="367" on="1"/>
        <pt x="413" y="403" on="0"/>
        <pt x="376" y="434" on="0"/>
        <pt x="342" y="434" on="1"/>
        <pt x="285" y="434" on="0"/>
        <pt x="198" y="354" on="0"/>
        <pt x="186" y="283" on="1"/>
        <pt x="136" y="0" on="1"/>
        <pt x="16" y="0" on="1"/>
      </contour>
    </TTGlyph>
    <TTGlyph name="hbar" xMin="16" yMin="0" xMax="538" yMax="723">
      <contour>
        <pt x="119" y="590" on="1"/>
        <pt x="58" y="590" on="1"/>
        <pt x="70" y="658" on="1"/>
        <pt x="131" y="658" on="1"/>
        <pt x="143" y="723" on="1"/>
        <pt x="263" y="723" on="1"/>
        <pt x="251" y="658" on="1"/>
        <pt x="400" y="658" on="1"/>
        <pt x="388" y="590" on="1"/>
        <pt x="239" y="590" on="1"/>
        <pt x="218" y="466" on="1"/>
        <pt x="224" y="466" on="1"/>
        <pt x="254" y="498" on="0"/>
        <pt x="340" y="538" on="0"/>
        <pt x="386" y="538" on="1"/>
        <pt x="455" y="538" on="0"/>
        <pt x="538" y="473" on="0"/>
        <pt x="538" y="404" on="1"/>
        <pt x="538" y="377" on="0"/>
        <pt x="529" y="325" on="1"/>
        <pt x="471" y="0" on="1"/>
        <pt x="351" y="0" on="1"/>
        <pt x="407" y="318" on="1"/>
        <pt x="413" y="354" on="0"/>
        <pt x="413" y="367" on="1"/>
        <pt x="413" y="403" on="0"/>
        <pt x="376" y="434" on="0"/>
        <pt x="342" y="434" on="1"/>
        <pt x="285" y="434" on="0"/>
        <pt x="198" y="354" on="0"/>
        <pt x="186" y="283" on="1"/>
        <pt x="136" y="0" on="1"/>
        <pt x="16" y="0" on="1"/>
      </contour>
    </TTGlyph>
    <TTGlyph name="hcircumflex" xMin="16" yMin="0" xMax="538" yMax="883">
      <component glyphName=".ttfautohint" x="16" y="0" flags="0x0"/>
      <component glyphName="h" x="0" y="0" flags="0x0"/>
      <component glyphName="circumflex" x="46" y="160" flags="0x4"/>
    </TTGlyph>
    <TTGlyph name="hookabovecomb" xMin="-186" yMin="591" xMax="0" yMax="735">
      <contour>
        <pt x="-145" y="647" on="1"/>
        <pt x="-131" y="647" on="1"/>
        <pt x="-113" y="647" on="0"/>
        <pt x="-97" y="658" on="0"/>
        <pt x="-97" y="670" on="1"/>
        <pt x="-97" y="679" on="0"/>
        <pt x="-112" y="685" on="0"/>
        <pt x="-128" y="685" on="1"/>
        <pt x="-186" y="685" on="1"/>
        <pt x="-179" y="727" on="1"/>
        <pt x="-141" y="735" on="0"/>
        <pt x="-98" y="735" on="1"/>
        <pt x="-59" y="735" on="0"/>
        <pt x="0" y="712" on="0"/>
        <pt x="0" y="684" on="1"/>
        <pt x="0" y="653" on="0"/>
        <pt x="-50" y="620" on="0"/>
        <pt x="-86" y="617" on="1"/>
        <pt x="-91" y="591" on="1"/>
        <pt x="-155" y="591" on="1"/>
      </contour>
    </TTGlyph>
    <TTGlyph name="house" xMin="77" yMin="0" xMax="527" yMax="563">
      <contour>
        <pt x="77" y="310" on="1"/>
        <pt x="302" y="563" on="1"/>
        <pt x="527" y="310" on="1"/>
        <pt x="527" y="0" on="1"/>
        <pt x="77" y="0" on="1"/>
      </contour>
      <contour>
        <pt x="468" y="60" on="1"/>
        <pt x="468" y="286" on="1"/>
        <pt x="302" y="475" on="1"/>
        <pt x="136" y="286" on="1"/>
        <pt x="136" y="60" on="1"/>
      </contour>
    </TTGlyph>
    <TTGlyph name="hungarumlaut" xMin="0" yMin="591" xMax="387" yMax="723">
      <contour>
        <pt x="95" y="723" on="1"/>
        <pt x="220" y="723" on="1"/>
        <pt x="221" y="720" on="1"/>
        <pt x="98" y="591" on="1"/>
        <pt x="0" y="591" on="1"/>
      </contour>
      <contour>
        <pt x="262" y="723" on="1"/>
        <pt x="386" y="723" on="1"/>
        <pt x="387" y="720" on="1"/>
        <pt x="265" y="591" on="1"/>
        <pt x="166" y="591" on="1"/>
      </contour>
    </TTGlyph>
    <TTGlyph name="hyphen" xMin="25" yMin="214" xMax="295" yMax="326">
      <contour>
        <pt x="44" y="326" on="1"/>
        <pt x="295" y="326" on="1"/>
        <pt x="276" y="214" on="1"/>
        <pt x="25" y="214" on="1"/>
      </contour>
    </TTGlyph>
    <TTGlyph name="i" xMin="13" yMin="0" xMax="260" yMax="723">
      <contour>
        <pt x="140" y="723" on="1"/>
        <pt x="260" y="723" on="1"/>
        <pt x="240" y="608" on="1"/>
        <pt x="120" y="608" on="1"/>
      </contour>
      <contour>
        <pt x="106" y="526" on="1"/>
        <pt x="226" y="526" on="1"/>
        <pt x="133" y="0" on="1"/>
        <pt x="13" y="0" on="1"/>
      </contour>
    </TTGlyph>
    <TTGlyph name="i.loclTRK" xMin="21" yMin="0" xMax="267" yMax="724">
      <component glyphName=".ttfautohint" x="21" y="0" flags="0x0"/>
      <component glyphName="dotlessi" x="0" y="0" flags="0x0"/>
      <component glyphName="dotaccent" x="31" y="0" flags="0x0"/>
    </TTGlyph>
    <TTGlyph name="iacute" xMin="21" yMin="0" xMax="349" yMax="723">
      <contour>
        <pt x="224" y="723" on="1"/>
        <pt x="348" y="723" on="1"/>
        <pt x="349" y="720" on="1"/>
        <pt x="218" y="591" on="1"/>
        <pt x="119" y="591" on="1"/>
      </contour>
      <contour>
        <pt x="114" y="526" on="1"/>
        <pt x="234" y="526" on="1"/>
        <pt x="141" y="0" on="1"/>
        <pt x="21" y="0" on="1"/>
      </contour>
    </TTGlyph>
    <TTGlyph name="iacute_j.loclNLD" xMin="21" yMin="-182" xMax="634" yMax="723">
      <component glyphName=".ttfautohint" x="21" y="0" flags="0x0"/>
      <component glyphName="dotlessi" x="0" y="0" flags="0x0"/>
      <component glyphName="acute" x="74" y="0" flags="0x0"/>
      <component glyphName="uni0237" x="278" y="0" flags="0x0"/>
      <component glyphName="acute" x="344" y="0" flags="0x0"/>
    </TTGlyph>
    <TTGlyph name="ibreve" xMin="21" yMin="0" xMax="354" yMax="723">
      <component glyphName=".ttfautohint" x="21" y="0" flags="0x0"/>
      <component glyphName="dotlessi" x="0" y="0" flags="0x0"/>
      <component glyphName="breve" x="20" y="0" flags="0x0"/>
    </TTGlyph>
    <TTGlyph name="icircumflex" xMin="16" yMin="0" xMax="335" yMax="723">
      <contour>
        <pt x="144" y="723" on="1"/>
        <pt x="253" y="723" on="1"/>
        <pt x="335" y="588" on="1"/>
        <pt x="236" y="588" on="1"/>
        <pt x="192" y="660" on="1"/>
        <pt x="126" y="588" on="1"/>
        <pt x="16" y="588" on="1"/>
      </contour>
      <contour>
        <pt x="114" y="526" on="1"/>
        <pt x="234" y="526" on="1"/>
        <pt x="141" y="0" on="1"/>
        <pt x="21" y="0" on="1"/>
      </contour>
    </TTGlyph>
    <TTGlyph name="idieresis" xMin="21" yMin="0" xMax="358" yMax="723">
      <contour>
        <pt x="48" y="723" on="1"/>
        <pt x="155" y="723" on="1"/>
        <pt x="136" y="613" on="1"/>
        <pt x="29" y="613" on="1"/>
      </contour>
      <contour>
        <pt x="250" y="723" on="1"/>
        <pt x="358" y="723" on="1"/>
        <pt x="338" y="613" on="1"/>
        <pt x="230" y="613" on="1"/>
      </contour>
      <contour>
        <pt x="114" y="526" on="1"/>
        <pt x="234" y="526" on="1"/>
        <pt x="141" y="0" on="1"/>
        <pt x="21" y="0" on="1"/>
      </contour>
    </TTGlyph>
    <TTGlyph name="igrave" xMin="21" yMin="0" xMax="239" yMax="723">
      <contour>
        <pt x="62" y="720" on="1"/>
        <pt x="63" y="723" on="1"/>
        <pt x="180" y="723" on="1"/>
        <pt x="239" y="591" on="1"/>
        <pt x="147" y="591" on="1"/>
      </contour>
      <contour>
        <pt x="114" y="526" on="1"/>
        <pt x="234" y="526" on="1"/>
        <pt x="141" y="0" on="1"/>
        <pt x="21" y="0" on="1"/>
      </contour>
    </TTGlyph>
    <TTGlyph name="ij" xMin="13" yMin="-182" xMax="519" yMax="723">
      <component glyphName=".ttfautohint" x="13" y="0" flags="0x0"/>
      <component glyphName="i" x="0" y="0" flags="0x0"/>
      <component glyphName="j" x="259" y="0" flags="0x0"/>
    </TTGlyph>
    <TTGlyph name="imacron" xMin="21" yMin="0" xMax="350" yMax="721">
      <contour>
        <pt x="45" y="721" on="1"/>
        <pt x="350" y="721" on="1"/>
        <pt x="336" y="639" on="1"/>
        <pt x="31" y="639" on="1"/>
      </contour>
      <contour>
        <pt x="114" y="526" on="1"/>
        <pt x="234" y="526" on="1"/>
        <pt x="141" y="0" on="1"/>
        <pt x="21" y="0" on="1"/>
      </contour>
    </TTGlyph>
    <TTGlyph name="infinity" xMin="43" yMin="139" xMax="667" yMax="456">
      <contour>
        <pt x="115" y="139" on="0"/>
        <pt x="43" y="211" on="0"/>
        <pt x="43" y="271" on="1"/>
        <pt x="43" y="322" on="0"/>
        <pt x="89" y="407" on="0"/>
        <pt x="170" y="456" on="0"/>
        <pt x="219" y="456" on="1"/>
        <pt x="270" y="456" on="0"/>
        <pt x="343" y="408" on="0"/>
        <pt x="371" y="363" on="1"/>
        <pt x="414" y="406" on="0"/>
        <pt x="488" y="456" on="0"/>
        <pt x="535" y="456" on="1"/>
        <pt x="594" y="456" on="0"/>
        <pt x="667" y="385" on="0"/>
        <pt x="667" y="326" on="1"/>
        <pt x="667" y="272" on="0"/>
        <pt x="620" y="187" on="0"/>
        <pt x="541" y="139" on="0"/>
        <pt x="495" y="139" on="1"/>
        <pt x="398" y="139" on="0"/>
        <pt x="343" y="234" on="1"/>
        <pt x="299" y="188" on="0"/>
        <pt x="219" y="139" on="0"/>
        <pt x="173" y="139" on="1"/>
      </contour>
      <contour>
        <pt x="218" y="219" on="0"/>
        <pt x="276" y="260" on="0"/>
        <pt x="308" y="294" on="1"/>
        <pt x="285" y="339" on="0"/>
        <pt x="246" y="376" on="0"/>
        <pt x="216" y="376" on="1"/>
        <pt x="185" y="376" on="0"/>
        <pt x="132" y="323" on="0"/>
        <pt x="132" y="284" on="1"/>
        <pt x="132" y="256" on="0"/>
        <pt x="164" y="219" on="0"/>
        <pt x="189" y="219" on="1"/>
      </contour>
      <contour>
        <pt x="521" y="219" on="0"/>
        <pt x="558" y="248" on="0"/>
        <pt x="578" y="291" on="0"/>
        <pt x="578" y="311" on="1"/>
        <pt x="578" y="339" on="0"/>
        <pt x="547" y="376" on="0"/>
        <pt x="521" y="376" on="1"/>
        <pt x="495" y="376" on="0"/>
        <pt x="445" y="341" on="0"/>
        <pt x="402" y="298" on="1"/>
        <pt x="427" y="254" on="0"/>
        <pt x="469" y="219" on="0"/>
        <pt x="497" y="219" on="1"/>
      </contour>
    </TTGlyph>
    <TTGlyph name="integral" xMin="-62" yMin="-141" xMax="344" yMax="859">
      <contour>
        <pt x="-50" y="-78" on="1"/>
        <pt x="27" y="-78" on="0"/>
        <pt x="38" y="-20" on="1"/>
        <pt x="51" y="79" on="0"/>
        <pt x="129" y="653" on="0"/>
        <pt x="146" y="747" on="1"/>
        <pt x="154" y="793" on="0"/>
        <pt x="200" y="841" on="0"/>
        <pt x="279" y="859" on="0"/>
        <pt x="344" y="859" on="1"/>
        <pt x="332" y="797" on="1"/>
        <pt x="252" y="797" on="0"/>
        <pt x="241" y="740" on="1"/>
        <pt x="228" y="641" on="0"/>
        <pt x="150" y="65" on="0"/>
        <pt x="134" y="-29" on="1"/>
        <pt x="126" y="-76" on="0"/>
        <pt x="81" y="-124" on="0"/>
        <pt x="4" y="-141" on="0"/>
        <pt x="-62" y="-141" on="1"/>
      </contour>
    </TTGlyph>
    <TTGlyph name="integralbt" xMin="82" yMin="-250" xMax="441" yMax="859">
      <contour>
        <pt x="93" y="-188" on="1"/>
        <pt x="173" y="-188" on="0"/>
        <pt x="184" y="-131" on="1"/>
        <pt x="198" y="-43" on="0"/>
        <pt x="284" y="504" on="0"/>
        <pt x="341" y="859" on="1"/>
        <pt x="441" y="859" on="1"/>
        <pt x="388" y="529" on="0"/>
        <pt x="301" y="-10" on="0"/>
        <pt x="279" y="-138" on="1"/>
        <pt x="271" y="-184" on="0"/>
        <pt x="224" y="-232" on="0"/>
        <pt x="146" y="-250" on="0"/>
        <pt x="82" y="-250" on="1"/>
      </contour>
    </TTGlyph>
    <TTGlyph name="integraltp" xMin="162" yMin="-250" xMax="521" yMax="859">
      <contour>
        <pt x="208" y="42" on="0"/>
        <pt x="302" y="619" on="0"/>
        <pt x="324" y="747" on="1"/>
        <pt x="332" y="793" on="0"/>
        <pt x="379" y="841" on="0"/>
        <pt x="457" y="859" on="0"/>
        <pt x="521" y="859" on="1"/>
        <pt x="510" y="797" on="1"/>
        <pt x="430" y="797" on="0"/>
        <pt x="419" y="740" on="1"/>
        <pt x="405" y="652" on="0"/>
        <pt x="319" y="105" on="0"/>
        <pt x="262" y="-250" on="1"/>
        <pt x="162" y="-250" on="1"/>
      </contour>
    </TTGlyph>
    <TTGlyph name="intersection" xMin="40" yMin="0" xMax="648" yMax="676">
      <contour>
        <pt x="112" y="410" on="1"/>
        <pt x="126" y="488" on="0"/>
        <pt x="214" y="609" on="0"/>
        <pt x="340" y="676" on="0"/>
        <pt x="409" y="676" on="1"/>
        <pt x="478" y="676" on="0"/>
        <pt x="587" y="620" on="0"/>
        <pt x="648" y="520" on="0"/>
        <pt x="648" y="458" on="1"/>
        <pt x="648" y="433" on="0"/>
        <pt x="644" y="410" on="1"/>
        <pt x="572" y="0" on="1"/>
        <pt x="487" y="0" on="1"/>
        <pt x="559" y="410" on="1"/>
        <pt x="562" y="428" on="0"/>
        <pt x="562" y="445" on="1"/>
        <pt x="562" y="511" on="0"/>
        <pt x="481" y="594" on="0"/>
        <pt x="414" y="594" on="1"/>
        <pt x="360" y="594" on="0"/>
        <pt x="268" y="546" on="0"/>
        <pt x="207" y="463" on="0"/>
        <pt x="198" y="410" on="1"/>
        <pt x="126" y="0" on="1"/>
        <pt x="40" y="0" on="1"/>
      </contour>
    </TTGlyph>
    <TTGlyph name="iogonek" xMin="-47" yMin="-190" xMax="267" yMax="724">
      <contour>
        <pt x="267" y="724" on="1"/>
        <pt x="246" y="606" on="1"/>
        <pt x="128" y="606" on="1"/>
        <pt x="149" y="724" on="1"/>
      </contour>
      <contour>
        <pt x="114" y="526" on="1"/>
        <pt x="234" y="526" on="1"/>
        <pt x="141" y="0" on="1"/>
        <pt x="102" y="0" on="1"/>
        <pt x="84" y="-15" on="0"/>
        <pt x="55" y="-60" on="0"/>
        <pt x="55" y="-83" on="1"/>
        <pt x="55" y="-122" on="0"/>
        <pt x="97" y="-122" on="1"/>
        <pt x="124" y="-122" on="1"/>
        <pt x="114" y="-176" on="1"/>
        <pt x="74" y="-190" on="0"/>
        <pt x="43" y="-190" on="1"/>
        <pt x="5" y="-190" on="0"/>
        <pt x="-47" y="-153" on="0"/>
        <pt x="-47" y="-114" on="1"/>
        <pt x="-47" y="-78" on="0"/>
        <pt x="-9" y="-24" on="0"/>
        <pt x="22" y="0" on="1"/>
        <pt x="21" y="0" on="1"/>
      </contour>
    </TTGlyph>
    <TTGlyph name="itilde" xMin="5" yMin="0" xMax="357" yMax="723">
      <contour>
        <pt x="13" y="657" on="0"/>
        <pt x="69" y="723" on="0"/>
        <pt x="114" y="723" on="1"/>
        <pt x="143" y="723" on="0"/>
        <pt x="185" y="705" on="1"/>
        <pt x="225" y="688" on="0"/>
        <pt x="250" y="688" on="1"/>
        <pt x="278" y="688" on="0"/>
        <pt x="289" y="723" on="1"/>
        <pt x="357" y="723" on="1"/>
        <pt x="348" y="672" on="0"/>
        <pt x="292" y="607" on="0"/>
        <pt x="246" y="607" on="1"/>
        <pt x="228" y="607" on="0"/>
        <pt x="197" y="616" on="0"/>
        <pt x="175" y="625" on="1"/>
        <pt x="155" y="633" on="0"/>
        <pt x="126" y="642" on="0"/>
        <pt x="110" y="642" on="1"/>
        <pt x="83" y="642" on="0"/>
        <pt x="72" y="607" on="1"/>
        <pt x="5" y="607" on="1"/>
      </contour>
      <contour>
        <pt x="114" y="526" on="1"/>
        <pt x="234" y="526" on="1"/>
        <pt x="141" y="0" on="1"/>
        <pt x="21" y="0" on="1"/>
      </contour>
    </TTGlyph>
    <TTGlyph name="j" xMin="-109" yMin="-182" xMax="260" yMax="723">
      <contour>
        <pt x="140" y="723" on="1"/>
        <pt x="260" y="723" on="1"/>
        <pt x="240" y="608" on="1"/>
        <pt x="120" y="608" on="1"/>
      </contour>
      <contour>
        <pt x="-42" y="-182" on="0"/>
        <pt x="-94" y="-173" on="0"/>
        <pt x="-109" y="-167" on="1"/>
        <pt x="-95" y="-85" on="1"/>
        <pt x="-46" y="-85" on="1"/>
        <pt x="-2" y="-85" on="0"/>
        <pt x="6" y="-40" on="1"/>
        <pt x="106" y="526" on="1"/>
        <pt x="226" y="526" on="1"/>
        <pt x="125" y="-48" on="1"/>
        <pt x="101" y="-182" on="0"/>
        <pt x="-20" y="-182" on="1"/>
      </contour>
    </TTGlyph>
    <TTGlyph name="jcircumflex" xMin="-109" yMin="-182" xMax="324" yMax="723">
      <contour>
        <pt x="133" y="723" on="1"/>
        <pt x="242" y="723" on="1"/>
        <pt x="324" y="588" on="1"/>
        <pt x="224" y="588" on="1"/>
        <pt x="180" y="660" on="1"/>
        <pt x="115" y="588" on="1"/>
        <pt x="4" y="588" on="1"/>
      </contour>
      <contour>
        <pt x="-42" y="-182" on="0"/>
        <pt x="-94" y="-173" on="0"/>
        <pt x="-109" y="-167" on="1"/>
        <pt x="-95" y="-85" on="1"/>
        <pt x="-46" y="-85" on="1"/>
        <pt x="-2" y="-85" on="0"/>
        <pt x="6" y="-40" on="1"/>
        <pt x="106" y="526" on="1"/>
        <pt x="226" y="526" on="1"/>
        <pt x="125" y="-48" on="1"/>
        <pt x="101" y="-182" on="0"/>
        <pt x="-20" y="-182" on="1"/>
      </contour>
    </TTGlyph>
    <TTGlyph name="k" xMin="13" yMin="0" xMax="558" yMax="723">
      <contour>
        <pt x="140" y="723" on="1"/>
        <pt x="260" y="723" on="1"/>
        <pt x="186" y="300" on="1"/>
        <pt x="417" y="526" on="1"/>
        <pt x="558" y="526" on="1"/>
        <pt x="346" y="319" on="1"/>
        <pt x="475" y="0" on="1"/>
        <pt x="345" y="0" on="1"/>
        <pt x="260" y="235" on="1"/>
        <pt x="161" y="157" on="1"/>
        <pt x="133" y="0" on="1"/>
        <pt x="13" y="0" on="1"/>
      </contour>
    </TTGlyph>
    <TTGlyph name="kcommaaccent" xMin="13" yMin="-230" xMax="558" yMax="723">
      <component glyphName=".ttfautohint" x="13" y="0" flags="0x0"/>
      <component glyphName="k" x="0" y="0" flags="0x0"/>
      <component glyphName="uni0326" x="363" y="0" flags="0x0"/>
    </TTGlyph>
    <TTGlyph name="kgreenlandic" xMin="13" yMin="0" xMax="558" yMax="526">
      <contour>
        <pt x="105" y="526" on="1"/>
        <pt x="225" y="526" on="1"/>
        <pt x="186" y="300" on="1"/>
        <pt x="417" y="526" on="1"/>
        <pt x="558" y="526" on="1"/>
        <pt x="346" y="319" on="1"/>
        <pt x="475" y="0" on="1"/>
        <pt x="345" y="0" on="1"/>
        <pt x="260" y="235" on="1"/>
        <pt x="161" y="157" on="1"/>
        <pt x="133" y="0" on="1"/>
        <pt x="13" y="0" on="1"/>
      </contour>
    </TTGlyph>
    <TTGlyph name="l" xMin="13" yMin="0" xMax="260" yMax="723">
      <contour>
        <pt x="140" y="723" on="1"/>
        <pt x="260" y="723" on="1"/>
        <pt x="133" y="0" on="1"/>
        <pt x="13" y="0" on="1"/>
      </contour>
    </TTGlyph>
    <TTGlyph name="lacute" xMin="13" yMin="0" xMax="389" yMax="883">
      <component glyphName=".ttfautohint" x="13" y="0" flags="0x0"/>
      <component glyphName="l" x="0" y="0" flags="0x0"/>
      <component glyphName="acute" x="99" y="160" flags="0x4"/>
    </TTGlyph>
    <TTGlyph name="lcaron" xMin="13" yMin="0" xMax="431" yMax="723">
      <contour>
        <pt x="140" y="723" on="1"/>
        <pt x="260" y="723" on="1"/>
        <pt x="133" y="0" on="1"/>
        <pt x="13" y="0" on="1"/>
      </contour>
      <contour>
        <pt x="337" y="571" on="1"/>
        <pt x="291" y="571" on="1"/>
        <pt x="311" y="686" on="1"/>
        <pt x="431" y="686" on="1"/>
        <pt x="413" y="582" on="1"/>
        <pt x="333" y="459" on="1"/>
        <pt x="270" y="459" on="1"/>
      </contour>
    </TTGlyph>
    <TTGlyph name="lcommaaccent" xMin="-27" yMin="-230" xMax="260" yMax="723">
      <component glyphName=".ttfautohint" x="0" y="0" flags="0x0"/>
      <component glyphName="l" x="0" y="0" flags="0x0"/>
      <component glyphName="uni0326" x="196" y="0" flags="0x0"/>
    </TTGlyph>
    <TTGlyph name="ldot" xMin="13" yMin="0" xMax="381" yMax="723">
      <component glyphName=".ttfautohint" x="13" y="0" flags="0x0"/>
      <component glyphName="l" x="0" y="0" flags="0x0"/>
      <component glyphName="periodcentered" x="134" y="0" flags="0x0"/>
    </TTGlyph>
    <TTGlyph name="less" xMin="39" yMin="3" xMax="569" yMax="516">
      <contour>
        <pt x="39" y="199" on="1"/>
        <pt x="61" y="319" on="1"/>
        <pt x="569" y="516" on="1"/>
        <pt x="550" y="404" on="1"/>
        <pt x="144" y="256" on="1"/>
        <pt x="497" y="107" on="1"/>
        <pt x="479" y="3" on="1"/>
      </contour>
    </TTGlyph>
    <TTGlyph name="lessequal" xMin="-17" yMin="0" xMax="567" yMax="636">
      <contour>
        <pt x="37" y="319" on="1"/>
        <pt x="58" y="439" on="1"/>
        <pt x="567" y="636" on="1"/>
        <pt x="548" y="524" on="1"/>
        <pt x="142" y="376" on="1"/>
        <pt x="495" y="228" on="1"/>
        <pt x="476" y="123" on="1"/>
      </contour>
      <contour>
        <pt x="-1" y="97" on="1"/>
        <pt x="472" y="97" on="1"/>
        <pt x="455" y="0" on="1"/>
        <pt x="-17" y="0" on="1"/>
      </contour>
    </TTGlyph>
    <TTGlyph name="lira" xMin="-16" yMin="0" xMax="567" yMax="698">
      <contour>
        <pt x="1" y="101" on="1"/>
        <pt x="67" y="101" on="1"/>
        <pt x="84" y="197" on="1"/>
        <pt x="7" y="197" on="1"/>
        <pt x="21" y="282" on="1"/>
        <pt x="99" y="282" on="1"/>
        <pt x="110" y="343" on="1"/>
        <pt x="32" y="343" on="1"/>
        <pt x="47" y="428" on="1"/>
        <pt x="125" y="428" on="1"/>
        <pt x="137" y="499" on="1"/>
        <pt x="172" y="698" on="0"/>
        <pt x="368" y="698" on="1"/>
        <pt x="463" y="698" on="0"/>
        <pt x="567" y="625" on="0"/>
        <pt x="567" y="551" on="1"/>
        <pt x="567" y="521" on="0"/>
        <pt x="561" y="491" on="1"/>
        <pt x="442" y="491" on="1"/>
        <pt x="446" y="520" on="0"/>
        <pt x="446" y="529" on="1"/>
        <pt x="446" y="564" on="0"/>
        <pt x="406" y="600" on="0"/>
        <pt x="369" y="600" on="1"/>
        <pt x="324" y="600" on="0"/>
        <pt x="268" y="554" on="0"/>
        <pt x="260" y="513" on="1"/>
        <pt x="245" y="428" on="1"/>
        <pt x="405" y="428" on="1"/>
        <pt x="390" y="343" on="1"/>
        <pt x="229" y="343" on="1"/>
        <pt x="218" y="282" on="1"/>
        <pt x="378" y="282" on="1"/>
        <pt x="364" y="197" on="1"/>
        <pt x="203" y="197" on="1"/>
        <pt x="174" y="101" on="1"/>
        <pt x="487" y="101" on="1"/>
        <pt x="469" y="0" on="1"/>
        <pt x="-16" y="0" on="1"/>
      </contour>
    </TTGlyph>
    <TTGlyph name="logicalnot" xMin="52" yMin="194" xMax="560" yMax="454">
      <contour>
        <pt x="450" y="358" on="1"/>
        <pt x="52" y="358" on="1"/>
        <pt x="70" y="454" on="1"/>
        <pt x="560" y="454" on="1"/>
        <pt x="514" y="194" on="1"/>
        <pt x="421" y="194" on="1"/>
      </contour>
    </TTGlyph>
    <TTGlyph name="longs" xMin="-99" yMin="-182" xMax="368" yMax="731">
      <contour>
        <pt x="-34" y="-182" on="0"/>
        <pt x="-84" y="-173" on="0"/>
        <pt x="-99" y="-167" on="1"/>
        <pt x="-84" y="-84" on="1"/>
        <pt x="-33" y="-84" on="1"/>
        <pt x="11" y="-84" on="0"/>
        <pt x="19" y="-39" on="1"/>
        <pt x="101" y="428" on="1"/>
        <pt x="25" y="428" on="1"/>
        <pt x="43" y="526" on="1"/>
        <pt x="119" y="526" on="1"/>
        <pt x="130" y="594" on="1"/>
        <pt x="141" y="654" on="0"/>
        <pt x="211" y="731" on="0"/>
        <pt x="280" y="731" on="1"/>
        <pt x="303" y="731" on="0"/>
        <pt x="352" y="722" on="0"/>
        <pt x="368" y="716" on="1"/>
        <pt x="353" y="633" on="1"/>
        <pt x="302" y="633" on="1"/>
        <pt x="258" y="633" on="0"/>
        <pt x="250" y="588" on="1"/>
        <pt x="138" y="-45" on="1"/>
        <pt x="114" y="-182" on="0"/>
        <pt x="-12" y="-182" on="1"/>
      </contour>
    </TTGlyph>
</ttFont>
